<?xml version="1.0" encoding="UTF-8"?>
<!DOCTYPE svg PUBLIC "-//W3C//DTD SVG 1.1//EN" "http://www.w3.org/Graphics/SVG/1.1/DTD/svg11.dtd">
<!-- Creator: CorelDRAW 2020 (64-Bit) -->
<svg xmlns="http://www.w3.org/2000/svg" xml:space="preserve" width="315px" height="135px" version="1.1" style="shape-rendering:geometricPrecision; text-rendering:geometricPrecision; image-rendering:optimizeQuality; fill-rule:evenodd; clip-rule:evenodd"
viewBox="0 0 44.03 18.93"
 xmlns:xlink="http://www.w3.org/1999/xlink"
 xmlns:xodm="http://www.corel.com/coreldraw/odm/2003">
 <defs>
  <style type="text/css">
   <![CDATA[
    .fil1 {fill:white}
    .fil0 {fill:white;fill-rule:nonzero}
   ]]>
  </style>
 </defs>
 <g id="Capa_x0020_1">
  <metadata id="CorelCorpID_0Corel-Layer"/>
  <g id="_2317859337536">
   <path class="fil0" d="M16.56 12.81l0 -0.19c0,-0.05 -0.01,-0.09 -0.02,-0.11 -0.02,-0.01 -0.05,-0.02 -0.09,-0.02 -0.04,0 -0.07,0.01 -0.09,0.02 -0.01,0.02 -0.02,0.06 -0.02,0.11l0 1c0,0.06 0.01,0.09 0.02,0.11 0.02,0.02 0.05,0.02 0.09,0.02 0.04,0 0.07,0 0.09,-0.02 0.01,-0.02 0.02,-0.05 0.02,-0.11l0 -0.26 0.4 0 0 0.2c0,0.13 0,0.22 -0.02,0.28 -0.01,0.05 -0.03,0.1 -0.06,0.14 -0.04,0.04 -0.08,0.07 -0.13,0.09 -0.05,0.01 -0.15,0.02 -0.29,0.02 -0.16,0 -0.27,-0.01 -0.33,-0.02 -0.06,-0.02 -0.11,-0.05 -0.14,-0.09 -0.04,-0.04 -0.06,-0.09 -0.08,-0.15 -0.02,-0.05 -0.02,-0.14 -0.02,-0.27l0 -0.88c0,-0.12 0,-0.22 0.02,-0.27 0.01,-0.06 0.04,-0.11 0.08,-0.15 0.04,-0.04 0.09,-0.07 0.15,-0.09 0.07,-0.01 0.17,-0.02 0.32,-0.02 0.13,0 0.22,0 0.28,0.02 0.06,0.02 0.1,0.05 0.13,0.09 0.04,0.04 0.06,0.09 0.07,0.15 0.02,0.05 0.02,0.15 0.02,0.27l0 0.13 -0.4 0zm0.63 1.26l0 -1.9 0.83 0 0 0.34 -0.39 0 0 0.42 0.37 0 0 0.33 -0.37 0 0 0.47 0.43 0 0 0.34 -0.87 0zm1.08 0l0 -1.9 0.63 0 0.34 1.5 -0.03 -1.5 0.4 0 0 1.9 -0.62 0 -0.35 -1.54 0.03 1.54 -0.4 0zm1.8 0l0 -1.56 -0.3 0 0 -0.34 1.04 0 0 0.34 -0.3 0 0 1.56 -0.44 0zm1.45 -1.56l-0.11 0 0 0.58 0.11 0c0.05,0 0.09,-0.01 0.11,-0.03 0.02,-0.02 0.03,-0.05 0.03,-0.1l0 -0.32c0,-0.05 -0.01,-0.09 -0.03,-0.11 -0.02,-0.01 -0.06,-0.02 -0.11,-0.02zm0.13 1.08c0,-0.07 -0.01,-0.11 -0.03,-0.14 -0.03,-0.02 -0.07,-0.03 -0.14,-0.03l-0.07 0 0 0.65 -0.44 0 0 -1.9 0.46 0c0.27,0 0.45,0.03 0.54,0.1 0.09,0.07 0.13,0.2 0.13,0.39l0 0.21c0,0.11 -0.02,0.2 -0.07,0.26 -0.05,0.05 -0.13,0.09 -0.24,0.11 0.1,0.02 0.18,0.05 0.23,0.1 0.04,0.06 0.07,0.13 0.07,0.23l0 0.5 -0.44 0 0 -0.48zm1.38 0.03l0 -1c0,-0.05 -0.01,-0.09 -0.03,-0.11 -0.01,-0.01 -0.04,-0.02 -0.09,-0.02 -0.05,0 -0.08,0.01 -0.1,0.02 -0.01,0.02 -0.02,0.06 -0.02,0.11l0 1c0,0.06 0.01,0.09 0.02,0.11 0.02,0.02 0.05,0.02 0.1,0.02 0.05,0 0.08,0 0.09,-0.02 0.02,-0.02 0.03,-0.05 0.03,-0.11zm0.45 -0.06c0,0.13 -0.01,0.22 -0.02,0.28 -0.02,0.05 -0.04,0.1 -0.08,0.14 -0.04,0.04 -0.08,0.07 -0.14,0.09 -0.06,0.01 -0.17,0.02 -0.33,0.02 -0.16,0 -0.27,-0.01 -0.33,-0.02 -0.06,-0.02 -0.11,-0.05 -0.14,-0.09 -0.04,-0.04 -0.07,-0.09 -0.08,-0.15 -0.02,-0.05 -0.02,-0.14 -0.02,-0.27l0 -0.88c0,-0.12 0,-0.22 0.02,-0.27 0.01,-0.06 0.04,-0.11 0.08,-0.15 0.03,-0.04 0.09,-0.07 0.15,-0.09 0.07,-0.01 0.17,-0.02 0.32,-0.02 0.15,0 0.25,0.01 0.32,0.02 0.06,0.02 0.11,0.05 0.15,0.09 0.04,0.04 0.06,0.09 0.08,0.15 0.01,0.05 0.02,0.15 0.02,0.27l0 0.88zm0.91 0.51l0 -1.9 0.44 0 0 1.56 0.42 0 0 0.34 -0.86 0zm1.53 -0.78l0.21 0 -0.1 -0.9 -0.11 0.9zm-0.53 0.78l0.28 -1.9 0.71 0 0.29 1.9 -0.45 0 -0.05 -0.47 -0.29 0 -0.05 0.47 -0.44 0zm1.56 0l0 -1.56 -0.29 0 0 -0.34 1.04 0 0 0.34 -0.3 0 0 1.56 -0.45 0zm1.35 0l-0.44 0 0 -1.9 0.44 0 0 1.9zm0.29 0l0 -1.9 0.63 0 0.34 1.5 -0.03 -1.5 0.41 0 0 1.9 -0.63 0 -0.34 -1.54 0.03 1.54 -0.41 0zm2.29 -0.45l0 -1c0,-0.05 -0.01,-0.09 -0.02,-0.11 -0.02,-0.01 -0.05,-0.02 -0.1,-0.02 -0.04,0 -0.08,0.01 -0.09,0.02 -0.02,0.02 -0.02,0.06 -0.02,0.11l0 1c0,0.06 0,0.09 0.02,0.11 0.01,0.02 0.05,0.02 0.09,0.02 0.05,0 0.08,0 0.1,-0.02 0.01,-0.02 0.02,-0.05 0.02,-0.11zm0.45 -0.06c0,0.13 0,0.22 -0.02,0.28 -0.01,0.05 -0.04,0.1 -0.07,0.14 -0.04,0.04 -0.09,0.07 -0.15,0.09 -0.06,0.01 -0.16,0.02 -0.33,0.02 -0.16,0 -0.27,-0.01 -0.33,-0.02 -0.05,-0.02 -0.1,-0.05 -0.14,-0.09 -0.04,-0.04 -0.06,-0.09 -0.08,-0.15 -0.01,-0.05 -0.02,-0.14 -0.02,-0.27l0 -0.88c0,-0.12 0.01,-0.22 0.02,-0.27 0.02,-0.06 0.04,-0.11 0.08,-0.15 0.04,-0.04 0.09,-0.07 0.15,-0.09 0.07,-0.01 0.18,-0.02 0.32,-0.02 0.15,0 0.26,0.01 0.32,0.02 0.06,0.02 0.12,0.05 0.15,0.09 0.04,0.04 0.07,0.09 0.08,0.15 0.02,0.05 0.02,0.15 0.02,0.27l0 0.88zm0.69 -0.27l0.2 0 -0.09 -0.9 -0.11 0.9zm-0.53 0.78l0.28 -1.9 0.71 0 0.29 1.9 -0.45 0 -0.06 -0.47 -0.28 0 -0.05 0.47 -0.44 0zm1.46 0l0 -1.9 0.64 0 0.26 1.5 0.26 -1.5 0.63 0 0 1.9 -0.4 0 0.03 -1.61 -0.29 1.61 -0.49 0 -0.29 -1.61 0.03 1.61 -0.38 0zm2.08 0l0 -1.9 0.83 0 0 0.34 -0.39 0 0 0.42 0.37 0 0 0.33 -0.37 0 0 0.47 0.43 0 0 0.34 -0.87 0zm1.63 -1.56l-0.11 0 0 0.58 0.11 0c0.06,0 0.1,-0.01 0.12,-0.03 0.02,-0.02 0.02,-0.05 0.02,-0.1l0 -0.32c0,-0.05 0,-0.09 -0.02,-0.11 -0.02,-0.01 -0.06,-0.02 -0.12,-0.02zm0.14 1.08c0,-0.07 -0.01,-0.11 -0.04,-0.14 -0.02,-0.02 -0.07,-0.03 -0.13,-0.03l-0.08 0 0 0.65 -0.44 0 0 -1.9 0.46 0c0.27,0 0.45,0.03 0.54,0.1 0.09,0.07 0.13,0.2 0.13,0.39l0 0.21c0,0.11 -0.02,0.2 -0.07,0.26 -0.04,0.05 -0.12,0.09 -0.23,0.11 0.1,0.02 0.17,0.05 0.22,0.1 0.05,0.06 0.07,0.13 0.07,0.23l0 0.5 -0.43 0 0 -0.48zm1.15 0.48l-0.44 0 0 -1.9 0.44 0 0 1.9zm0.95 -1.26l0 -0.19c0,-0.05 -0.01,-0.09 -0.03,-0.11 -0.01,-0.01 -0.04,-0.02 -0.08,-0.02 -0.05,0 -0.08,0.01 -0.09,0.02 -0.01,0.02 -0.02,0.06 -0.02,0.11l0 1c0,0.06 0.01,0.09 0.02,0.11 0.01,0.02 0.04,0.02 0.09,0.02 0.04,0 0.07,0 0.08,-0.02 0.02,-0.02 0.03,-0.05 0.03,-0.11l0 -0.26 0.4 0 0 0.2c0,0.13 -0.01,0.22 -0.02,0.28 -0.01,0.05 -0.04,0.1 -0.07,0.14 -0.03,0.04 -0.07,0.07 -0.13,0.09 -0.05,0.01 -0.14,0.02 -0.28,0.02 -0.17,0 -0.28,-0.01 -0.33,-0.02 -0.06,-0.02 -0.11,-0.05 -0.15,-0.09 -0.03,-0.04 -0.06,-0.09 -0.07,-0.15 -0.02,-0.05 -0.03,-0.14 -0.03,-0.27l0 -0.88c0,-0.12 0.01,-0.22 0.02,-0.27 0.02,-0.06 0.05,-0.11 0.08,-0.15 0.04,-0.04 0.09,-0.07 0.16,-0.09 0.06,-0.01 0.17,-0.02 0.32,-0.02 0.12,0 0.22,0 0.27,0.02 0.06,0.02 0.11,0.05 0.14,0.09 0.03,0.04 0.05,0.09 0.07,0.15 0.01,0.05 0.02,0.15 0.02,0.27l0 0.13 -0.4 0zm1.13 0.48l0.2 0 -0.09 -0.9 -0.11 0.9zm-0.53 0.78l0.28 -1.9 0.71 0 0.29 1.9 -0.46 0 -0.05 -0.47 -0.28 0 -0.05 0.47 -0.44 0zm1.46 0l0 -1.9 0.62 0 0.34 1.5 -0.02 -1.5 0.4 0 0 1.9 -0.62 0 -0.35 -1.54 0.03 1.54 -0.4 0zm2.28 -0.45l0 -1c0,-0.05 -0.01,-0.09 -0.02,-0.11 -0.02,-0.01 -0.05,-0.02 -0.09,-0.02 -0.05,0 -0.08,0.01 -0.1,0.02 -0.02,0.02 -0.02,0.06 -0.02,0.11l0 1c0,0.06 0,0.09 0.02,0.11 0.02,0.02 0.05,0.02 0.1,0.02 0.04,0 0.07,0 0.09,-0.02 0.01,-0.02 0.02,-0.05 0.02,-0.11zm0.46 -0.06c0,0.13 -0.01,0.22 -0.03,0.28 -0.01,0.05 -0.04,0.1 -0.07,0.14 -0.04,0.04 -0.09,0.07 -0.15,0.09 -0.05,0.01 -0.16,0.02 -0.33,0.02 -0.16,0 -0.27,-0.01 -0.32,-0.02 -0.06,-0.02 -0.11,-0.05 -0.15,-0.09 -0.04,-0.04 -0.06,-0.09 -0.08,-0.15 -0.01,-0.05 -0.02,-0.14 -0.02,-0.27l0 -0.88c0,-0.12 0.01,-0.22 0.02,-0.27 0.02,-0.06 0.04,-0.11 0.08,-0.15 0.04,-0.04 0.09,-0.07 0.16,-0.09 0.06,-0.01 0.17,-0.02 0.31,-0.02 0.15,0 0.26,0.01 0.32,0.02 0.07,0.02 0.12,0.05 0.16,0.09 0.03,0.04 0.06,0.09 0.07,0.15 0.02,0.05 0.03,0.15 0.03,0.27l0 0.88zm-27.79 3.34l0 -1.9 0.56 0c0.23,0 0.38,0.04 0.46,0.12 0.08,0.08 0.11,0.23 0.11,0.47l0 0.72c0,0.23 -0.03,0.39 -0.11,0.47 -0.08,0.08 -0.23,0.12 -0.46,0.12l-0.56 0zm0.68 -0.47l0 -0.96c0,-0.05 -0.01,-0.09 -0.02,-0.11 -0.02,-0.01 -0.05,-0.02 -0.1,-0.02l-0.12 0 0 1.22 0.12 0c0.05,0 0.08,-0.01 0.1,-0.03 0.01,-0.01 0.02,-0.05 0.02,-0.1zm0.71 0.47l0 -1.9 0.83 0 0 0.34 -0.39 0 0 0.42 0.37 0 0 0.32 -0.37 0 0 0.48 0.43 0 0 0.34 -0.87 0zm1.74 0l0 -1.9 0.83 0 0 0.34 -0.39 0 0 0.42 0.37 0 0 0.32 -0.37 0 0 0.48 0.43 0 0 0.34 -0.87 0zm1.46 -0.64l0 0.19c0,0.05 0.01,0.08 0.03,0.1 0.02,0.02 0.05,0.03 0.1,0.03 0.05,0 0.08,-0.01 0.1,-0.03 0.02,-0.02 0.03,-0.05 0.03,-0.11l0 -0.13c0,-0.04 0,-0.07 -0.01,-0.09 -0.01,-0.02 -0.01,-0.04 -0.03,-0.06 -0.02,-0.03 -0.09,-0.06 -0.2,-0.08 -0.04,-0.01 -0.08,-0.02 -0.11,-0.03 -0.12,-0.03 -0.2,-0.08 -0.25,-0.15 -0.05,-0.06 -0.07,-0.16 -0.07,-0.29l0 -0.18c0,-0.17 0.03,-0.29 0.1,-0.35 0.06,-0.07 0.18,-0.11 0.34,-0.11l0.13 0c0.11,0 0.19,0.01 0.25,0.03 0.07,0.02 0.12,0.05 0.16,0.08 0.03,0.03 0.05,0.07 0.06,0.12 0.01,0.04 0.02,0.12 0.02,0.22l0 0.15 -0.39 0 0 -0.12c0,-0.06 -0.01,-0.1 -0.03,-0.12 -0.01,-0.02 -0.04,-0.03 -0.09,-0.03 -0.05,0 -0.08,0.01 -0.1,0.03 -0.01,0.01 -0.02,0.05 -0.02,0.1l0 0.12c0,0.1 0.08,0.16 0.24,0.2 0.04,0.01 0.08,0.02 0.1,0.03 0.12,0.04 0.21,0.08 0.25,0.14 0.05,0.07 0.07,0.16 0.07,0.3l0 0.25c0,0.16 -0.04,0.27 -0.11,0.35 -0.08,0.07 -0.2,0.1 -0.37,0.1l-0.12 0c-0.19,0 -0.31,-0.03 -0.38,-0.1 -0.07,-0.06 -0.11,-0.18 -0.11,-0.35l0 -0.21 0.41 0zm1.1 0.64l0 -1.56 -0.3 0 0 -0.34 1.04 0 0 0.34 -0.3 0 0 1.56 -0.44 0zm0.89 -1.9l0.44 0 0 1.44c0,0.06 0.01,0.09 0.03,0.11 0.01,0.02 0.04,0.03 0.09,0.03 0.05,0 0.08,-0.01 0.1,-0.03 0.01,-0.02 0.02,-0.05 0.02,-0.11l0 -1.44 0.42 0 0 1.28c0,0.15 0,0.26 -0.02,0.33 -0.01,0.07 -0.04,0.13 -0.08,0.17 -0.03,0.05 -0.09,0.09 -0.15,0.11 -0.07,0.02 -0.17,0.03 -0.3,0.03 -0.13,0 -0.23,-0.01 -0.3,-0.03 -0.06,-0.02 -0.11,-0.06 -0.15,-0.11 -0.04,-0.04 -0.06,-0.1 -0.08,-0.17 -0.01,-0.06 -0.02,-0.17 -0.02,-0.33l0 -1.28zm1.37 1.9l0 -1.9 0.56 0c0.23,0 0.38,0.04 0.46,0.12 0.08,0.08 0.12,0.23 0.12,0.47l0 0.72c0,0.23 -0.04,0.39 -0.12,0.47 -0.08,0.08 -0.23,0.12 -0.46,0.12l-0.56 0zm0.68 -0.47l0 -0.96c0,-0.05 -0.01,-0.09 -0.02,-0.11 -0.02,-0.01 -0.05,-0.02 -0.1,-0.02l-0.11 0 0 1.22 0.11 0c0.05,0 0.08,-0.01 0.1,-0.03 0.01,-0.01 0.02,-0.05 0.02,-0.1zm1.16 0.47l-0.44 0 0 -1.9 0.44 0 0 1.9zm0.96 -0.45l0 -1c0,-0.06 -0.01,-0.09 -0.02,-0.11 -0.02,-0.02 -0.05,-0.03 -0.1,-0.03 -0.04,0 -0.08,0.01 -0.09,0.03 -0.02,0.02 -0.02,0.05 -0.02,0.11l0 1c0,0.05 0,0.09 0.02,0.11 0.01,0.01 0.05,0.02 0.09,0.02 0.05,0 0.08,-0.01 0.1,-0.02 0.01,-0.02 0.02,-0.06 0.02,-0.11zm0.45 -0.06c0,0.13 0,0.22 -0.02,0.28 -0.01,0.05 -0.04,0.1 -0.07,0.14 -0.04,0.04 -0.09,0.07 -0.15,0.09 -0.06,0.01 -0.16,0.02 -0.33,0.02 -0.16,0 -0.27,-0.01 -0.33,-0.02 -0.05,-0.02 -0.1,-0.05 -0.14,-0.09 -0.04,-0.04 -0.06,-0.09 -0.08,-0.15 -0.01,-0.06 -0.02,-0.15 -0.02,-0.27l0 -0.88c0,-0.13 0.01,-0.22 0.02,-0.28 0.02,-0.05 0.04,-0.1 0.08,-0.14 0.04,-0.04 0.09,-0.07 0.15,-0.09 0.07,-0.02 0.18,-0.03 0.32,-0.03 0.15,0 0.26,0.01 0.32,0.03 0.06,0.02 0.12,0.05 0.15,0.09 0.04,0.04 0.07,0.09 0.08,0.14 0.02,0.06 0.02,0.15 0.02,0.28l0 0.88zm0.63 -0.13l0 0.19c0,0.05 0.01,0.08 0.03,0.1 0.02,0.02 0.06,0.03 0.1,0.03 0.05,0 0.09,-0.01 0.11,-0.03 0.02,-0.02 0.02,-0.05 0.02,-0.11l0 -0.13c0,-0.04 0,-0.07 0,-0.09 -0.01,-0.02 -0.02,-0.04 -0.03,-0.06 -0.03,-0.03 -0.09,-0.06 -0.2,-0.08 -0.05,-0.01 -0.08,-0.02 -0.11,-0.03 -0.12,-0.03 -0.21,-0.08 -0.25,-0.15 -0.05,-0.06 -0.07,-0.16 -0.07,-0.29l0 -0.18c0,-0.17 0.03,-0.29 0.1,-0.35 0.06,-0.07 0.18,-0.11 0.34,-0.11l0.13 0c0.1,0 0.19,0.01 0.25,0.03 0.07,0.02 0.12,0.05 0.16,0.08 0.03,0.03 0.05,0.07 0.06,0.12 0.01,0.04 0.02,0.12 0.02,0.22l0 0.15 -0.4 0 0 -0.12c0,-0.06 0,-0.1 -0.02,-0.12 -0.02,-0.02 -0.05,-0.03 -0.1,-0.03 -0.04,0 -0.08,0.01 -0.09,0.03 -0.02,0.01 -0.03,0.05 -0.03,0.1l0 0.12c0,0.1 0.08,0.16 0.24,0.2 0.05,0.01 0.08,0.02 0.11,0.03 0.12,0.04 0.2,0.08 0.25,0.14 0.05,0.07 0.07,0.16 0.07,0.3l0 0.25c0,0.16 -0.04,0.27 -0.11,0.35 -0.08,0.07 -0.2,0.1 -0.37,0.1l-0.12 0c-0.19,0 -0.32,-0.03 -0.39,-0.1 -0.07,-0.06 -0.1,-0.18 -0.1,-0.35l0 -0.21 0.4 0zm2.24 -0.62l0 -0.19c0,-0.06 -0.01,-0.09 -0.03,-0.11 -0.01,-0.02 -0.04,-0.03 -0.08,-0.03 -0.05,0 -0.08,0.01 -0.09,0.03 -0.01,0.02 -0.02,0.05 -0.02,0.11l0 1c0,0.05 0.01,0.09 0.02,0.11 0.01,0.01 0.04,0.02 0.09,0.02 0.04,0 0.07,-0.01 0.08,-0.02 0.02,-0.02 0.03,-0.06 0.03,-0.11l0 -0.26 0.4 0 0 0.2c0,0.12 -0.01,0.22 -0.02,0.27 -0.01,0.06 -0.04,0.11 -0.07,0.15 -0.03,0.04 -0.07,0.07 -0.13,0.09 -0.05,0.01 -0.14,0.02 -0.28,0.02 -0.16,0 -0.27,-0.01 -0.33,-0.02 -0.06,-0.02 -0.11,-0.05 -0.15,-0.09 -0.03,-0.04 -0.06,-0.09 -0.07,-0.15 -0.02,-0.06 -0.03,-0.15 -0.03,-0.27l0 -0.88c0,-0.13 0.01,-0.22 0.03,-0.28 0.01,-0.05 0.04,-0.1 0.07,-0.14 0.04,-0.04 0.09,-0.07 0.16,-0.09 0.06,-0.02 0.17,-0.03 0.32,-0.03 0.12,0 0.22,0.01 0.27,0.03 0.06,0.02 0.11,0.04 0.14,0.09 0.03,0.04 0.06,0.08 0.07,0.14 0.01,0.06 0.02,0.15 0.02,0.28l0 0.13 -0.4 0zm1.08 1.26l-0.45 0 0 -1.9 0.45 0 0 1.9zm0.29 0l0 -1.9 0.83 0 0 0.34 -0.39 0 0 0.42 0.37 0 0 0.32 -0.37 0 0 0.48 0.43 0 0 0.34 -0.87 0zm1.08 0l0 -1.9 0.62 0 0.35 1.5 -0.03 -1.5 0.4 0 0 1.9 -0.62 0 -0.35 -1.55 0.03 1.55 -0.4 0zm1.79 0l0 -1.56 -0.29 0 0 -0.34 1.04 0 0 0.34 -0.3 0 0 1.56 -0.45 0zm1.35 0l-0.44 0 0 -1.9 0.44 0 0 1.9zm0.16 -2.53l-0.4 0.48 -0.18 0 0.25 -0.48 0.33 0zm0.13 2.53l0 -1.9 0.84 0 0 0.34 -0.39 0 0 0.47 0.35 0 0 0.34 -0.35 0 0 0.75 -0.45 0zm1.5 0l-0.45 0 0 -1.9 0.45 0 0 1.9zm0.94 -1.26l0 -0.19c0,-0.06 -0.01,-0.09 -0.02,-0.11 -0.02,-0.02 -0.05,-0.03 -0.09,-0.03 -0.05,0 -0.07,0.01 -0.09,0.03 -0.01,0.02 -0.02,0.05 -0.02,0.11l0 1c0,0.05 0.01,0.09 0.02,0.11 0.02,0.01 0.04,0.02 0.09,0.02 0.04,0 0.07,-0.01 0.09,-0.02 0.01,-0.02 0.02,-0.06 0.02,-0.11l0 -0.26 0.4 0 0 0.2c0,0.12 -0.01,0.22 -0.02,0.27 -0.01,0.06 -0.03,0.11 -0.07,0.15 -0.03,0.04 -0.07,0.07 -0.12,0.09 -0.06,0.01 -0.15,0.02 -0.29,0.02 -0.16,0 -0.27,-0.01 -0.33,-0.02 -0.06,-0.02 -0.11,-0.05 -0.15,-0.09 -0.03,-0.04 -0.06,-0.09 -0.07,-0.15 -0.02,-0.06 -0.02,-0.15 -0.02,-0.27l0 -0.88c0,-0.13 0,-0.22 0.02,-0.28 0.01,-0.05 0.04,-0.1 0.07,-0.14 0.04,-0.04 0.1,-0.07 0.16,-0.09 0.06,-0.02 0.17,-0.03 0.32,-0.03 0.13,0 0.22,0.01 0.28,0.03 0.05,0.02 0.1,0.04 0.13,0.09 0.03,0.04 0.06,0.08 0.07,0.14 0.01,0.06 0.02,0.15 0.02,0.28l0 0.13 -0.4 0zm1.29 0.81l0 -1c0,-0.06 0,-0.09 -0.02,-0.11 -0.02,-0.02 -0.05,-0.03 -0.09,-0.03 -0.05,0 -0.08,0.01 -0.1,0.03 -0.01,0.02 -0.02,0.05 -0.02,0.11l0 1c0,0.05 0.01,0.09 0.02,0.11 0.02,0.01 0.05,0.02 0.1,0.02 0.04,0 0.07,-0.01 0.09,-0.02 0.02,-0.02 0.02,-0.06 0.02,-0.11zm0.46 -0.06c0,0.13 -0.01,0.22 -0.02,0.28 -0.02,0.05 -0.04,0.1 -0.08,0.14 -0.04,0.04 -0.09,0.07 -0.14,0.09 -0.06,0.01 -0.17,0.02 -0.33,0.02 -0.17,0 -0.28,-0.01 -0.33,-0.02 -0.06,-0.02 -0.11,-0.05 -0.15,-0.09 -0.03,-0.04 -0.06,-0.09 -0.07,-0.15 -0.02,-0.06 -0.03,-0.15 -0.03,-0.27l0 -0.88c0,-0.13 0.01,-0.22 0.02,-0.28 0.02,-0.05 0.05,-0.1 0.08,-0.14 0.04,-0.04 0.09,-0.07 0.16,-0.09 0.06,-0.02 0.17,-0.03 0.32,-0.03 0.14,0 0.25,0.01 0.31,0.03 0.07,0.02 0.12,0.05 0.16,0.09 0.03,0.04 0.06,0.09 0.07,0.14 0.02,0.06 0.03,0.15 0.03,0.28l0 0.88zm0.63 -0.13l0 0.19c0,0.05 0.01,0.08 0.03,0.1 0.02,0.02 0.05,0.03 0.1,0.03 0.05,0 0.08,-0.01 0.1,-0.03 0.02,-0.02 0.03,-0.05 0.03,-0.11l0 -0.13c0,-0.04 -0.01,-0.07 -0.01,-0.09 -0.01,-0.02 -0.01,-0.04 -0.03,-0.06 -0.03,-0.03 -0.09,-0.06 -0.2,-0.08 -0.04,-0.01 -0.08,-0.02 -0.11,-0.03 -0.12,-0.03 -0.21,-0.08 -0.25,-0.15 -0.05,-0.06 -0.07,-0.16 -0.07,-0.29l0 -0.18c0,-0.17 0.03,-0.29 0.1,-0.35 0.06,-0.07 0.18,-0.11 0.34,-0.11l0.13 0c0.1,0 0.19,0.01 0.25,0.03 0.07,0.02 0.12,0.05 0.16,0.08 0.03,0.03 0.05,0.07 0.06,0.12 0.01,0.04 0.02,0.12 0.02,0.22l0 0.15 -0.39 0 0 -0.12c0,-0.06 -0.01,-0.1 -0.03,-0.12 -0.01,-0.02 -0.04,-0.03 -0.09,-0.03 -0.05,0 -0.08,0.01 -0.1,0.03 -0.02,0.01 -0.02,0.05 -0.02,0.1l0 0.12c0,0.1 0.08,0.16 0.23,0.2 0.05,0.01 0.09,0.02 0.11,0.03 0.12,0.04 0.21,0.08 0.25,0.14 0.05,0.07 0.07,0.16 0.07,0.3l0 0.25c0,0.16 -0.04,0.27 -0.11,0.35 -0.08,0.07 -0.2,0.1 -0.37,0.1l-0.12 0c-0.19,0 -0.31,-0.03 -0.39,-0.1 -0.07,-0.06 -0.1,-0.18 -0.1,-0.35l0 -0.21 0.41 0z"/>
   <path class="fil0" d="M19.39 5.15l0 -0.91c0,-0.25 -0.04,-0.42 -0.11,-0.5 -0.06,-0.08 -0.2,-0.13 -0.41,-0.13 -0.21,0 -0.34,0.05 -0.41,0.13 -0.06,0.08 -0.1,0.25 -0.1,0.5l0 4.72c0,0.26 0.04,0.43 0.1,0.51 0.07,0.08 0.2,0.12 0.41,0.12 0.21,0 0.35,-0.04 0.41,-0.12 0.07,-0.08 0.11,-0.25 0.11,-0.51l0 -1.22 1.9 0 0 0.93c0,0.6 -0.03,1.04 -0.09,1.3 -0.07,0.27 -0.17,0.5 -0.32,0.68 -0.16,0.2 -0.36,0.34 -0.61,0.42 -0.24,0.08 -0.7,0.11 -1.35,0.11 -0.76,0 -1.28,-0.03 -1.56,-0.11 -0.27,-0.08 -0.5,-0.22 -0.68,-0.42 -0.17,-0.18 -0.29,-0.41 -0.36,-0.68 -0.07,-0.27 -0.11,-0.71 -0.11,-1.3l0 -4.14c0,-0.59 0.04,-1.03 0.11,-1.3 0.07,-0.27 0.19,-0.49 0.36,-0.68 0.19,-0.2 0.43,-0.34 0.74,-0.42 0.3,-0.08 0.8,-0.12 1.5,-0.12 0.6,0 1.03,0.04 1.3,0.12 0.28,0.07 0.49,0.21 0.65,0.41 0.15,0.19 0.26,0.42 0.32,0.69 0.07,0.28 0.1,0.71 0.1,1.3l0 0.62 -1.9 0zm2.96 5.92l0 -8.95 2.09 0 0 7.35 1.97 0 0 1.6 -4.06 0zm7.24 -3.69l0.95 0 -0.46 -4.22 -0.49 4.22zm-2.52 3.69l1.34 -8.95 3.33 0 1.37 8.95 -2.14 0 -0.24 -2.19 -1.32 0 -0.25 2.19 -2.09 0zm6.88 0l0 -8.95 3.94 0 0 1.61 -1.85 0 0 1.97 1.73 0 0 1.55 -1.73 0 0 2.22 2.02 0 0 1.6 -4.11 0zm8.17 -5.92l0 -0.91c0,-0.25 -0.03,-0.42 -0.1,-0.5 -0.07,-0.08 -0.2,-0.13 -0.41,-0.13 -0.21,0 -0.34,0.05 -0.41,0.13 -0.07,0.08 -0.1,0.25 -0.1,0.5l0 4.72c0,0.26 0.03,0.43 0.1,0.51 0.07,0.08 0.2,0.12 0.41,0.12 0.21,0 0.34,-0.04 0.41,-0.12 0.07,-0.08 0.1,-0.25 0.1,-0.51l0 -1.22 1.91 0 0 0.93c0,0.6 -0.03,1.04 -0.1,1.3 -0.06,0.27 -0.17,0.5 -0.31,0.68 -0.16,0.2 -0.36,0.34 -0.61,0.42 -0.25,0.08 -0.7,0.11 -1.35,0.11 -0.77,0 -1.28,-0.03 -1.56,-0.11 -0.27,-0.08 -0.5,-0.22 -0.68,-0.42 -0.17,-0.18 -0.29,-0.41 -0.36,-0.68 -0.07,-0.27 -0.11,-0.71 -0.11,-1.3l0 -4.14c0,-0.59 0.04,-1.03 0.11,-1.3 0.07,-0.27 0.19,-0.49 0.36,-0.68 0.19,-0.2 0.43,-0.34 0.73,-0.42 0.31,-0.08 0.81,-0.12 1.51,-0.12 0.6,0 1.03,0.04 1.3,0.12 0.27,0.07 0.49,0.21 0.64,0.41 0.16,0.19 0.27,0.42 0.33,0.69 0.06,0.28 0.1,0.71 0.1,1.3l0 0.62 -1.91 0z"/>
   <path class="fil1" d="M1.44 5.85l5.45 -1.97 0 12.87 -5.45 -2.7 0 -8.2zm1.2 3.24c-0.19,-0.66 -0.37,-1.33 -0.56,-1.99 -0.1,0.03 -0.19,0.06 -0.29,0.08 0.02,0.08 0.61,2.16 0.68,2.41 0.01,0.02 0.03,0.03 0.05,0.03 0.59,-0.17 1.19,-0.34 1.79,-0.5 -0.4,-0.13 -1.06,-0.01 -1.48,0.09 -0.13,0.03 -0.16,-0.01 -0.19,-0.12zm3.49 -0.99c-0.19,-0.66 -0.38,-1.32 -0.56,-1.98 0.09,-0.03 0.19,-0.06 0.29,-0.08 0.02,0.07 0.6,2.15 0.68,2.4 0,0.02 -0.01,0.05 -0.03,0.05 -0.6,0.17 -1.2,0.34 -1.8,0.51 0.28,-0.32 0.9,-0.56 1.32,-0.69 0.12,-0.04 0.13,-0.1 0.1,-0.21zm-0.71 -2.2l0.65 2.3c-0.65,0.16 -1.16,0.43 -1.52,0.82l-0.66 -2.32c0.35,-0.38 0.86,-0.65 1.53,-0.8zm-3.33 0.94l0.64 2.3c0.65,-0.21 1.23,-0.24 1.74,-0.1l-0.66 -2.32c-0.49,-0.14 -1.07,-0.1 -1.72,0.12zm3.67 5.67c0.2,-0.15 0.26,-0.39 0.17,-0.61 -0.05,-0.1 -0.13,-0.18 -0.23,-0.23 -0.3,-0.15 -0.7,0.07 -0.7,0.45l-0.28 0.09c-0.04,-0.06 -0.16,-0.12 -0.23,-0.14 -0.1,-0.03 -0.19,-0.02 -0.28,0.01 -0.02,0 -0.03,0.01 -0.05,0.01l-0.48 -0.47c0.01,-0.07 0.04,-0.09 0.04,-0.21 0,-0.38 -0.42,-0.62 -0.75,-0.4 -0.21,0.14 -0.27,0.4 -0.16,0.62 0.11,0.23 0.41,0.34 0.67,0.2l0.46 0.47c-0.09,0.18 -0.05,0.26 -0.05,0.36l-0.29 0.19c-0.12,-0.07 -0.18,-0.1 -0.33,-0.1 -0.39,0 -0.64,0.52 -0.33,0.82 0.35,0.35 0.94,0.04 0.82,-0.46 0.1,-0.07 0.2,-0.13 0.3,-0.2 0.11,0.09 0.25,0.12 0.39,0.1 0.03,0 0.04,-0.01 0.07,-0.01 0.01,0.02 0.12,0.18 0.14,0.21 -0.05,0.09 -0.14,0.12 -0.14,0.39 0,0.22 0.22,0.45 0.47,0.45 0.12,0 0.21,-0.02 0.31,-0.09 0.34,-0.25 0.24,-0.77 -0.17,-0.88 -0.09,-0.02 -0.12,-0.01 -0.2,0l-0.17 -0.26c0.06,-0.11 0.11,-0.21 0.08,-0.35 0.02,-0.01 0.24,-0.08 0.25,-0.08 0.01,0 0.06,0.06 0.07,0.07 0.16,0.15 0.42,0.18 0.6,0.05z"/>
   <path class="fil1" d="M12.68 1.78l-5.44 1.97 0 13 5.44 -2.7 0 -12.27zm-2.46 5.9c-0.04,0.09 0.02,0.04 -0.02,0.12 -0.02,0.05 0.04,0.23 -0.05,0.35l-0.03 0.11c-0.01,0 -0.01,0.01 -0.03,0l0.01 0.03c-0.01,0.13 0.05,0.07 -0.01,0.17l-0.01 0.11c0.02,0.02 0.02,0 0.01,0.02 0,0 -0.01,0 -0.01,0l-0.02 0.1 0.03 0.01 0 -0.06 0.02 0c0,-0.02 0,-0.03 0,-0.04 0.12,0 0.05,0.03 0.04,0.02l-0.01 0.01c0,0.06 0,0.04 -0.01,0.12 0,0 -0.01,0 -0.01,0l0 0.02 0.01 0.01 -0.01 0 -0.01 0.02 0.01 0.02 0.03 -0.02 -0.01 -0.01 0.01 0c-0.01,0.03 0,0.03 -0.04,0.05l0 0.02 0.02 0.01c0,0 0,0 0,0l-0.04 0.01c0.01,0.04 0,0.08 -0.01,0.08l0.01 -0.05c0,0 0,-0.01 0,-0.01l-0.01 0.01c0,0.02 0,0.03 -0.03,0.03 0,0 0,0 0,0l0.03 -0.02c-0.01,0 -0.01,0 -0.01,-0.01 0.01,-0.01 0.01,-0.02 0.02,-0.03 0,-0.01 0,0 -0.01,-0.01 -0.02,0 -0.01,0.02 -0.01,0.02l-0.05 0.02 0.01 0.02c-0.08,0.07 0,-0.02 -0.01,0.05 0.03,0.01 0.03,0.03 0.03,0 0.01,0 0.01,0 0.01,0l0.01 0.02c0,0.01 0,0.01 0,0.01l-0.02 0.03c0,0 0.01,0.01 0.02,0.01l-0.01 0.01c0,0 -0.01,-0.01 -0.01,-0.01l-0.01 0.01c0.04,0.05 0.05,0 0.05,0l0 0 0.02 0.04 -0.07 -0.02 0 0.01 -0.01 -0.03 -0.02 0.01c0,0 0,0 0,0l0.02 0.06c0.1,-0.01 -0.04,0 0.04,0.08l0.01 -0.04c0,0 0,0 0,0 0,0 0,0 0,0 0,0 0,0 0,0l-0.01 0.04 0.02 0.01c-0.01,0 0,0 -0.02,-0.01l-0.01 0.01c0,0.01 0,0.03 0.02,0.03 0,0 0,0 0,0 0,0.01 0,0.01 0,0.01 -0.01,0 -0.01,-0.01 -0.02,-0.01l-0.02 0.02c0.03,0.03 0.03,0.02 0.04,0.03 0,0 -0.01,0 -0.01,0l0.01 0.03 0.01 -0.03c0,0 0,0 0,0l0.01 0.01 -0.01 0.03 -0.06 -0.05 0.01 0.02 -0.03 0c0,0.01 0.01,0.04 0.04,0.05l-0.03 0.01c0,-0.01 0,-0.01 0,-0.01l0.03 0.01 0 -0.01c0,0 0,0 0,0 0,0 0.01,0 0.01,0 0.01,-0.01 0.14,0.09 0.06,0.02 0,0 0,0 0,0 0.01,0.01 0.1,0.42 0.13,0.11 0.1,-0.04 0.07,-0.05 0.09,-0.05 0.01,0.01 0.03,0.01 0.04,0.01 0,0 0,0 0,0 -0.01,0 -0.01,-0.02 -0.01,-0.02 -0.05,-0.01 -0.19,0 -0.2,-0.06l0 -0.08 -0.04 0.01 0 -0.02c0,0 0,0 0,0 0,0.01 0,0.01 0,0.01 0,0 0,0 0,0l0.04 -0.01c0.02,0.01 0,0.04 0.01,0.05 -0.02,0.1 0.21,0.1 0.21,0.1l-0.03 -0.06c0,0 -0.01,0 -0.01,0 0,0 0,0 -0.01,0 0,0 0,0 0,0 0,0 0,0 -0.01,0l0.03 -0.01 -0.01 -0.05c0,0 -0.01,0.01 -0.01,0.01 0,0 0,0 0,0 0,-0.02 0.1,-0.11 0.02,-0.09l0.02 -0.01 0 -0.01c0.07,0.1 0.03,-0.08 0.12,-0.12l0.04 -0.04 -0.01 -0.01 -0.01 0.01c0,0 0,0 0,-0.01 0.02,-0.01 0.03,-0.02 0.02,-0.05 -0.17,-0.03 -0.08,-0.15 -0.05,-0.16 0,-0.02 0.06,-0.01 0.06,-0.01l0 -0.01c-0.03,-0.03 0.02,-0.02 0.01,-0.06 -0.01,-0.07 0.05,-0.08 0.06,-0.09l-0.04 -0.02c0.01,0 0.02,-0.01 0.03,-0.01 0,0.01 0.02,0.03 0.04,0.01 0.01,0 0.01,-0.04 -0.01,-0.04 0,0 -0.04,0.01 -0.01,0.01 0,0 0,0 0,0l-0.03 0.01 0 -0.01 0 0c-0.03,0 -0.02,-0.03 -0.03,-0.08 0.05,-0.1 0.05,0.06 0.16,-0.04 -0.01,-0.02 -0.01,-0.05 0.01,-0.06 0,-0.04 0,-0.03 -0.01,-0.07 0.01,-0.01 0.01,-0.01 0.02,0l0.17 -0.02c0.1,-0.02 0.09,-0.07 0.12,-0.16 -0.06,-0.01 -0.03,-0.05 -0.02,-0.06 0.01,-0.02 -0.06,-0.05 -0.06,-0.05 -0.01,-0.01 -0.02,-0.03 -0.01,-0.04l0.07 0.04c0.07,0.04 0.07,0.04 0.16,0.01 0,0 0,0 0,0 0.01,-0.01 0.03,-0.05 0.04,-0.06l0 0c0,-0.01 0.15,-0.21 0.17,-0.26 0.01,-0.02 0.06,-0.06 0.07,-0.08 0.01,-0.04 0,-0.08 0.01,-0.08 0,-0.02 0,-0.08 0,-0.09 0.02,-0.02 0.19,-0.16 0.2,-0.13 0.02,-0.09 0.16,0.01 0.17,-0.07l0.06 -0.03c0,-0.01 0.09,-0.28 0.1,-0.32 0.03,-0.08 -0.02,-0.12 0.02,-0.21 0,0 0.06,-0.08 0.08,-0.08 0.04,-0.09 0.14,-0.07 0.14,-0.25 0,0 0,0 0,0 -0.01,-0.05 -0.02,-0.12 -0.06,-0.11 -0.06,0.01 -0.08,-0.02 -0.11,-0.05 -0.17,-0.13 -0.13,-0.04 -0.22,-0.08 -0.02,0.02 -0.03,-0.04 -0.16,0.03 -0.08,-0.09 -0.14,-0.13 -0.29,-0.16 0.06,-0.02 -0.05,-0.02 0.01,-0.07 0,0 0,0 0,-0.01l0.01 0c0,-0.05 -0.01,-0.02 -0.05,-0.05 0,0 0,0 0,-0.01 -0.04,-0.12 -0.48,-0.34 -0.49,-0.34 -0.01,-0.01 -0.02,-0.01 -0.02,-0.01l-0.06 0c0.01,-0.02 0.01,-0.03 0.03,-0.04 -0.17,-0.12 -0.13,-0.08 -0.41,-0.07 -0.04,-0.08 0,-0.03 -0.09,-0.06l-0.02 -0.04 -0.01 0.02 0 0.01c0.04,0.02 -0.01,0.01 -0.07,0.04 0,0.01 0,0 0,0.01l0.02 0.08 -0.03 0.02 -0.03 -0.04c0.01,-0.01 0.03,-0.07 0.03,-0.07 -0.08,-0.09 -0.34,0.2 -0.34,0.21 -0.01,0 -0.01,0 -0.01,0l0.01 -0.01 0.02 -0.02c0,0 0.02,-0.08 -0.13,-0.1 -0.12,0.08 -0.09,-0.01 -0.12,-0.01 -0.03,0.05 -0.08,-0.05 -0.11,-0.11 0,0 -0.01,-0.03 0.01,-0.04 0,-0.12 0.04,-0.11 0.01,-0.13 0,-0.01 -0.05,0.01 -0.05,0.01l-0.02 -0.02c0.05,0.01 0.05,-0.01 0.09,-0.01 0,0 0,0 0,-0.01 -0.02,-0.02 -0.1,-0.04 -0.15,-0.05 0.02,0.02 -0.17,0.01 -0.19,0.01 0.01,-0.26 -0.03,0.03 0.13,-0.31 -0.02,-0.03 -0.03,-0.01 -0.08,-0.02 0,0.02 -0.13,-0.01 -0.13,0.07 0,0.16 -0.28,0.1 -0.28,0.1 -0.15,0 -0.09,-0.36 -0.09,-0.43 -0.06,0.03 -0.15,-0.13 -0.18,-0.17l0 0 -0.06 -0.09c-0.06,0 -0.07,0 -0.09,0.05 -0.21,-0.2 -0.15,-0.17 -0.29,-0.17l0 0.03c-0.23,0 -0.31,-0.1 -0.49,-0.09l0.02 0.06c-0.01,0 0.14,0.29 0.17,0.32 0.04,-0.03 0.18,0.18 0.2,0.23 0.06,0 0.03,-0.08 -0.02,-0.08l0 0c0,0 -0.01,0 -0.01,0l-0.03 -0.08c-0.01,0 -0.14,-0.24 -0.18,-0.27l-0.03 -0.13c0.02,0.01 0.11,0.03 0.1,0.05 -0.02,0 0.14,0.22 0.14,0.23 0.04,0.04 0.17,0.19 0.17,0.19 -0.02,0 0.1,0.14 0.13,0.18 -0.02,0.06 0,0.03 0,0.05 -0.07,0.06 0.15,0.15 0.18,0.15 0.03,0.03 0.53,0.18 0.67,0.25l0 0 0.03 -0.03c0.08,-0.02 0.11,0.07 0.14,0.07 -0.02,0.01 -0.04,0.01 -0.04,0.02 0.03,0.03 0.13,0.09 0.1,0.11 0,0.01 0.01,0.01 0.01,0.01 -0.03,0.03 0.03,0.07 0.03,0.06 0.01,-0.03 0.09,0.03 0.08,0.06 0.01,0 0.08,0.01 0.08,0.02l0.06 0.03c0.01,-0.03 0.01,0 0.02,0.02l0.05 -0.01c-0.04,-0.04 -0.04,-0.03 0.01,-0.06 -0.03,-0.03 0.03,-0.04 0.1,0.07l0.01 0 -0.01 0.02c0.02,0.02 0.05,0.07 0.02,0.09 0.03,0.22 -0.04,0.08 -0.06,0.2 -0.03,0.02 -0.01,0.01 -0.01,0.03l-0.07 0.03c0,0.09 -0.09,0.14 -0.01,0.19 0,0 0.02,-0.03 0.02,-0.04 0,0.03 0.02,0.04 -0.02,0.07 -0.09,0 -0.04,0.15 -0.04,0.15 -0.04,-0.01 0.07,0.09 0.1,0.12 0.02,0.04 0.09,0.2 0.11,0.23 0,0.16 0.31,0.31 0.31,0.31l0.06 0.04c0,0.16 0.01,0.49 -0.05,0.61zm-0.42 -2.84l0.07 0.01 0.01 0.01 -0.03 0.03 0.14 0 0.05 -0.02c-0.03,0 0,-0.03 -0.08,-0.03 0,-0.02 -0.01,-0.02 -0.07,-0.03l0 -0.01 -0.01 -0.01c-0.05,-0.03 -0.09,-0.05 -0.15,-0.08 0,-0.01 0,-0.01 0,-0.01 -0.08,-0.01 -0.27,-0.01 -0.25,0.06 -0.06,0.02 -0.01,0.02 0.02,0.01l0 -0.01c0.02,-0.01 0.12,-0.06 0.12,-0.02l-0.02 0 0.04 0.02 0.01 -0.01 0.01 0.01c0.08,0.02 0.02,0.04 0.13,0.04l0.01 0.04zm0.43 0.11c0.01,0.02 0.02,0 0.02,0.01 -0.02,0.01 -0.03,0 0.02,0.02 0,0.02 -0.16,0.02 -0.19,0.02l0.03 0.02c0,-0.02 0.01,0 0.01,-0.01l0.08 0.01 0.02 0.03 0.02 -0.04 0.12 -0.01c0.02,0.01 0.02,0.01 0.03,-0.01l-0.07 -0.03 0.02 0 0 -0.01 -0.03 0 0 -0.02c-0.01,0 -0.05,-0.01 -0.05,-0.02l-0.05 0.01c0,0.01 0,0.01 0,0.03l0.02 0zm-1.27 0.18c0,0 0,0 0,0l0 0zm1.99 3.9l-0.03 0.01 -0.02 0 -0.01 0 -0.02 -0.01c0,0 -0.02,0.01 -0.02,0.01 0.01,0 0.02,0.01 0.02,0.01 0.01,0.01 0.01,0.02 0.01,0.02l-0.02 0c0,0 0,0.01 0.01,0.02 0,0 0,0.02 0,0.01 -0.01,0 -0.03,0 -0.03,0l-0.01 0c0,0 0.01,0.03 0.01,0.03 0.01,0.01 0.03,0 0.03,0 0.01,0 0.04,-0.02 0.04,-0.02l0.01 -0.03 0.03 -0.02 0.01 -0.02 -0.01 -0.01zm0.03 -0.01l0 0.01c0,0 -0.01,0.01 -0.01,0.02 0,0 0,0.02 0,0.02 0,0 -0.02,0.02 -0.03,0.03 0,0 -0.02,0.02 -0.02,0.02l0 0.02 0.03 0.02 0 -0.03 0.05 0 -0.01 -0.03 0.04 -0.01 0.02 -0.02 0 -0.02 0 -0.02c0,0 -0.01,0 -0.02,0 0,0 -0.02,-0.01 -0.02,-0.01l-0.01 0.01 -0.02 -0.01zm-1.26 1.93c-0.86,0.14 -1.32,1.09 -0.88,1.85 0.12,0.2 0.29,0.37 0.5,0.48l0 0.24 -0.62 0.21c-0.02,0.01 -0.03,0.02 -0.03,0.04l0 0.24c0,0.03 0.02,0.04 0.04,0.04l2.18 0c0.03,0 0.05,-0.01 0.05,-0.04l0 -0.24c0,-0.02 -0.02,-0.03 -0.03,-0.04 -0.06,-0.02 -0.49,-0.16 -0.62,-0.21l0 -0.19c0.25,-0.09 0.49,-0.26 0.66,-0.48 0,-0.01 0.01,-0.02 0,-0.03l0.21 0c0.04,0 0.07,-0.03 0.07,-0.06 0,-0.04 -0.03,-0.07 -0.07,-0.07l-1.05 0c-0.04,0 -0.07,0.03 -0.07,0.07 0,0.03 0.03,0.06 0.07,0.06l0.17 0c-0.69,0.39 -1.3,-0.24 -1.13,-0.84 0.07,-0.29 0.3,-0.5 0.59,-0.56 0.04,0.03 0.09,0.06 0.15,0.07 0.02,0 0.03,0 0.05,0 0.02,0 0.05,0 0.07,-0.01l0.47 0.82c-0.08,0.06 -0.03,0.2 0.08,0.2 0.01,0 0.03,-0.01 0.05,-0.02l0.49 -0.28c0.13,-0.07 0.02,-0.26 -0.1,-0.2l-0.67 -1.16c-0.01,-0.02 -0.03,-0.03 -0.05,-0.02l-0.02 0.01 -0.15 -0.25c0,0 0,0 0,0 0.01,-0.01 0.02,-0.02 0.02,-0.04 0,-0.01 -0.01,-0.02 -0.01,-0.03 -0.02,-0.01 -0.03,-0.02 -0.05,-0.01 0,0 0,0 0,0l-0.41 0.24c-0.04,0.02 -0.02,0.08 0.02,0.08 0,0 0.01,-0.01 0.02,-0.01l0.06 0.1c-0.02,0.01 -0.04,0.03 -0.06,0.04z"/>
   <polygon class="fil1" points="0,11.86 1.08,11.47 1.08,4.01 0,4.4 "/>
   <path class="fil1" d="M14.12 7.14l-1.08 0.39 0 8.39c0.39,-0.21 1.08,-0.42 1.08,-0.97l0 -7.81z"/>
   <polygon class="fil1" points="14.12,1.26 13.04,1.65 13.04,7.15 14.12,6.76 "/>
   <polygon class="fil1" points="7.07,17.26 1.44,14.46 1.44,16.13 7.07,18.93 12.7,16.13 12.7,14.46 "/>
   <path class="fil1" d="M0 12.24l1.08 -0.4 0 4.08c-0.39,-0.21 -1.08,-0.42 -1.08,-0.97l0 -2.71z"/>
   <polygon class="fil1" points="7.24,1.77 7.24,3.36 7.25,3.37 14.12,0.88 12.15,0 7.25,1.78 "/>
   <polygon class="fil1" points="6.88,3.51 6.88,1.92 4.09,2.92 6.06,3.8 "/>
  </g>
 </g>
</svg>
