<?xml version="1.0" encoding="UTF-8"?>
<!DOCTYPE svg PUBLIC "-//W3C//DTD SVG 1.1//EN" "http://www.w3.org/Graphics/SVG/1.1/DTD/svg11.dtd">
<!-- Creator: CorelDRAW 2020 (64-Bit) -->
<svg xmlns="http://www.w3.org/2000/svg" xml:space="preserve" width="202px" height="212px" version="1.1" style="shape-rendering:geometricPrecision; text-rendering:geometricPrecision; image-rendering:optimizeQuality; fill-rule:evenodd; clip-rule:evenodd"
viewBox="0 0 15.33 16.1"
 xmlns:xlink="http://www.w3.org/1999/xlink"
 xmlns:xodm="http://www.corel.com/coreldraw/odm/2003">
 <defs>
  <style type="text/css">
   <![CDATA[
    .fil0 {fill:white}
    .fil1 {fill:white;fill-rule:nonzero}
   ]]>
  </style>
 </defs>
 <g id="Capa_x0020_1">
  <metadata id="CorelCorpID_0Corel-Layer"/>
  <g id="_2319273281744">
   <path class="fil0" d="M13.01 0.44c2.34,1.92 -0.03,7.67 -2.36,8.89 0.14,-1.6 -1.65,-5.32 -3.35,-4.24 -1.03,0.65 -0.12,2.48 0.29,3.27 -0.88,0.07 -1.28,0.49 -1.3,0.96 -0.04,1.13 1.55,1.45 2.4,1.38 -1.98,1.45 -6.81,1.91 -7.3,-0.75 -0.27,-1.41 1.94,-2.79 3.18,-2.89 -0.84,-1.25 -2.29,-3.97 -0.82,-5.47 1.29,-1.32 3.23,-0.41 4.53,0.46 0.88,-1.31 3.26,-2.81 4.73,-1.61zm-2.07 8.46c0.44,-1.52 0.2,-2.82 -0.54,-4.22 0.32,0.01 0.58,0.12 0.78,0.31 0.91,0.84 0.3,2.79 -0.24,3.91zm-4.07 -0.87c-1.16,0 -1.94,0.58 -1.99,1.24 -0.11,1.51 2.37,1.6 3.36,1.58 -1.31,0.41 -4.68,0.58 -4.68,-1.3 0,-1.12 1.39,-1.62 2.3,-1.88 -0.6,-1.32 -2.25,-3.61 -0.52,-4.74 2.37,-1.56 6.47,3.17 5.49,5.9 0,-3.99 -2.88,-5.88 -4.22,-5.16 -0.81,0.45 -1.06,1.86 0.26,4.36zm4.22 0.76c0.35,-0.73 2.13,-4.02 0.67,-5.2 -0.6,-0.48 -1.33,-0.16 -1.9,0.23 -0.28,-0.42 -0.67,-0.83 -0.72,-0.9 0.23,-0.85 2.02,-1.5 3.01,-0.78 1.75,1.28 0.2,5.28 -1.06,6.65z"/>
   <path class="fil1" d="M1.27 14.13l0 0.38 -0.8 0 0 0.41 0.6 0 0 0.37 -0.6 0 0 0.79 -0.47 0 0 -1.95 1.27 0zm1.68 1.15c0,0.04 0,0.09 -0.01,0.14l-1.07 0c0,0.09 0.03,0.17 0.09,0.22 0.05,0.05 0.12,0.07 0.2,0.07 0.12,0 0.2,-0.05 0.25,-0.15l0.5 0c-0.02,0.11 -0.07,0.2 -0.14,0.28 -0.07,0.08 -0.15,0.14 -0.25,0.19 -0.1,0.05 -0.22,0.07 -0.34,0.07 -0.15,0 -0.29,-0.03 -0.41,-0.1 -0.12,-0.06 -0.21,-0.15 -0.28,-0.27 -0.06,-0.12 -0.1,-0.27 -0.1,-0.43 0,-0.16 0.04,-0.3 0.1,-0.42 0.07,-0.12 0.16,-0.21 0.28,-0.28 0.12,-0.06 0.25,-0.09 0.41,-0.09 0.15,0 0.28,0.03 0.4,0.09 0.11,0.06 0.2,0.15 0.27,0.27 0.07,0.12 0.1,0.25 0.1,0.41zm-0.49 -0.13c0,-0.08 -0.03,-0.14 -0.08,-0.19 -0.06,-0.05 -0.13,-0.07 -0.21,-0.07 -0.08,0 -0.15,0.02 -0.2,0.07 -0.05,0.04 -0.09,0.11 -0.1,0.19l0.59 0zm2.68 -0.64c0.2,0 0.35,0.06 0.46,0.18 0.12,0.11 0.17,0.28 0.17,0.48l0 0.91 -0.47 0 0 -0.84c0,-0.1 -0.02,-0.18 -0.08,-0.23 -0.05,-0.06 -0.12,-0.09 -0.21,-0.09 -0.1,0 -0.17,0.03 -0.22,0.09 -0.05,0.05 -0.08,0.13 -0.08,0.23l0 0.84 -0.47 0 0 -0.84c0,-0.1 -0.03,-0.18 -0.08,-0.23 -0.05,-0.06 -0.13,-0.09 -0.22,-0.09 -0.09,0 -0.16,0.03 -0.22,0.09 -0.05,0.05 -0.08,0.13 -0.08,0.23l0 0.84 -0.47 0 0 -1.55 0.47 0 0 0.19c0.05,-0.06 0.11,-0.11 0.19,-0.15 0.08,-0.04 0.17,-0.06 0.27,-0.06 0.11,0 0.22,0.03 0.31,0.08 0.09,0.05 0.16,0.12 0.21,0.21 0.06,-0.08 0.13,-0.15 0.22,-0.21 0.09,-0.05 0.2,-0.08 0.3,-0.08zm1.41 0.28c0.06,-0.09 0.13,-0.15 0.21,-0.2 0.08,-0.05 0.18,-0.08 0.28,-0.08l0 0.51 -0.13 0c-0.12,0 -0.21,0.02 -0.27,0.07 -0.06,0.05 -0.09,0.14 -0.09,0.27l0 0.72 -0.47 0 0 -1.55 0.47 0 0 0.26zm2.15 0.49c0,0.04 -0.01,0.09 -0.01,0.14l-1.08 0c0.01,0.09 0.04,0.17 0.1,0.22 0.05,0.05 0.12,0.07 0.2,0.07 0.12,0 0.2,-0.05 0.24,-0.15l0.51 0c-0.03,0.11 -0.07,0.2 -0.14,0.28 -0.07,0.08 -0.15,0.14 -0.25,0.19 -0.11,0.05 -0.22,0.07 -0.35,0.07 -0.15,0 -0.28,-0.03 -0.4,-0.1 -0.12,-0.06 -0.21,-0.15 -0.28,-0.27 -0.06,-0.12 -0.1,-0.27 -0.1,-0.43 0,-0.16 0.03,-0.3 0.1,-0.42 0.07,-0.12 0.16,-0.21 0.28,-0.28 0.12,-0.06 0.25,-0.09 0.4,-0.09 0.15,0 0.29,0.03 0.4,0.09 0.12,0.06 0.21,0.15 0.28,0.27 0.06,0.12 0.1,0.25 0.1,0.41zm-0.49 -0.13c0,-0.08 -0.03,-0.14 -0.08,-0.19 -0.06,-0.05 -0.13,-0.07 -0.21,-0.07 -0.08,0 -0.15,0.02 -0.2,0.07 -0.06,0.04 -0.09,0.11 -0.1,0.19l0.59 0zm0.61 0.15c0,-0.16 0.03,-0.3 0.1,-0.42 0.07,-0.12 0.16,-0.21 0.28,-0.28 0.11,-0.06 0.25,-0.09 0.4,-0.09 0.19,0 0.36,0.05 0.49,0.15 0.13,0.1 0.21,0.25 0.25,0.43l-0.5 0c-0.04,-0.12 -0.13,-0.18 -0.25,-0.18 -0.09,0 -0.16,0.04 -0.21,0.1 -0.05,0.07 -0.08,0.17 -0.08,0.29 0,0.13 0.03,0.23 0.08,0.29 0.05,0.07 0.12,0.11 0.21,0.11 0.12,0 0.21,-0.06 0.25,-0.18l0.5 0c-0.04,0.18 -0.12,0.32 -0.26,0.42 -0.13,0.11 -0.29,0.16 -0.48,0.16 -0.15,0 -0.29,-0.03 -0.4,-0.1 -0.12,-0.06 -0.21,-0.15 -0.28,-0.27 -0.07,-0.12 -0.1,-0.27 -0.1,-0.43zm1.98 -0.93c-0.08,0 -0.15,-0.03 -0.2,-0.08 -0.05,-0.04 -0.08,-0.1 -0.08,-0.18 0,-0.07 0.03,-0.13 0.08,-0.18 0.05,-0.05 0.12,-0.07 0.2,-0.07 0.09,0 0.15,0.02 0.21,0.07 0.05,0.05 0.07,0.11 0.07,0.18 0,0.08 -0.02,0.14 -0.07,0.18 -0.06,0.05 -0.12,0.08 -0.21,0.08zm0.24 0.16l0 1.55 -0.47 0 0 -1.55 0.47 0zm0.22 0.77c0,-0.16 0.03,-0.3 0.1,-0.42 0.06,-0.12 0.16,-0.21 0.27,-0.28 0.12,-0.06 0.26,-0.09 0.41,-0.09 0.19,0 0.35,0.05 0.48,0.15 0.14,0.1 0.22,0.25 0.26,0.43l-0.5 0c-0.05,-0.12 -0.13,-0.18 -0.25,-0.18 -0.09,0 -0.16,0.04 -0.21,0.1 -0.05,0.07 -0.08,0.17 -0.08,0.29 0,0.13 0.03,0.23 0.08,0.29 0.05,0.07 0.12,0.11 0.21,0.11 0.12,0 0.2,-0.06 0.25,-0.18l0.5 0c-0.04,0.18 -0.13,0.32 -0.26,0.42 -0.13,0.11 -0.29,0.16 -0.48,0.16 -0.15,0 -0.29,-0.03 -0.41,-0.1 -0.11,-0.06 -0.21,-0.15 -0.27,-0.27 -0.07,-0.12 -0.1,-0.27 -0.1,-0.43zm2.22 -1.28l0 2.06 -0.48 0 0 -2.06 0.48 0zm0.22 1.28c0,-0.16 0.03,-0.3 0.09,-0.42 0.06,-0.12 0.14,-0.21 0.25,-0.28 0.1,-0.06 0.21,-0.09 0.34,-0.09 0.11,0 0.21,0.02 0.29,0.06 0.08,0.05 0.15,0.11 0.19,0.18l0 -0.22 0.47 0 0 1.55 -0.47 0 0 -0.22c-0.05,0.07 -0.11,0.13 -0.19,0.17 -0.09,0.05 -0.18,0.07 -0.29,0.07 -0.13,0 -0.24,-0.03 -0.34,-0.1 -0.11,-0.06 -0.19,-0.16 -0.25,-0.28 -0.06,-0.12 -0.09,-0.26 -0.09,-0.42zm1.16 0c0,-0.11 -0.03,-0.21 -0.1,-0.28 -0.06,-0.06 -0.14,-0.1 -0.24,-0.1 -0.09,0 -0.17,0.03 -0.24,0.1 -0.06,0.07 -0.1,0.16 -0.1,0.28 0,0.12 0.04,0.21 0.1,0.28 0.07,0.07 0.15,0.11 0.24,0.11 0.1,0 0.18,-0.04 0.24,-0.11 0.07,-0.06 0.1,-0.16 0.1,-0.28z"/>
  </g>
 </g>
</svg>
