<?xml version="1.0" encoding="UTF-8"?>
<!DOCTYPE svg PUBLIC "-//W3C//DTD SVG 1.1//EN" "http://www.w3.org/Graphics/SVG/1.1/DTD/svg11.dtd">
<!-- Creator: CorelDRAW 2020 (64-Bit) -->
<svg xmlns="http://www.w3.org/2000/svg" xml:space="preserve" width="161px" height="230px" version="1.1" style="shape-rendering:geometricPrecision; text-rendering:geometricPrecision; image-rendering:optimizeQuality; fill-rule:evenodd; clip-rule:evenodd"
viewBox="0 0 144.03 205.5"
 xmlns:xlink="http://www.w3.org/1999/xlink"
 xmlns:xodm="http://www.corel.com/coreldraw/odm/2003">
 <defs>
  <style type="text/css">
   <![CDATA[
    .fil0 {fill:white}
    .fil1 {fill:white;fill-rule:nonzero}
   ]]>
  </style>
 </defs>
 <g id="Capa_x0020_1">
  <metadata id="CorelCorpID_0Corel-Layer"/>
  <g id="_2317473834080">
   <path class="fil0" d="M61.49 120c-0.49,2.26 2.29,2.24 2.65,0.74 0.5,-2.14 -2.34,-2.19 -2.65,-0.74zm4.46 -104.91c-1.75,-1.75 -2.68,-4.17 -2.68,-6.45 0,-2.15 0.77,-4.21 2.03,-5.78 1.25,-1.56 2.99,-2.65 4.93,-2.86 0.28,-0.03 0.54,0.18 0.57,0.47 0.02,0.23 -0.11,0.45 -0.32,0.53 -0.9,0.37 -1.77,1.71 -2.19,3.27 -0.23,0.84 -0.33,1.72 -0.24,2.56 0.1,0.79 0.37,1.53 0.88,2.1 1.46,1.64 5.4,1.64 6.86,0 0.51,-0.57 0.78,-1.31 0.88,-2.1 0.09,-0.84 -0.01,-1.72 -0.23,-2.56 -0.43,-1.56 -1.3,-2.9 -2.2,-3.26 -0.26,-0.11 -0.39,-0.42 -0.28,-0.68 0.09,-0.23 0.33,-0.36 0.57,-0.32 1.92,0.21 3.65,1.29 4.9,2.85 1.25,1.57 2.02,3.63 2.02,5.78 0,2.28 -0.93,4.7 -2.68,6.45 -3.38,3.38 -9.44,3.38 -12.82,0zm5.92 160.78c-0.18,0.84 0.85,0.84 0.98,0.28 0.19,-0.8 -0.87,-0.82 -0.98,-0.28zm-0.28 -2.21c-0.28,1.3 1.33,1.3 1.54,0.43 0.29,-1.25 -1.36,-1.28 -1.54,-0.43zm-0.37 -3c-0.42,1.95 1.97,1.94 2.28,0.64 0.44,-1.85 -2.02,-1.89 -2.28,-0.64zm-2.41 -27.27c-0.33,1.77 0.1,2.87 1.91,3.14 1.07,0.15 2.01,-0.06 2.49,-0.78 2.02,-3 -3.79,-3.14 -1.65,-0.47 0.56,0.7 -3.37,0.09 -1.11,-2.64 0.69,-0.83 1.93,-0.69 3,-0.3 1.08,0.4 1.8,1.09 1.88,2.23 0.39,1.61 -1.25,4.6 -2.9,5 -1.65,0.31 -2.96,-0.79 -4.52,-1.05 -2.08,-0.31 -3.24,1.85 -2.46,3.01 1.16,1.73 4.08,0.54 5.54,-0.11 1.28,-0.62 1.98,0.02 2.89,0.75 -0.46,1.22 -3.41,3.1 -5.19,2.54 -2.52,-0.79 -7.61,0.32 -7.21,2.34 0.45,2.27 3.56,1.62 5.26,1.19 2.21,-0.58 2.64,-2.22 6.13,-0.53 -0.82,1.16 -2.32,11.07 -0.51,11.11 0.86,0.01 0,-9.12 1.86,-10.43 0.59,-0.41 1.18,-0.2 1.87,0.06 1.49,0.55 7.45,2.14 7.93,-0.12 0.98,-4.63 -6.58,-3.87 -9.79,-1.55 -0.69,-0.15 -2.24,-0.87 -2.96,-1.15 0.64,-0.65 3.68,-2.86 3.68,-2.94l1.75 0.36c1.11,0.16 3.08,0.49 3.78,-0.25 2.01,-2.13 -2.87,-4.65 -5.25,-1.65 -1.28,-0.12 -1.64,-0.44 -2.27,-0.93 1.12,-0.33 2.54,-2.1 3.06,-3.06 2.97,-6.34 -6.38,-8.23 -7.21,-3.77zm-22.46 -57.78c-2.87,-0.81 -5.56,-2.51 -7.7,-4.41 -1.25,-1.1 -7.49,-6.61 -7.62,-7.8 2.79,-1 10.2,0.39 12.46,2.48 6.57,5.36 11.11,4.5 17.42,4.31 -0.34,1.14 -1.73,1.31 -2.77,1.63 -4.51,1.42 -8.74,-2.2 -11.97,-2.59 -1.31,-0.17 -3.47,0.77 -3.93,1.1 3.19,5.71 16.41,2.82 19.08,1.24 -0.87,3.47 -11.04,4.98 -14.01,4.36 -0.62,-0.13 -0.47,-0.19 -0.96,-0.32zm22.86 3.88c0.07,2.09 -1.36,6.53 3.08,7.96 0.05,0.03 0.09,0.03 0.14,0 4.47,-1.43 2.99,-5.92 3.08,-8 -2.33,1.92 -4,1.96 -6.3,0.04zm7.21 -0.86c1.16,3.71 1.16,7.82 -3.99,12.89 -0.06,0.07 -0.08,0.07 -0.14,0 -5.14,-5.06 -5.15,-9.16 -3.99,-12.87 -0.37,-0.35 -0.75,-0.75 -1.15,-1.19 -0.54,1.74 -2.44,2.87 -3.64,2.58 -2.04,-0.49 -0.55,-3.86 0.44,-2.77 0.36,0.39 0.05,0.62 0.08,0.82 0.11,0.7 1.8,0.01 1.47,-1.52 -0.63,-2.91 -3.89,-0.5 -4.26,3.69 -0.59,6.6 11.11,13.84 11.12,15.82 0.01,-1.98 11.71,-9.22 11.12,-15.82 -0.37,-4.19 -3.63,-6.6 -4.26,-3.69 -0.33,1.53 1.36,2.22 1.47,1.52 0.03,-0.2 -0.28,-0.43 0.08,-0.82 0.99,-1.09 2.48,2.28 0.44,2.77 -1.2,0.29 -3.1,-0.84 -3.64,-2.58 -0.41,0.43 -0.79,0.82 -1.15,1.17zm-4.06 -20.78c1.71,0 3.1,4.39 3.1,9.81 0,5.42 -1.39,9.82 -3.1,9.82 -1.71,0 -3.1,-4.4 -3.1,-9.82 0,-5.42 1.39,-9.81 3.1,-9.81zm-5.96 8.31c3.72,0.1 -3.01,-14.96 5.85,-18.91 0.08,-0.05 0.14,-0.05 0.22,0 8.86,3.95 2.13,19.01 5.85,18.91 1.87,-7.86 2.07,-16.59 -5.86,-27.39 -0.09,-0.15 -0.11,-0.15 -0.2,0 -7.93,10.8 -7.73,19.53 -5.86,27.39zm31.97 9.45c2.87,-0.81 5.56,-2.51 7.7,-4.41 1.25,-1.1 7.49,-6.61 7.62,-7.8 -2.79,-1 -10.2,0.39 -12.46,2.48 -6.57,5.36 -11.11,4.5 -17.42,4.31 0.34,1.14 1.73,1.31 2.77,1.63 4.51,1.42 8.74,-2.2 11.97,-2.59 1.31,-0.17 3.47,0.77 3.93,1.1 -3.19,5.71 -16.41,2.82 -19.08,1.24 0.87,3.47 11.04,4.98 14.01,4.36 0.62,-0.13 0.47,-0.19 0.96,-0.32zm-26.01 30.95c2.08,0.39 3.97,-6.38 5.04,-7.54 1.66,0.1 3.98,7.21 0.2,7.12 -0.67,0.35 -1.14,-1.55 0.45,-1.14 1.84,-1.82 -1.8,-2.25 -2.05,0.12 -0.06,0.59 0.43,1.41 0.98,1.66 0.87,0.39 1.89,0.12 2.5,-0.3 1.92,-1.31 0.56,-3.66 1.22,-4.91 0.64,-0.13 3.08,-0.28 2.89,-2.74 -0.06,-0.9 -0.42,-1.6 -1.35,-1.74 -1.23,-0.07 -1.56,0.44 -1.15,1.44 0.52,0.11 1.21,0.23 1.4,-0.42 1.2,0.98 -0.4,3.07 -2.14,2.31 -0.52,-0.36 -0.95,-0.79 -1.16,-1.86 -1.46,-6.34 14.65,-9.94 14.7,1.23 -0.98,2.33 -4.99,0.81 -3.85,-1.12l0.5 -0.01c0.06,0.75 0.54,1.19 1.08,1.25 0.64,-0.06 1.05,-0.83 0.66,-1.78 -0.51,-1.02 -2.43,-1 -3.25,-0.15 -0.98,1.04 -0.3,3.3 1.48,3.92 0.4,0.14 1.3,0.26 1.61,0.24 6.35,-0.42 1.71,-9.82 -2.91,-10.34 -0.27,-0.03 1.48,-0.78 2.02,-3.61 6.05,1.01 10.31,9.63 11.44,12.51 3.74,-3.57 -1.6,-17.69 -5.64,-22.4 -0.13,-0.14 0.19,-0.33 0.35,-0.45 14.18,0.6 15.04,-9.12 26.34,-13.98 -3.76,-1.81 -13.43,-2.87 -17.33,-2.1 -0.25,-0.51 7.76,-8.55 8.27,-9.12 -1.2,-1.56 -8.99,-0.15 -10.72,0.12 0.08,-1.91 -0.08,-5.28 6.99,-16.59 -3.48,1.09 -11.98,-0.05 -18.49,4.53 0.11,-2.74 -4.39,-26.95 -6.89,-27.84 -1.91,1.66 -8.76,12.17 -9.6,15.18 -1.35,-0.87 -1.41,-4.98 -3.59,-6.47 -2.18,1.49 -2.24,5.6 -3.59,6.47 -0.84,-3.01 -7.69,-13.52 -9.6,-15.18 -2.5,0.89 -7,25.1 -6.89,27.84 -6.51,-4.58 -15.01,-3.44 -18.49,-4.53 7.07,11.31 6.91,14.68 6.99,16.59 -1.73,-0.27 -9.52,-1.68 -10.72,-0.12 0.51,0.57 8.52,8.61 8.27,9.12 -3.9,-0.77 -13.57,0.29 -17.33,2.1 11.3,4.86 12.16,14.58 26.34,13.98 0.16,0.12 0.48,0.31 0.35,0.45 -4.04,4.71 -9.38,18.83 -5.64,22.4 1.13,-2.88 5.39,-11.5 11.44,-12.51 0.54,2.83 2.29,3.58 2.02,3.61 -4.62,0.52 -9.26,9.92 -2.91,10.34 0.31,0.02 1.21,-0.1 1.61,-0.24 1.78,-0.62 2.46,-2.88 1.48,-3.92 -0.82,-0.85 -2.74,-0.87 -3.25,0.15 -0.39,0.95 0.02,1.72 0.66,1.78 0.54,-0.06 1.02,-0.5 1.08,-1.25l0.5 0.01c1.14,1.93 -2.87,3.45 -3.85,1.12 0.05,-11.17 16.16,-7.57 14.7,-1.23 -0.21,1.07 -0.64,1.5 -1.16,1.86 -1.74,0.76 -3.34,-1.33 -2.14,-2.31 0.19,0.65 0.88,0.53 1.4,0.42 0.41,-1 0.08,-1.51 -1.15,-1.44 -0.93,0.14 -1.29,0.84 -1.35,1.74 -0.19,2.46 2.25,2.61 2.9,2.74 0.65,1.25 -0.71,3.6 1.21,4.91 0.61,0.42 1.63,0.69 2.5,0.3 0.55,-0.25 1.04,-1.07 0.98,-1.66 -0.25,-2.37 -3.89,-1.94 -2.05,-0.12 1.59,-0.41 1.13,1.49 0.45,1.14 -3.78,0.09 -1.46,-7.02 0.2,-7.12 1.07,1.16 2.96,7.93 5.04,7.54zm0 -73.01c10.36,13.58 16.83,41.16 0,45.79 -16.83,-4.63 -10.36,-32.21 0,-45.79zm0 64.95c0.18,0.04 0.62,-0.15 0.87,-0.29 0.05,-0.47 0.23,-1.92 2.4,-1.77 -0.19,-1.46 0.66,-1.76 1.9,-1.77 0.19,-3.67 4.1,-0.36 0.36,0.33 0.38,1.72 -0.78,2.03 -1.67,2.14 -0.14,0.06 0.5,2.22 -1.56,2.75 0.04,1.3 -1.36,3.95 -2.3,2.56l0 0 0 0 0 0 0 0c-0.94,1.39 -2.34,-1.26 -2.3,-2.56 -2.06,-0.53 -1.42,-2.69 -1.56,-2.75 -0.89,-0.11 -2.04,-0.42 -1.67,-2.14 -3.73,-0.69 0.17,-4 0.36,-0.33 1.24,0.01 2.09,0.31 1.91,1.77 2.16,-0.15 2.34,1.3 2.4,1.77 0.24,0.14 0.5,0.33 0.86,0.29zm28.71 -8.1c-2.58,-0.78 -17.18,-5.45 -15.3,-9.28 1.83,-2.66 8.48,3.34 9.8,3.34 0.23,-0.88 -0.81,-3.35 -1.97,-3.75 -2.33,-2.17 -5.83,-1.25 -12.31,-6.92 0.19,-0.63 0.42,-1.16 1.34,-0.78 1.91,1.68 9.31,4.96 12.2,5.56 3.3,2.86 5.59,7.6 6.24,11.83zm-14 -2.17c0.28,0.5 0.88,0.08 1.3,-0.23 0.49,-0.31 0.69,0.51 0.23,0.83 -3.09,2.42 -2.88,-2.06 -2.11,-2.92 -0.3,-0.12 -0.75,-0.32 -1.04,-0.39 -0.49,2.76 -1.13,3.83 -2.7,6.69 1.52,-0.13 8.63,-1.32 7.17,-4.3 -0.23,-0.47 -1.76,-0.98 -1.92,-0.96 -1.07,-0.03 -1.15,1.19 -0.93,1.28zm20.07 -33.89c-2.18,0.33 -3.08,0.56 -4.51,1.04 -0.11,1.26 -9.55,12.35 -13.91,12.47 -0.26,0.42 -0.48,0.62 -0.98,0.96 12.62,1.18 12.21,-7.95 19.4,-14.47zm-1.73 -15.44c-1.18,-0.76 -4,0.03 -5.12,0.22 -2.74,0.47 -5.27,1.91 -7.39,3.7 -2.34,5.23 -3.07,15.86 -7.07,18.63l-0.63 4.45c3.31,-0.56 4.11,-7.48 6.9,-12.47 0.56,-0.65 3.15,-2.68 3.95,-2.69 -0.01,5.13 -8.09,15.02 -10.44,16.3 1.63,0.96 6.16,-2.51 7.5,-3.45 3.23,-2.28 5.06,-5.95 6.04,-9.66 2.56,-9.75 4.07,-9.57 6.26,-15.03zm-20.78 12.88c4.99,-0.78 2.54,-9.02 1.31,-11.94 -0.7,-1.66 -3.82,-6.19 -3.74,-10.03 0.03,-1.19 0.08,-3.15 0.56,-4.82 2.43,2.06 7.63,21.85 4.91,26.44 -0.73,1.63 -1.95,2.44 -1.1,4.22 0.59,0.52 1.38,-1.65 1.38,-1.65l0.21 -0.31c0.08,-0.12 0.04,0.02 0.14,-0.24 0.12,-0.28 0.07,-0.33 0.14,-0.64l1.27 -4.44c0.35,-0.95 0.37,-2.34 0.53,-3.43 0.07,-0.45 0.17,-1.03 0.21,-1.38 0.6,-3.39 -4.49,-20.38 -5.91,-24.43 -3.03,1.72 -8.32,8.84 -7.17,11.13 6.47,14.34 6.37,19.88 7.26,21.52zm-40.98 38.62c2.58,-0.78 17.19,-5.45 15.31,-9.28 -1.84,-2.66 -8.49,3.34 -9.81,3.34 -0.23,-0.88 0.81,-3.35 1.97,-3.75 2.33,-2.17 5.83,-1.25 12.31,-6.92 -0.19,-0.63 -0.42,-1.16 -1.35,-0.78 -1.9,1.68 -9.3,4.96 -12.18,5.56 -3.31,2.86 -5.6,7.6 -6.25,11.83zm14 -2.17c-0.28,0.5 -0.88,0.08 -1.3,-0.23 -0.49,-0.31 -0.69,0.51 -0.23,0.83 3.09,2.42 2.88,-2.06 2.11,-2.92 0.3,-0.12 0.75,-0.32 1.04,-0.39 0.49,2.76 1.13,3.83 2.7,6.69 -1.52,-0.13 -8.63,-1.32 -7.17,-4.3 0.23,-0.47 1.76,-0.98 1.92,-0.96 1.07,-0.03 1.15,1.19 0.93,1.28zm-20.07 -33.89c2.18,0.33 3.08,0.56 4.51,1.04 0.11,1.26 9.55,12.35 13.91,12.47 0.27,0.42 0.48,0.62 0.98,0.96 -12.62,1.18 -12.21,-7.95 -19.4,-14.47zm1.74 -15.44c1.17,-0.76 4,0.03 5.11,0.22 2.74,0.47 5.27,1.91 7.39,3.7 2.34,5.23 3.07,15.86 7.07,18.63l0.63 4.45c-3.31,-0.56 -4.11,-7.48 -6.9,-12.47 -0.56,-0.65 -3.15,-2.68 -3.95,-2.69 0.01,5.13 8.09,15.02 10.44,16.3 -1.63,0.96 -6.16,-2.51 -7.5,-3.45 -3.23,-2.28 -5.06,-5.95 -6.04,-9.66 -2.56,-9.75 -4.07,-9.57 -6.25,-15.03zm20.77 12.88c-4.99,-0.78 -2.54,-9.02 -1.31,-11.94 0.7,-1.66 3.82,-6.19 3.74,-10.03 -0.03,-1.19 -0.08,-3.15 -0.56,-4.82 -2.43,2.06 -7.62,21.85 -4.91,26.44 0.73,1.63 1.95,2.44 1.1,4.22 -0.59,0.52 -1.38,-1.65 -1.38,-1.65l-0.21 -0.31c-0.08,-0.12 -0.04,0.02 -0.14,-0.24 -0.12,-0.28 -0.07,-0.33 -0.14,-0.64l-1.27 -4.44c-0.35,-0.95 -0.37,-2.34 -0.53,-3.43 -0.07,-0.45 -0.16,-1.03 -0.21,-1.38 -0.6,-3.39 4.49,-20.38 5.91,-24.43 3.03,1.72 8.32,8.84 7.17,11.13 -6.47,14.34 -6.37,19.88 -7.26,21.52zm12.77 58.73l1.43 3.65 3.59 -1.57c0.27,-0.12 0.58,0.01 0.7,0.28 0.06,0.14 0.06,0.29 0,0.42l-1.56 3.59 3.64 1.44c0.28,0.1 0.41,0.41 0.3,0.69 -0.05,0.14 -0.17,0.25 -0.3,0.3l-3.64 1.43 1.56 3.59c0.12,0.27 0,0.59 -0.27,0.7 -0.15,0.07 -0.3,0.06 -0.43,0l-3.59 -1.56 -1.43 3.64c-0.11,0.28 -0.42,0.41 -0.69,0.31 -0.15,-0.06 -0.26,-0.17 -0.31,-0.31l-1.43 -3.64 -3.59 1.56c-0.27,0.12 -0.58,0 -0.7,-0.27 -0.06,-0.14 -0.06,-0.3 0,-0.43l1.56 -3.59 -3.64 -1.43c-0.28,-0.11 -0.41,-0.42 -0.3,-0.69 0.05,-0.15 0.17,-0.25 0.3,-0.3l3.64 -1.44 -1.56 -3.59c-0.12,-0.27 0.01,-0.58 0.27,-0.7 0.15,-0.06 0.3,-0.06 0.43,0l3.59 1.57 1.43 -3.65c0.11,-0.27 0.42,-0.41 0.69,-0.3 0.15,0.06 0.25,0.17 0.31,0.3zm1.36 6.44c-0.48,-0.47 -1.13,-0.77 -1.86,-0.77 -0.73,0 -1.38,0.3 -1.86,0.77 -0.47,0.48 -0.77,1.14 -0.77,1.86 0,0.73 0.3,1.39 0.77,1.86 0.48,0.48 1.13,0.77 1.86,0.77 0.73,0 1.38,-0.29 1.86,-0.77 0.48,-0.47 0.77,-1.13 0.77,-1.86 0,-0.72 -0.29,-1.38 -0.77,-1.86zm5.97 9.15c-0.49,2.27 2.29,2.25 2.65,0.75 0.5,-2.15 -2.34,-2.2 -2.65,-0.75zm-18.7 0c-0.49,2.27 2.29,2.25 2.65,0.75 0.5,-2.15 -2.34,-2.2 -2.65,-0.75zm18.7 -16.1c-0.49,2.26 2.29,2.24 2.65,0.74 0.5,-2.14 -2.34,-2.19 -2.65,-0.74z"/>
   <path class="fil1" d="M2.62 182.62c-0.8,-0.58 -1.43,-1.27 -1.89,-2.05 -0.46,-0.79 -0.7,-1.61 -0.73,-2.48l2.85 -0.73c0.02,0.67 0.13,1.24 0.33,1.73 0.2,0.48 0.51,0.87 0.93,1.17 1.12,0.81 2.16,0.56 3.11,-0.75l4.08 -5.65 -4.18 -3.02 1.6 -2.21 6.9 4.99 -5.56 7.71c-1.06,1.47 -2.22,2.31 -3.47,2.51 -1.24,0.2 -2.57,-0.21 -3.97,-1.22zm6.01 4.12l12.91 -9.54 2.91 1.65 -1.52 15.98 -3.09 -1.75 1.71 -13.9 1.16 0.66 -11.05 8.61 -3.03 -1.71zm4.39 -1.13l2.05 -1.79 6.56 3.71 -0.46 2.69 -8.15 -4.61zm12.27 9.94l5.46 -13.6 5.89 2.36c1.21,0.49 2.18,1.11 2.91,1.86 0.72,0.75 1.17,1.59 1.35,2.52 0.19,0.93 0.07,1.9 -0.34,2.93 -0.4,1.01 -0.99,1.78 -1.77,2.32 -0.77,0.54 -1.67,0.83 -2.71,0.86 -1.04,0.04 -2.16,-0.19 -3.38,-0.68l-4.14 -1.66 1.95 -0.82 -2.07 5.17 -3.15 -1.26zm8.65 3.47l-1.42 -6.3 3.36 1.35 1.46 6.31 -3.4 -1.36zm-3.57 -7.03l-0.8 -2.03 3.96 1.59c0.97,0.39 1.78,0.47 2.43,0.24 0.65,-0.23 1.12,-0.71 1.42,-1.45 0.3,-0.75 0.29,-1.43 -0.02,-2.04 -0.31,-0.61 -0.96,-1.1 -1.93,-1.49l-3.96 -1.59 2 -0.94 -3.1 7.71zm10.23 9.09l3.32 -14.27 6.49 1.51c1.55,0.36 2.85,0.97 3.89,1.84 1.04,0.87 1.78,1.91 2.19,3.12 0.42,1.22 0.46,2.56 0.12,4.01 -0.33,1.44 -0.96,2.62 -1.87,3.53 -0.92,0.91 -2.03,1.52 -3.36,1.84 -1.32,0.31 -2.75,0.29 -4.3,-0.07l-6.48 -1.51zm3.93 -1.94l3.02 0.7c0.95,0.22 1.82,0.24 2.6,0.04 0.79,-0.2 1.45,-0.58 1.99,-1.16 0.54,-0.58 0.92,-1.31 1.13,-2.21 0.21,-0.91 0.2,-1.74 -0.03,-2.49 -0.23,-0.75 -0.66,-1.39 -1.28,-1.91 -0.61,-0.52 -1.4,-0.9 -2.35,-1.12l-3.01 -0.7 -2.07 8.85zm13.91 5.37l1.89 -14.53 3.37 0.44 -1.9 14.53 -3.36 -0.44zm1.84 -15.74l3.19 -2.63 3.49 0.46 -4.15 2.5 -2.53 -0.33zm5.88 16.73l-0.33 -14.65 2.81 -0.07 8.88 10.36 -1.36 0.03 -0.24 -10.55 3.35 -0.07 0.33 14.65 -2.79 0.06 -8.9 -10.36 1.36 -0.03 0.24 10.55 -3.35 0.08zm24.6 -1.3l-3.3 -14.28 6.18 -1.43c1.28,-0.3 2.43,-0.34 3.45,-0.14 1.02,0.2 1.87,0.63 2.55,1.29 0.69,0.66 1.15,1.53 1.4,2.6 0.24,1.06 0.2,2.03 -0.12,2.92 -0.33,0.88 -0.91,1.64 -1.74,2.26 -0.83,0.62 -1.88,1.08 -3.16,1.37l-4.35 1.01 1.14 -1.79 1.25 5.42 -3.3 0.77zm9.07 -2.1l-4.76 -4.36 3.53 -0.81 4.8 4.35 -3.57 0.82zm-6.94 -3.73l-1.82 -1.21 4.16 -0.96c1.02,-0.23 1.73,-0.63 2.13,-1.19 0.4,-0.56 0.51,-1.22 0.33,-2 -0.18,-0.79 -0.57,-1.34 -1.17,-1.66 -0.61,-0.32 -1.42,-0.36 -2.44,-0.13l-4.16 0.97 1.1 -1.91 1.87 8.09zm13.74 -7.33l6.67 -2.32 0.87 2.49 -6.67 2.32 -0.87 -2.49zm2.22 5.62l7.54 -2.63 0.89 2.57 -10.71 3.73 -4.82 -13.84 10.45 -3.64 0.9 2.57 -7.28 2.54 3.03 8.7zm11.66 -1.65l-6.04 -13.36 3.09 -1.39 6.04 13.35 -3.09 1.4zm7.96 -7.79l-2.1 -3.3 2.42 -9.9 3.27 -1.87 -2.11 9.05 -0.64 2.68 -0.84 3.34zm-0.97 4.42l-7.27 -12.73 2.93 -1.67 7.27 12.73 -2.93 1.67zm8.71 -4.98l-7.7 -2.96 0.73 -3.19 10.4 4.19 -3.43 1.96zm5.18 -3.7l-9.16 -11.44 2.64 -2.12 9.16 11.44 -2.64 2.12z"/>
  </g>
 </g>
</svg>
