<?xml version="1.0" encoding="UTF-8"?>
<!DOCTYPE svg PUBLIC "-//W3C//DTD SVG 1.1//EN" "http://www.w3.org/Graphics/SVG/1.1/DTD/svg11.dtd">
<!-- Creator: CorelDRAW 2020 (64-Bit) -->
<svg xmlns="http://www.w3.org/2000/svg" xml:space="preserve" width="178px" height="178px" version="1.1" style="shape-rendering:geometricPrecision; text-rendering:geometricPrecision; image-rendering:optimizeQuality; fill-rule:evenodd; clip-rule:evenodd"
viewBox="0 0 27.39 27.39"
 xmlns:xlink="http://www.w3.org/1999/xlink"
 xmlns:xodm="http://www.corel.com/coreldraw/odm/2003">
 <defs>
  <style type="text/css">
   <![CDATA[
    .fil0 {fill:white}
    .fil1 {fill:white;fill-rule:nonzero}
   ]]>
  </style>
 </defs>
 <g id="Capa_x0020_1">
  <metadata id="CorelCorpID_0Corel-Layer"/>
  <g id="_2317859848064">
   <path class="fil0" d="M13.7 16.88l-6.5 2.98c-1.44,0.85 -3.01,-0.84 -2.16,-2.14l7.21 -12.69c0.6,-1.06 2.29,-1.06 2.9,0l7.21 12.69c0.85,1.3 -0.72,2.99 -2.16,2.14l-6.5 -2.98zm2.01 -3.04l-2.01 -3.51 -2.01 3.51c2.28,-1.04 1.74,-1.04 4.02,0z"/>
   <path class="fil1" d="M2.72 7.98l0.26 -0.5 0.35 0.18 -0.49 0.95 -1.64 -0.83 0.23 -0.45 1.29 0.65zm-0.49 -1.96l0.87 0.62c0.08,0.05 0.15,0.08 0.22,0.07 0.07,0 0.14,-0.04 0.19,-0.12 0.06,-0.08 0.07,-0.15 0.06,-0.22 -0.02,-0.07 -0.07,-0.13 -0.15,-0.19l-0.87 -0.61 0.3 -0.42 0.87 0.62c0.14,0.09 0.23,0.21 0.29,0.33 0.06,0.13 0.07,0.26 0.05,0.39 -0.02,0.14 -0.08,0.26 -0.16,0.38 -0.09,0.13 -0.19,0.22 -0.31,0.28 -0.12,0.06 -0.24,0.08 -0.38,0.07 -0.13,-0.02 -0.27,-0.07 -0.41,-0.17l-0.87 -0.62 0.3 -0.41zm0.05 -0.69l-0.17 0.67 -0.28 -0.2 0.13 -0.7 0.32 0.23zm2.52 -2.15l1.27 1.32 -0.37 0.35 -0.71 -0.73 0.45 0.97 -0.31 0.29 -0.96 -0.49 0.71 0.73 -0.37 0.35 -1.27 -1.32 0.45 -0.42 1.16 0.54 -0.5 -1.17 0.45 -0.42zm0.86 -0.62l1.07 1.48 -0.42 0.3 -1.06 -1.49 0.41 -0.29zm2.77 0.45l-0.44 0.25 -1.1 -0.55 0.51 0.89 -0.44 0.25 -0.92 -1.58 0.44 -0.25 1.11 0.56 -0.52 -0.9 0.45 -0.25 0.91 1.58zm1.25 -0.81l-0.61 0.23 0.02 0.32 -0.5 0.19 -0.05 -1.94 0.55 -0.22 1.3 1.46 -0.51 0.2 -0.2 -0.24zm-0.26 -0.32l-0.41 -0.48 0.04 0.63 0.37 -0.15zm2.74 -0.24l-0.65 0.08 -0.06 0.31 -0.53 0.07 0.43 -1.9 0.59 -0.07 0.89 1.73 -0.53 0.06 -0.14 -0.28zm-0.18 -0.37l-0.27 -0.56 -0.12 0.61 0.39 -0.05zm0.98 -0.37c0.01,-0.18 0.05,-0.33 0.13,-0.47 0.08,-0.14 0.19,-0.25 0.33,-0.32 0.14,-0.08 0.3,-0.11 0.48,-0.11 0.23,0.01 0.43,0.07 0.58,0.2 0.15,0.12 0.25,0.29 0.29,0.5l-0.55 -0.01c-0.03,-0.07 -0.08,-0.13 -0.14,-0.16 -0.05,-0.04 -0.12,-0.06 -0.2,-0.06 -0.11,-0.01 -0.21,0.03 -0.28,0.11 -0.08,0.09 -0.11,0.2 -0.12,0.34 0,0.14 0.03,0.25 0.1,0.34 0.07,0.08 0.16,0.13 0.28,0.13 0.08,0 0.14,-0.01 0.2,-0.05 0.06,-0.03 0.11,-0.08 0.15,-0.15l0.55 0.01c-0.05,0.21 -0.16,0.37 -0.32,0.49 -0.16,0.12 -0.35,0.17 -0.58,0.17 -0.18,-0.01 -0.34,-0.05 -0.48,-0.13 -0.14,-0.08 -0.24,-0.2 -0.32,-0.34 -0.07,-0.14 -0.1,-0.3 -0.1,-0.49zm3.22 0.89l-0.64 -0.11 -0.15 0.27 -0.53 -0.09 0.99 -1.68 0.58 0.1 0.33 1.92 -0.53 -0.1 -0.05 -0.31zm-0.05 -0.4l-0.09 -0.62 -0.3 0.55 0.39 0.07zm2.07 -0.63c0.19,0.06 0.33,0.15 0.45,0.27 0.11,0.12 0.18,0.26 0.21,0.41 0.03,0.16 0.02,0.32 -0.04,0.49 -0.06,0.16 -0.15,0.3 -0.27,0.41 -0.12,0.1 -0.26,0.17 -0.42,0.2 -0.16,0.03 -0.34,0.01 -0.52,-0.05l-0.69 -0.23 0.59 -1.73 0.69 0.23zm-0.48 1.29c0.14,0.05 0.27,0.05 0.37,0 0.11,-0.05 0.19,-0.15 0.24,-0.29 0.04,-0.14 0.04,-0.26 -0.01,-0.37 -0.06,-0.1 -0.16,-0.18 -0.3,-0.23l-0.17 -0.05 -0.3 0.88 0.17 0.06zm2.11 -0.17l-0.14 0.27 0.53 0.26 -0.18 0.35 -0.52 -0.27 -0.15 0.3 0.59 0.3 -0.19 0.36 -1.05 -0.53 0.84 -1.63 1.05 0.53 -0.19 0.37 -0.59 -0.31zm0.7 -0.5l-0.7 -0.07 0.16 -0.31 0.71 0.03 -0.17 0.35zm2.29 1.94l-1.07 1.49 -0.42 -0.3 0.59 -0.82 -0.87 0.62 -0.35 -0.24 0.31 -1.03 -0.6 0.82 -0.41 -0.29 1.06 -1.49 0.51 0.36 -0.32 1.23 1.06 -0.71 0.51 0.36zm0.74 0.77l-1.27 1.32 -0.37 -0.35 1.27 -1.33 0.37 0.36zm-0.35 0.89c0.15,-0.11 0.3,-0.18 0.45,-0.21 0.16,-0.03 0.32,-0.01 0.47,0.05 0.14,0.06 0.27,0.16 0.39,0.3 0.14,0.18 0.21,0.37 0.21,0.56 0,0.2 -0.07,0.38 -0.21,0.55l-0.34 -0.43c0.04,-0.07 0.05,-0.14 0.04,-0.21 0,-0.07 -0.03,-0.13 -0.08,-0.19 -0.07,-0.09 -0.16,-0.14 -0.27,-0.14 -0.11,-0.01 -0.22,0.03 -0.34,0.12 -0.11,0.09 -0.18,0.19 -0.2,0.29 -0.02,0.11 0,0.21 0.08,0.3 0.05,0.06 0.1,0.1 0.17,0.13 0.06,0.02 0.13,0.02 0.21,0.01l0.34 0.42c-0.2,0.1 -0.39,0.12 -0.58,0.07 -0.2,-0.04 -0.37,-0.16 -0.51,-0.33 -0.11,-0.15 -0.18,-0.29 -0.2,-0.45 -0.02,-0.16 0,-0.31 0.06,-0.46 0.07,-0.14 0.17,-0.27 0.31,-0.38zm1.38 3.02l-0.33 -0.57 -0.31 0.07 -0.27 -0.47 1.93 -0.33 0.3 0.51 -1.27 1.48 -0.27 -0.46 0.22 -0.23zm0.27 -0.31l0.42 -0.46 -0.62 0.12 0.2 0.34z"/>
   <path class="fil1" d="M2.15 11.18l-0.39 -0.11 0.13 -0.47 -1.38 -0.38 0.14 -0.49 1.38 0.38 0.13 -0.46 0.39 0.11 -0.4 1.42zm-1.99 0.68l0.73 -0.24 0.01 -0.05 -0.67 -0.12 0.09 -0.5 1.82 0.33 -0.15 0.79c-0.03,0.14 -0.08,0.26 -0.14,0.35 -0.07,0.09 -0.16,0.15 -0.26,0.19 -0.09,0.03 -0.2,0.04 -0.31,0.02 -0.12,-0.02 -0.22,-0.08 -0.3,-0.16 -0.08,-0.08 -0.13,-0.19 -0.15,-0.33l-0.78 0.27 0.11 -0.55zm1.08 -0.23l-0.04 0.25c-0.01,0.07 -0.01,0.12 0.02,0.16 0.02,0.04 0.07,0.07 0.13,0.08 0.06,0.01 0.11,0 0.15,-0.03 0.04,-0.03 0.06,-0.08 0.08,-0.14l0.04 -0.25 -0.38 -0.07zm-0.92 2.25l0.02 -0.65 -0.3 -0.11 0.02 -0.53 1.82 0.72 -0.02 0.59 -1.86 0.6 0.02 -0.53 0.3 -0.09zm0.4 -0.12l0.6 -0.18 -0.59 -0.21 -0.01 0.39zm-0.47 2.66l-0.06 -0.5 0.94 -0.79 -1.02 0.12 -0.07 -0.51 1.83 -0.22 0.06 0.51 -0.95 0.79 1.04 -0.12 0.06 0.5 -1.83 0.22zm0.26 1.03c-0.05,-0.21 -0.05,-0.39 0.01,-0.55 0.06,-0.16 0.18,-0.27 0.36,-0.33l0.15 0.53c-0.06,0.02 -0.1,0.05 -0.12,0.09 -0.02,0.04 -0.03,0.08 -0.01,0.13 0.01,0.05 0.03,0.08 0.06,0.1 0.03,0.03 0.07,0.03 0.11,0.02 0.05,-0.01 0.09,-0.05 0.1,-0.1 0.02,-0.06 0.03,-0.15 0.03,-0.27 0.01,-0.12 0.02,-0.22 0.03,-0.31 0.02,-0.08 0.06,-0.15 0.11,-0.22 0.06,-0.08 0.14,-0.13 0.25,-0.16 0.12,-0.03 0.22,-0.03 0.32,0.01 0.1,0.03 0.18,0.09 0.25,0.18 0.07,0.09 0.12,0.19 0.16,0.32 0.06,0.2 0.05,0.38 -0.01,0.53 -0.06,0.15 -0.18,0.25 -0.35,0.31l-0.15 -0.53c0.05,-0.02 0.09,-0.05 0.11,-0.08 0.02,-0.04 0.02,-0.09 0,-0.13 -0.01,-0.04 -0.03,-0.07 -0.05,-0.08 -0.03,-0.02 -0.07,-0.03 -0.11,-0.01 -0.03,0.01 -0.06,0.03 -0.07,0.06 -0.02,0.03 -0.03,0.07 -0.04,0.11 0,0.05 -0.01,0.11 -0.02,0.19 0,0.12 -0.02,0.23 -0.03,0.31 -0.02,0.08 -0.06,0.16 -0.11,0.23 -0.05,0.07 -0.13,0.12 -0.23,0.15 -0.11,0.03 -0.21,0.03 -0.31,0 -0.1,-0.03 -0.19,-0.09 -0.26,-0.17 -0.08,-0.09 -0.14,-0.2 -0.18,-0.33zm2.49 1.43l-0.38 0.15 -0.26 -0.68 -0.3 0.11 0.19 0.51 -0.36 0.13 -0.2 -0.5 -0.67 0.26 -0.18 -0.47 1.71 -0.66 0.45 1.15zm-1.16 1.69c-0.09,-0.14 -0.13,-0.3 -0.14,-0.46 0,-0.17 0.04,-0.32 0.12,-0.47 0.08,-0.14 0.2,-0.26 0.36,-0.35 0.15,-0.09 0.32,-0.13 0.48,-0.13 0.17,0 0.32,0.04 0.47,0.12 0.14,0.09 0.25,0.2 0.34,0.35 0.09,0.15 0.13,0.31 0.14,0.47 0,0.16 -0.04,0.32 -0.12,0.46 -0.09,0.14 -0.2,0.26 -0.36,0.35 -0.16,0.09 -0.32,0.14 -0.49,0.14 -0.16,0 -0.32,-0.05 -0.46,-0.13 -0.14,-0.08 -0.26,-0.2 -0.34,-0.35zm0.41 -0.23c0.06,0.11 0.15,0.18 0.26,0.2 0.12,0.02 0.23,0 0.36,-0.08 0.12,-0.07 0.2,-0.16 0.24,-0.27 0.03,-0.1 0.02,-0.21 -0.05,-0.32 -0.06,-0.12 -0.15,-0.19 -0.26,-0.21 -0.11,-0.02 -0.23,0.01 -0.36,0.08 -0.12,0.07 -0.2,0.16 -0.24,0.27 -0.03,0.1 -0.02,0.21 0.05,0.33zm0.84 2l0.31 -0.7 -0.04 -0.04 -0.53 0.41 -0.32 -0.39 1.45 -1.13 0.5 0.62c0.09,0.12 0.15,0.23 0.17,0.34 0.02,0.12 0.02,0.22 -0.02,0.32 -0.04,0.09 -0.1,0.17 -0.19,0.24 -0.1,0.08 -0.21,0.12 -0.32,0.12 -0.12,0.01 -0.23,-0.03 -0.35,-0.11l-0.31 0.77 -0.35 -0.45zm0.55 -0.96l0.16 0.2c0.04,0.05 0.08,0.08 0.13,0.09 0.05,0.01 0.1,-0.01 0.15,-0.05 0.04,-0.03 0.07,-0.07 0.07,-0.12 0.01,-0.05 -0.01,-0.1 -0.05,-0.16l-0.16 -0.19 -0.3 0.23zm2.83 1.79l-1.28 1.32 -0.37 -0.36 0.71 -0.72 -0.96 0.49 -0.31 -0.3 0.46 -0.97 -0.71 0.73 -0.37 -0.35 1.28 -1.32 0.44 0.43 -0.49 1.17 1.15 -0.55 0.45 0.43zm0.18 1.89l-0.55 -0.35 -0.24 0.2 -0.45 -0.29 1.56 -1.17 0.5 0.31 -0.44 1.9 -0.46 -0.29 0.08 -0.31zm0.11 -0.39l0.16 -0.61 -0.49 0.39 0.33 0.22zm0.8 0.24c0.07,-0.16 0.17,-0.29 0.3,-0.39 0.13,-0.1 0.27,-0.15 0.43,-0.17 0.16,-0.01 0.32,0.02 0.49,0.09 0.21,0.09 0.36,0.23 0.45,0.4 0.1,0.18 0.12,0.37 0.08,0.58l-0.51 -0.23c0,-0.07 -0.02,-0.14 -0.06,-0.2 -0.04,-0.05 -0.09,-0.1 -0.16,-0.13 -0.11,-0.05 -0.21,-0.05 -0.31,0 -0.1,0.05 -0.18,0.14 -0.24,0.27 -0.05,0.12 -0.07,0.24 -0.04,0.35 0.03,0.1 0.1,0.18 0.21,0.23 0.07,0.03 0.14,0.04 0.21,0.03 0.06,-0.01 0.13,-0.04 0.19,-0.09l0.5 0.22c-0.13,0.18 -0.29,0.29 -0.48,0.33 -0.19,0.05 -0.4,0.03 -0.61,-0.07 -0.16,-0.07 -0.29,-0.17 -0.39,-0.3 -0.09,-0.13 -0.14,-0.27 -0.16,-0.43 -0.01,-0.16 0.03,-0.32 0.1,-0.49zm2.64 0.09l-0.58 1.73 -0.49 -0.16 0.59 -1.73 0.48 0.16zm0.62 2.06c-0.17,-0.04 -0.31,-0.11 -0.43,-0.22 -0.13,-0.11 -0.21,-0.25 -0.26,-0.4 -0.05,-0.16 -0.06,-0.33 -0.01,-0.5 0.04,-0.18 0.12,-0.33 0.23,-0.45 0.11,-0.12 0.25,-0.2 0.41,-0.24 0.16,-0.05 0.32,-0.05 0.49,-0.01 0.17,0.04 0.32,0.11 0.44,0.22 0.12,0.11 0.21,0.25 0.25,0.4 0.05,0.16 0.06,0.33 0.02,0.5 -0.05,0.18 -0.12,0.32 -0.24,0.44 -0.11,0.12 -0.25,0.21 -0.41,0.25 -0.16,0.05 -0.32,0.05 -0.49,0.01zm0.11 -0.46c0.13,0.03 0.24,0.01 0.33,-0.05 0.09,-0.07 0.16,-0.17 0.19,-0.31 0.03,-0.14 0.02,-0.26 -0.03,-0.36 -0.06,-0.09 -0.15,-0.16 -0.28,-0.19 -0.12,-0.03 -0.23,-0.01 -0.33,0.06 -0.09,0.06 -0.15,0.16 -0.19,0.3 -0.03,0.14 -0.02,0.26 0.04,0.36 0.05,0.1 0.14,0.16 0.27,0.19zm0.71 -1.61l-0.7 0.1 0.08 -0.34 0.71 -0.14 -0.09 0.38zm2.12 2.4l-0.51 -0.04 -0.61 -1.07 -0.07 1.02 -0.51 -0.04 0.14 -1.82 0.51 0.04 0.6 1.08 0.08 -1.03 0.51 0.04 -0.14 1.82zm2.24 -1.45c0.01,0.11 0,0.22 -0.04,0.31 -0.04,0.1 -0.11,0.18 -0.21,0.25 -0.09,0.06 -0.22,0.1 -0.36,0.12l-0.26 0.03 0.08 0.61 -0.51 0.07 -0.22 -1.82 0.76 -0.09c0.15,-0.02 0.27,-0.01 0.38,0.03 0.11,0.04 0.2,0.1 0.26,0.19 0.06,0.08 0.1,0.18 0.12,0.3zm-0.71 0.29c0.14,-0.02 0.21,-0.09 0.19,-0.22 -0.02,-0.14 -0.1,-0.19 -0.24,-0.18l-0.2 0.03 0.05 0.39 0.2 -0.02zm1.31 -0.65l0.06 0.29 0.58 -0.13 0.08 0.38 -0.57 0.13 0.08 0.32 0.64 -0.15 0.1 0.4 -1.15 0.26 -0.42 -1.78 1.15 -0.26 0.1 0.39 -0.65 0.15zm2.15 0.81l-0.58 -0.5 -0.06 0.02 0.25 0.63 -0.48 0.18 -0.66 -1.7 0.75 -0.29c0.14,-0.06 0.26,-0.08 0.38,-0.07 0.11,0.01 0.21,0.05 0.29,0.12 0.08,0.06 0.14,0.14 0.18,0.25 0.05,0.11 0.06,0.23 0.03,0.34 -0.03,0.11 -0.1,0.21 -0.21,0.29l0.65 0.52 -0.54 0.21zm-0.76 -0.81l0.23 -0.09c0.07,-0.02 0.11,-0.06 0.13,-0.1 0.02,-0.04 0.02,-0.09 0,-0.15 -0.02,-0.06 -0.06,-0.09 -0.1,-0.11 -0.05,-0.02 -0.1,-0.02 -0.16,0.01l-0.24 0.09 0.14 0.35zm2.19 0.18c-0.19,0.09 -0.37,0.12 -0.54,0.09 -0.17,-0.03 -0.3,-0.12 -0.39,-0.29l0.48 -0.24c0.04,0.06 0.08,0.09 0.12,0.1 0.04,0.01 0.09,0.01 0.13,-0.02 0.05,-0.02 0.08,-0.04 0.09,-0.08 0.02,-0.03 0.02,-0.07 0,-0.11 -0.03,-0.04 -0.07,-0.07 -0.12,-0.07 -0.06,-0.01 -0.15,0 -0.27,0.02 -0.12,0.02 -0.23,0.02 -0.31,0.02 -0.08,0 -0.17,-0.02 -0.25,-0.06 -0.08,-0.04 -0.15,-0.11 -0.2,-0.21 -0.05,-0.11 -0.07,-0.21 -0.06,-0.31 0.02,-0.1 0.06,-0.19 0.14,-0.28 0.07,-0.08 0.17,-0.16 0.29,-0.22 0.19,-0.09 0.36,-0.12 0.52,-0.09 0.16,0.03 0.29,0.13 0.38,0.28l-0.5 0.25c-0.03,-0.05 -0.06,-0.08 -0.1,-0.09 -0.04,-0.01 -0.09,0 -0.13,0.02 -0.04,0.02 -0.06,0.04 -0.07,0.07 -0.01,0.03 -0.01,0.07 0.01,0.1 0.01,0.03 0.04,0.06 0.07,0.07 0.04,0.01 0.08,0.01 0.12,0.01 0.05,0 0.11,-0.01 0.19,-0.02 0.13,-0.01 0.23,-0.02 0.32,-0.02 0.08,0 0.16,0.02 0.24,0.06 0.08,0.04 0.15,0.1 0.2,0.2 0.05,0.1 0.07,0.2 0.06,0.3 -0.01,0.1 -0.05,0.2 -0.12,0.29 -0.07,0.09 -0.17,0.16 -0.3,0.23zm1.59 -1c-0.14,0.1 -0.29,0.15 -0.45,0.17 -0.17,0.02 -0.33,0 -0.48,-0.07 -0.15,-0.07 -0.28,-0.17 -0.39,-0.32 -0.1,-0.15 -0.16,-0.3 -0.18,-0.46 -0.01,-0.17 0.01,-0.33 0.08,-0.47 0.08,-0.15 0.18,-0.28 0.32,-0.38 0.14,-0.1 0.29,-0.16 0.46,-0.17 0.16,-0.02 0.32,0 0.47,0.07 0.15,0.07 0.28,0.17 0.39,0.32 0.1,0.14 0.16,0.3 0.18,0.46 0.02,0.17 -0.01,0.32 -0.08,0.47 -0.07,0.15 -0.18,0.28 -0.32,0.38zm-0.27 -0.39c0.1,-0.07 0.16,-0.17 0.17,-0.28 0.01,-0.11 -0.02,-0.23 -0.11,-0.34 -0.08,-0.12 -0.18,-0.19 -0.29,-0.21 -0.11,-0.03 -0.22,0 -0.33,0.07 -0.1,0.08 -0.16,0.17 -0.17,0.28 -0.02,0.12 0.02,0.23 0.11,0.35 0.08,0.11 0.18,0.19 0.29,0.21 0.11,0.03 0.22,0 0.33,-0.08zm2.47 -1.57l-0.37 0.36 -1.2 -0.27 0.71 0.73 -0.37 0.35 -1.27 -1.31 0.37 -0.36 1.21 0.28 -0.72 -0.74 0.37 -0.35 1.27 1.31zm0.67 -1.39l-0.38 0.52 0.19 0.26 -0.31 0.43 -1.11 -1.6 0.34 -0.48 1.89 0.52 -0.31 0.44 -0.31 -0.09zm-0.39 -0.13l-0.6 -0.18 0.37 0.5 0.23 -0.32zm1.05 -1.06l0.28 -0.49 0.34 0.19 -0.54 0.93 -1.6 -0.91 0.26 -0.44 1.26 0.72zm1.3 -1.88c-0.05,0.16 -0.14,0.3 -0.26,0.41 -0.13,0.11 -0.27,0.18 -0.43,0.22 -0.17,0.03 -0.33,0.02 -0.5,-0.04 -0.18,-0.05 -0.32,-0.14 -0.43,-0.27 -0.11,-0.12 -0.18,-0.27 -0.21,-0.43 -0.03,-0.16 -0.01,-0.32 0.04,-0.48 0.06,-0.17 0.14,-0.3 0.27,-0.41 0.12,-0.11 0.26,-0.19 0.42,-0.22 0.17,-0.03 0.33,-0.02 0.5,0.04 0.18,0.05 0.32,0.14 0.43,0.27 0.11,0.12 0.18,0.26 0.21,0.43 0.03,0.16 0.02,0.32 -0.04,0.48zm-0.45 -0.15c0.04,-0.12 0.04,-0.23 -0.02,-0.33 -0.06,-0.1 -0.15,-0.17 -0.29,-0.21 -0.14,-0.05 -0.26,-0.05 -0.36,-0.01 -0.11,0.05 -0.18,0.13 -0.22,0.26 -0.04,0.12 -0.04,0.23 0.02,0.33 0.06,0.09 0.15,0.17 0.29,0.21 0.14,0.05 0.26,0.05 0.36,0 0.11,-0.04 0.18,-0.12 0.22,-0.25zm1.14 -2.7l-0.1 0.5 -1.13 0.48 1.01 0.19 -0.09 0.5 -1.82 -0.33 0.1 -0.5 1.15 -0.48 -1.03 -0.19 0.09 -0.5 1.82 0.33zm-0.34 -0.9l0.05 -0.56 0.39 0.03 -0.08 1.07 -1.84 -0.14 0.04 -0.51 1.44 0.11zm-1.43 -1.26l1.84 -0.05 0.02 0.5 -1.84 0.06 -0.02 -0.51zm1.64 -2.1l0.06 0.51 -0.94 0.79 1.02 -0.12 0.06 0.5 -1.82 0.22 -0.07 -0.5 0.96 -0.8 -1.04 0.13 -0.06 -0.51 1.83 -0.22zm-1.6 -0.46l0.29 -0.08 -0.16 -0.56 0.37 -0.11 0.16 0.56 0.32 -0.09 -0.18 -0.63 0.4 -0.11 0.32 1.12 -1.78 0.5 -0.32 -1.13 0.4 -0.11 0.18 0.64z"/>
  </g>
 </g>
</svg>
