<?xml version="1.0" encoding="UTF-8"?>
<!DOCTYPE svg PUBLIC "-//W3C//DTD SVG 1.1//EN" "http://www.w3.org/Graphics/SVG/1.1/DTD/svg11.dtd">
<!-- Creator: CorelDRAW 2020 (64-Bit) -->
<svg xmlns="http://www.w3.org/2000/svg" xml:space="preserve" width="297px" height="90px" version="1.1" style="shape-rendering:geometricPrecision; text-rendering:geometricPrecision; image-rendering:optimizeQuality; fill-rule:evenodd; clip-rule:evenodd"
viewBox="0 0 54.89 16.65"
 xmlns:xlink="http://www.w3.org/1999/xlink"
 xmlns:xodm="http://www.corel.com/coreldraw/odm/2003">
 <defs>
  <style type="text/css">
   <![CDATA[
    .fil0 {fill:white}
    .fil1 {fill:white;fill-rule:nonzero}
   ]]>
  </style>
 </defs>
 <g id="Capa_x0020_1">
  <metadata id="CorelCorpID_0Corel-Layer"/>
  <g id="_2317537083488">
   <path class="fil0" d="M0.22 7.55l1.31 0 0 -1.99 1.44 0c1.33,0 2.31,-0.86 2.31,-2.07 0,-1.22 -0.98,-2.07 -2.31,-2.07l-2.75 0 0 6.13zm1.31 -3.2l0 -1.73 1.3 0c0.65,0 1.1,0.34 1.1,0.87 0,0.52 -0.45,0.86 -1.1,0.86l-1.3 0zm13.86 3.2l-1.5 -2.14c0.83,-0.3 1.39,-1.01 1.39,-1.92 0,-1.22 -0.98,-2.07 -2.31,-2.07l-2.76 0 0 6.13 1.31 0 0 -1.99 0.97 0 1.4 1.99 1.5 0zm-3.87 -4.93l1.3 0c0.65,0 1.1,0.34 1.1,0.87 0,0.52 -0.45,0.86 -1.1,0.86l-1.3 0 0 -1.73zm17.83 5.03c1.5,0 2.38,-0.77 2.38,-1.94 0,-1.13 -0.87,-1.53 -2.19,-1.82 -0.95,-0.22 -1.31,-0.36 -1.31,-0.8 0,-0.37 0.34,-0.66 0.9,-0.66 0.59,0 1.2,0.24 1.75,0.67l0.68 -0.94c-0.62,-0.54 -1.4,-0.85 -2.4,-0.85 -1.33,0 -2.26,0.78 -2.26,1.91 0,1.19 0.92,1.55 2.21,1.85 0.94,0.21 1.29,0.34 1.29,0.78 0,0.38 -0.33,0.69 -1,0.69 -0.77,0 -1.43,-0.31 -2.01,-0.8l-0.76 0.9c0.71,0.66 1.66,1.01 2.72,1.01zm7.49 -0.1l1.31 0 0 -3.82 1.9 3.46 1.89 -3.46 0 3.82 1.32 0 0 -6.13 -1.32 0 -1.89 3.46 -1.9 -3.46 -1.31 0 0 6.13zm16.29 0l1.47 0 -2.49 -6.13 -1.48 0 -2.49 6.13 1.46 0 1.77 -4.32 1.76 4.32z"/>
   <polygon class="fil0" points="21.52,0.01 21.21,3.71 19.36,2.34 "/>
   <polygon class="fil0" points="21.75,0 21.44,3.89 23.49,2.96 "/>
   <polygon class="fil0" points="21.17,3.89 20.9,7.21 19.55,5.95 19.31,2.58 "/>
   <polygon class="fil0" points="23.48,3.18 21.51,4.08 23.15,5.4 "/>
   <polygon class="fil0" points="21.39,4.21 21.13,7.21 23.02,5.52 "/>
   <polygon class="fil0" points="21.14,7.4 21.22,8.59 23.02,5.76 "/>
   <polygon class="fil0" points="20.94,7.45 21.01,8.58 19.56,6.21 "/>
   <polygon class="fil1" points="17.56,10.6 17.56,10.22 16.03,10.22 16.03,12.2 17.56,12.2 17.56,11.82 16.46,11.82 16.46,11.38 17.46,11.38 17.46,11 16.46,11 16.46,10.6 "/>
   <path id="1" class="fil1" d="M20.34 12.24c0.48,0 0.77,-0.25 0.77,-0.63 0,-0.37 -0.28,-0.5 -0.71,-0.59 -0.31,-0.07 -0.43,-0.12 -0.43,-0.26 0,-0.12 0.11,-0.22 0.29,-0.22 0.19,0 0.39,0.08 0.57,0.22l0.22 -0.3c-0.2,-0.18 -0.45,-0.28 -0.77,-0.28 -0.44,0 -0.74,0.25 -0.74,0.62 0,0.38 0.3,0.5 0.72,0.6 0.3,0.07 0.42,0.11 0.42,0.25 0,0.13 -0.11,0.23 -0.33,0.23 -0.25,0 -0.46,-0.1 -0.65,-0.26l-0.25 0.29c0.24,0.21 0.54,0.33 0.89,0.33z"/>
   <path id="2" class="fil1" d="M23.11 12.2l0.43 0 0 -0.64 0.47 0c0.43,0 0.75,-0.28 0.75,-0.67 0,-0.4 -0.32,-0.67 -0.75,-0.67l-0.9 0 0 1.98zm0.43 -1.03l0 -0.56 0.42 0c0.21,0 0.36,0.11 0.36,0.28 0,0.17 -0.15,0.28 -0.36,0.28l-0.42 0z"/>
   <path id="3" class="fil1" d="M28.18 12.2l0.48 0 -0.81 -1.98 -0.48 0 -0.81 1.98 0.48 0 0.12 -0.31 0.89 0 0.13 0.31zm-0.87 -0.67l0.3 -0.73 0.29 0.73 -0.59 0z"/>
   <path id="4" class="fil1" d="M31.57 12.24c0.3,0 0.57,-0.13 0.77,-0.33l-0.31 -0.28c-0.12,0.13 -0.28,0.22 -0.46,0.22 -0.34,0 -0.62,-0.29 -0.62,-0.64 0,-0.35 0.28,-0.64 0.62,-0.64 0.18,0 0.34,0.09 0.46,0.22l0.31 -0.28c-0.2,-0.2 -0.47,-0.33 -0.77,-0.33 -0.57,0 -1.06,0.47 -1.06,1.03 0,0.56 0.49,1.03 1.06,1.03z"/>
   <polygon id="5" class="fil1" points="34.3,12.2 34.73,12.2 34.73,10.22 34.3,10.22 "/>
   <path id="6" class="fil1" d="M37.8 12.24c0.58,0 1.06,-0.47 1.06,-1.03 0,-0.56 -0.48,-1.03 -1.06,-1.03 -0.57,0 -1.05,0.47 -1.05,1.03 0,0.56 0.48,1.03 1.05,1.03zm0 -0.39c-0.33,0 -0.61,-0.29 -0.61,-0.64 0,-0.35 0.28,-0.64 0.61,-0.64 0.34,0 0.62,0.29 0.62,0.64 0,0.35 -0.28,0.64 -0.62,0.64z"/>
   <polygon class="fil1" points="0,16.61 0.48,16.61 0.48,14.39 0,14.39 "/>
   <polygon id="1" class="fil1" points="2.2,16.61 2.67,16.61 2.67,15.18 3.74,16.61 4.21,16.61 4.21,14.39 3.74,14.39 3.74,15.82 2.67,14.39 2.2,14.39 "/>
   <polygon id="2" class="fil1" points="6.5,16.61 6.98,16.61 6.98,14.82 7.67,14.82 7.67,14.39 5.81,14.39 5.81,14.82 6.5,14.82 "/>
   <polygon id="3" class="fil1" points="10.95,14.82 10.95,14.39 9.24,14.39 9.24,16.61 10.95,16.61 10.95,16.18 9.72,16.18 9.72,15.69 10.83,15.69 10.83,15.26 9.72,15.26 9.72,14.82 "/>
   <path id="4" class="fil1" d="M14.44 16.61l-0.55 -0.78c0.31,-0.1 0.51,-0.36 0.51,-0.69 0,-0.44 -0.36,-0.75 -0.84,-0.75l-0.99 0 0 2.22 0.47 0 0 -0.72 0.35 0 0.51 0.72 0.54 0zm-1.4 -1.78l0.47 0c0.24,0 0.4,0.12 0.4,0.31 0,0.19 -0.16,0.31 -0.4,0.31l-0.47 0 0 -0.62z"/>
   <path id="5" class="fil1" d="M16.03 16.61l0.79 0c0.74,0 1.27,-0.46 1.27,-1.11 0,-0.65 -0.53,-1.11 -1.27,-1.11l-0.79 0 0 2.22zm0.47 -0.43l0 -1.35 0.38 0c0.42,0 0.72,0.28 0.72,0.67 0,0.4 -0.3,0.68 -0.72,0.68l-0.38 0z"/>
   <polygon id="6" class="fil1" points="19.72,16.61 20.2,16.61 20.2,14.39 19.72,14.39 "/>
   <path id="7" class="fil1" d="M22.74 16.65c0.54,0 0.86,-0.28 0.86,-0.71 0,-0.41 -0.32,-0.55 -0.79,-0.65 -0.35,-0.08 -0.48,-0.13 -0.48,-0.29 0,-0.14 0.12,-0.24 0.33,-0.24 0.21,0 0.43,0.09 0.63,0.24l0.25 -0.34c-0.23,-0.19 -0.51,-0.3 -0.87,-0.3 -0.48,0 -0.82,0.28 -0.82,0.69 0,0.42 0.33,0.56 0.8,0.66 0.34,0.08 0.47,0.13 0.47,0.29 0,0.13 -0.12,0.24 -0.36,0.24 -0.28,0 -0.52,-0.11 -0.73,-0.29l-0.27 0.33c0.25,0.24 0.59,0.37 0.98,0.37z"/>
   <path id="8" class="fil1" d="M26.29 16.65c0.33,0 0.64,-0.15 0.86,-0.37l-0.35 -0.31c-0.13,0.14 -0.31,0.24 -0.51,0.24 -0.37,0 -0.69,-0.32 -0.69,-0.71 0,-0.38 0.32,-0.71 0.69,-0.71 0.2,0 0.38,0.1 0.51,0.25l0.35 -0.31c-0.22,-0.23 -0.53,-0.37 -0.86,-0.37 -0.64,0 -1.18,0.52 -1.18,1.14 0,0.62 0.54,1.15 1.18,1.15z"/>
   <polygon id="9" class="fil1" points="28.7,16.61 29.18,16.61 29.18,14.39 28.7,14.39 "/>
   <path id="10" class="fil1" d="M30.88 16.61l0.47 0 0 -0.72 0.53 0c0.48,0 0.83,-0.31 0.83,-0.75 0,-0.44 -0.35,-0.75 -0.83,-0.75l-1 0 0 2.22zm0.47 -1.16l0 -0.62 0.47 0c0.24,0 0.4,0.12 0.4,0.31 0,0.19 -0.16,0.31 -0.4,0.31l-0.47 0z"/>
   <polygon id="11" class="fil1" points="34.72,16.18 34.72,14.39 34.25,14.39 34.25,16.61 35.83,16.61 35.83,16.18 "/>
   <polygon id="12" class="fil1" points="37.4,16.61 37.87,16.61 37.87,14.39 37.4,14.39 "/>
   <polygon id="13" class="fil1" points="39.59,16.61 40.07,16.61 40.07,15.18 41.13,16.61 41.61,16.61 41.61,14.39 41.13,14.39 41.13,15.82 40.07,14.39 39.59,14.39 "/>
   <path id="14" class="fil1" d="M44.95 16.61l0.53 0 -0.9 -2.22 -0.53 0 -0.9 2.22 0.53 0 0.14 -0.35 0.99 0 0.14 0.35zm-0.97 -0.75l0.33 -0.81 0.33 0.81 -0.66 0z"/>
   <path id="15" class="fil1" d="M48.87 16.61l-0.54 -0.78c0.3,-0.1 0.5,-0.36 0.5,-0.69 0,-0.44 -0.35,-0.75 -0.83,-0.75l-1 0 0 2.22 0.47 0 0 -0.72 0.36 0 0.5 0.72 0.54 0zm-1.4 -1.78l0.48 0c0.23,0 0.39,0.12 0.39,0.31 0,0.19 -0.16,0.31 -0.39,0.31l-0.48 0 0 -0.62z"/>
   <polygon id="16" class="fil1" points="50.45,16.61 50.93,16.61 50.93,14.39 50.45,14.39 "/>
   <path id="17" class="fil1" d="M53.71 16.65c0.65,0 1.18,-0.53 1.18,-1.15 0,-0.62 -0.53,-1.14 -1.18,-1.14 -0.63,0 -1.17,0.52 -1.17,1.14 0,0.62 0.54,1.15 1.17,1.15zm0 -0.44c-0.37,0 -0.68,-0.32 -0.68,-0.71 0,-0.38 0.31,-0.71 0.68,-0.71 0.38,0 0.69,0.33 0.69,0.71 0,0.39 -0.31,0.71 -0.69,0.71z"/>
   <g>
    <rect class="fil0" x="0.22" y="10.87" width="12.76" height="0.64"/>
    <rect class="fil0" x="41.84" y="10.87" width="12.76" height="0.64"/>
   </g>
  </g>
 </g>
</svg>
