<?xml version="1.0" encoding="UTF-8"?>
<!DOCTYPE svg PUBLIC "-//W3C//DTD SVG 1.1//EN" "http://www.w3.org/Graphics/SVG/1.1/DTD/svg11.dtd">
<!-- Creator: CorelDRAW 2020 (64-Bit) -->
<svg xmlns="http://www.w3.org/2000/svg" xml:space="preserve" width="284px" height="132px" version="1.1" style="shape-rendering:geometricPrecision; text-rendering:geometricPrecision; image-rendering:optimizeQuality; fill-rule:evenodd; clip-rule:evenodd"
viewBox="0 0 31.33 14.6"
 xmlns:xlink="http://www.w3.org/1999/xlink"
 xmlns:xodm="http://www.corel.com/coreldraw/odm/2003">
 <defs>
  <style type="text/css">
   <![CDATA[
    .fil1 {fill:white}
    .fil0 {fill:white;fill-rule:nonzero}
   ]]>
  </style>
 </defs>
 <g id="Capa_x0020_1">
  <metadata id="CorelCorpID_0Corel-Layer"/>
  <g id="_2317651175776">
   <polygon class="fil0" points="21.69,2.01 17.4,2.01 17.4,3.07 18.91,3.07 18.91,6.31 20.19,6.31 20.19,3.07 21.69,3.07 "/>
   <path class="fil0" d="M25.21 6.31l1.33 0 -1.96 -4.37 -1.43 0 -1.94 4.37 1.33 0 0.4 -0.95 1.85 0 0.42 0.95zm-1.82 -2.03l0.47 -1.12 0.47 1.12 -0.94 0z"/>
   <path class="fil0" d="M29.62 2.01l0 2.45c0,0.53 -0.31,0.96 -0.93,0.96 -0.63,0 -0.93,-0.43 -0.93,-0.96l0 -2.45 -1.22 0 0 2.45 0 0.01c0.01,1.09 0.97,1.98 2.15,1.98 1.18,0 2.14,-0.89 2.15,-1.98l0 -2.46 -1.22 0z"/>
   <polygon class="fil0" points="31.33,7.66 17.55,7.66 17.55,8.3 31.33,8.3 "/>
   <path class="fil0" d="M20.75 11.5c0.05,0.06 0.12,0.14 0.2,0.25 0.07,0.1 0.16,0.21 0.24,0.34 0.08,0.13 0.17,0.26 0.25,0.4 0.08,0.13 0.15,0.26 0.21,0.4l-0.51 0c-0.06,-0.12 -0.13,-0.25 -0.21,-0.37 -0.07,-0.13 -0.15,-0.25 -0.23,-0.36 -0.08,-0.12 -0.15,-0.22 -0.23,-0.32 -0.08,-0.1 -0.15,-0.19 -0.21,-0.26 -0.04,0 -0.08,0 -0.12,0l-0.56 0 0 1.3 -0.47 0 0 -3.27c0.14,-0.03 0.29,-0.05 0.44,-0.06 0.16,-0.01 0.31,-0.02 0.45,-0.02 0.47,0 0.83,0.09 1.08,0.27 0.24,0.17 0.37,0.43 0.37,0.78 0,0.21 -0.06,0.4 -0.18,0.57 -0.13,0.16 -0.31,0.29 -0.52,0.35zm-0.71 -1.56c-0.2,0 -0.35,0 -0.46,0.01l0 1.25 0.34 0c0.14,0.01 0.29,0 0.43,-0.02 0.12,-0.01 0.23,-0.04 0.33,-0.09 0.08,-0.04 0.16,-0.11 0.2,-0.19 0.06,-0.1 0.08,-0.21 0.08,-0.32 0,-0.11 -0.02,-0.22 -0.08,-0.32 -0.04,-0.08 -0.11,-0.14 -0.19,-0.19 -0.09,-0.05 -0.19,-0.09 -0.29,-0.1 -0.12,-0.02 -0.24,-0.03 -0.36,-0.03z"/>
   <path class="fil0" d="M24.39 12.89c-0.05,-0.15 -0.1,-0.29 -0.15,-0.43 -0.05,-0.14 -0.1,-0.28 -0.15,-0.42l-1.52 0 -0.31 0.85 -0.48 0c0.12,-0.35 0.25,-0.68 0.36,-0.98 0.11,-0.3 0.22,-0.58 0.33,-0.85 0.11,-0.27 0.22,-0.52 0.32,-0.77 0.11,-0.24 0.22,-0.49 0.34,-0.73l0.43 0c0.11,0.24 0.22,0.49 0.33,0.73 0.11,0.24 0.21,0.5 0.32,0.77 0.11,0.27 0.22,0.55 0.33,0.85 0.12,0.3 0.24,0.63 0.37,0.98l-0.52 0zm-0.44 -1.23c-0.1,-0.28 -0.2,-0.55 -0.3,-0.81 -0.11,-0.26 -0.21,-0.51 -0.32,-0.75 -0.11,0.24 -0.22,0.49 -0.32,0.75 -0.11,0.26 -0.21,0.53 -0.31,0.81l1.25 0z"/>
   <polygon class="fil0" points="25.36,12.89 25.36,9.56 27.41,9.56 27.41,9.96 25.83,9.96 25.83,10.95 27.23,10.95 27.23,11.34 25.83,11.34 25.83,12.49 27.53,12.49 27.53,12.89 "/>
   <polygon class="fil0" points="28.12,12.89 28.12,9.56 30.17,9.56 30.17,9.96 28.59,9.96 28.59,10.95 30,10.95 30,11.34 28.59,11.34 28.59,12.49 30.29,12.49 30.29,12.89 "/>
   <path class="fil1" d="M7.41 0c2.26,0 4.28,1.01 5.64,2.6 -1.21,0.43 -2.48,0.65 -3.77,0.65 -2.2,0 -4.36,-0.64 -6.2,-1.85 1.22,-0.88 2.72,-1.4 4.33,-1.4zm7.27 5.97c0.1,0.47 0.15,0.95 0.15,1.44 0,3.47 -2.38,6.38 -5.6,7.19 -1.28,-2.35 -1.67,-5.07 -1.1,-7.68 0.38,0.03 0.77,0.04 1.15,0.04 1.85,0.01 3.68,-0.33 5.4,-0.99zm-9.63 8.47c-2.94,-0.99 -5.05,-3.76 -5.05,-7.03 0,-1.11 0.25,-2.17 0.69,-3.12 0.86,0.6 1.78,1.1 2.75,1.51 0.33,0.13 0.67,0.26 1.01,0.38 -0.59,2.75 -0.38,5.62 0.6,8.26z"/>
  </g>
 </g>
</svg>
