<?xml version="1.0" encoding="UTF-8"?>
<!DOCTYPE svg PUBLIC "-//W3C//DTD SVG 1.1//EN" "http://www.w3.org/Graphics/SVG/1.1/DTD/svg11.dtd">
<!-- Creator: CorelDRAW 2020 (64-Bit) -->
<svg xmlns="http://www.w3.org/2000/svg" xml:space="preserve" width="178px" height="178px" version="1.1" style="shape-rendering:geometricPrecision; text-rendering:geometricPrecision; image-rendering:optimizeQuality; fill-rule:evenodd; clip-rule:evenodd"
viewBox="0 0 41.53 41.53"
 xmlns:xlink="http://www.w3.org/1999/xlink"
 xmlns:xodm="http://www.corel.com/coreldraw/odm/2003">
 <defs>
  <style type="text/css">
   <![CDATA[
    .fil1 {fill:white}
    .fil0 {fill:white;fill-rule:nonzero}
   ]]>
  </style>
 </defs>
 <g id="Capa_x0020_1">
  <metadata id="CorelCorpID_0Corel-Layer"/>
  <g id="_2317864215904">
   <path class="fil0" d="M5.35 15.79l-0.85 -0.38 -1.64 -3.5 0.56 0.05 -1.08 2.4 -1.08 -0.49 1.64 -3.61 0.85 0.38 1.63 3.49 -0.56 -0.05 1.16 -2.55 1.07 0.49 -1.7 3.77zm3.21 -5.66l-3.12 -3.26 2.66 -2.53 0.79 0.83 -1.57 1.5 1.53 1.6 1.63 -1.55 0.79 0.83 -2.71 2.58zm-0.2 -2.21l-0.75 -0.8 1.45 -1.38 0.76 0.79 -1.46 1.39zm5.09 -1.73l-1.44 -4.27 2.05 -0.69c0.4,-0.14 0.77,-0.19 1.1,-0.16 0.34,0.04 0.63,0.15 0.87,0.33 0.24,0.19 0.41,0.45 0.53,0.78 0.11,0.33 0.12,0.64 0.05,0.94 -0.08,0.29 -0.24,0.55 -0.49,0.78 -0.25,0.23 -0.57,0.41 -0.97,0.55l-1.25 0.42 0.43 -0.83 0.56 1.67 -1.44 0.48zm0.93 -1.99l-0.86 -0.44 1.17 -0.39c0.2,-0.07 0.33,-0.16 0.39,-0.28 0.07,-0.13 0.07,-0.26 0.02,-0.42 -0.05,-0.15 -0.14,-0.26 -0.26,-0.32 -0.13,-0.05 -0.29,-0.05 -0.49,0.02l-1.17 0.39 0.42 -0.86 0.78 2.3zm5.52 0.29l0.34 -4.49 3.66 0.28 -0.09 1.14 -2.17 -0.16 -0.16 2.2 2.24 0.17 -0.08 1.15 -3.74 -0.29zm1.52 -1.62l0.08 -1.1 2 0.16 -0.08 1.09 -2 -0.15zm4.67 2.55l1.86 -4.1 1.38 0.62 -1.37 3.04 1.86 0.84 -0.49 1.07 -3.24 -1.47zm5.1 2.94l3.11 -3.26 1.1 1.05 -3.11 3.26 -1.1 -1.05zm2.93 3.03l4.02 -2.06 0.57 1.11 -1.4 3.29 -0.26 -0.51 2.44 -1.25 0.68 1.31 -4.02 2.06 -0.57 -1.11 1.4 -3.29 0.26 0.51 -2.44 1.25 -0.68 -1.31z"/>
   <path class="fil0" d="M0 21.59l4.43 -0.84 0.16 0.85 -2.77 2.48 -0.08 -0.45 3.48 1.26 0.16 0.84 -4.43 0.85 -0.18 -0.96 2.95 -0.57 0.04 0.18 -2.77 -1.01 -0.09 -0.46 2.2 -1.98 0.04 0.21 -2.96 0.57 -0.18 -0.97zm3.14 9.89c-0.35,-0.53 -0.47,-1.05 -0.37,-1.54 0.1,-0.5 0.43,-0.93 0.98,-1.29l2.11 -1.38 0.58 0.87 -2.09 1.36c-0.36,0.23 -0.57,0.48 -0.63,0.73 -0.06,0.25 0,0.51 0.17,0.77 0.17,0.27 0.39,0.42 0.64,0.47 0.26,0.04 0.56,-0.05 0.92,-0.29l2.09 -1.36 0.56 0.86 -2.11 1.38c-0.56,0.37 -1.08,0.49 -1.58,0.39 -0.5,-0.11 -0.92,-0.43 -1.27,-0.97zm3.42 4.11l3.01 -3.35 0.77 0.69 -2.44 2.73 1.69 1.5 -0.57 0.64 -2.46 -2.21zm5.44 3.72l1.49 -3.34 -1.32 -0.59 0.34 -0.77 3.59 1.59 -0.34 0.78 -1.32 -0.59 -1.49 3.34 -0.95 -0.42zm5.06 1.63l0.84 -4.43 1.02 0.2 -0.84 4.42 -1.02 -0.19zm4.4 0.59l-0.84 -4.43 0.85 -0.16 2.48 2.77 -0.45 0.08 1.26 -3.47 0.84 -0.16 0.85 4.42 -0.96 0.18 -0.57 -2.95 0.18 -0.03 -1.01 2.76 -0.46 0.09 -1.98 -2.2 0.21 -0.04 0.56 2.96 -0.96 0.18zm8.16 -2.12l-2.29 -3.88 2.93 -1.73 0.43 0.72 -2.04 1.21 1.43 2.44 2.12 -1.25 0.42 0.72 -3 1.77zm-0.13 -2.1l-0.41 -0.7 1.87 -1.1 0.41 0.7 -1.87 1.1zm5.58 -1.61l-3.4 -2.96 1.34 -1.55c0.33,-0.37 0.68,-0.63 1.07,-0.79 0.38,-0.16 0.77,-0.21 1.16,-0.15 0.39,0.07 0.76,0.25 1.11,0.55 0.34,0.3 0.57,0.64 0.69,1.02 0.11,0.38 0.12,0.77 0.01,1.17 -0.1,0.41 -0.31,0.79 -0.64,1.16l-1.34 1.55zm0.04 -1.35l0.62 -0.72c0.2,-0.23 0.33,-0.46 0.39,-0.7 0.06,-0.24 0.05,-0.48 -0.03,-0.71 -0.08,-0.23 -0.22,-0.44 -0.44,-0.63 -0.21,-0.18 -0.44,-0.3 -0.68,-0.35 -0.24,-0.04 -0.47,-0.02 -0.7,0.08 -0.23,0.09 -0.45,0.25 -0.64,0.47l-0.63 0.72 2.11 1.84zm4.33 -4.83l-4.12 -1.83 0.42 -0.95 4.12 1.83 -0.42 0.95zm1.51 -3.53l-4.25 -2.51 0.12 -1.02 4.71 -1.49 -0.13 1.09 -4.14 1.18 0.04 -0.41 3.77 2.1 -0.12 1.06zm-0.85 -1.11l-0.75 -0.36 0.26 -2.3 0.82 -0.19 -0.33 2.85z"/>
   <path class="fil1" d="M21.58 22.37l0 -3.89c-3.88,0.18 -8.47,0.36 -14.11,1.94 5.64,1.6 10.23,1.76 14.11,1.95z"/>
   <path class="fil1" d="M25.22 26.35l-0.47 -0.88c1.55,-0.01 2.99,-0.23 4.32,-0.67l-0.18 0.96c-0.04,0.21 -0.04,0.29 -0.23,0.42 -0.6,0.45 -2.41,0.67 -3.11,0.46 -0.22,-0.06 -0.23,-0.11 -0.33,-0.29z"/>
   <path class="fil1" d="M22.05 18.46l0 3.96c5.9,0.21 10.18,-0.38 14.13,-2 -3.94,-1.62 -8.22,-2.16 -14.13,-1.96z"/>
   <g>
    <g>
     <path class="fil1" d="M7.47 20.42l0.01 0c5.07,-1.81 9.76,-2.84 14.08,-2.99l0 -1.64c-4.24,0.38 -8.94,1.92 -14.09,4.63z"/>
     <path class="fil1" d="M22.03 17.42c5.98,-0.04 9.89,0.61 14.15,3l0 0c-3.82,-3.69 -8.66,-4.92 -14.15,-4.65l0 1.65z"/>
    </g>
    <g>
     <path class="fil1" d="M7.47 20.42l0.01 0c5.07,1.82 9.76,2.84 14.08,3l0 1.64c-4.24,-0.38 -8.94,-1.93 -14.09,-4.64z"/>
     <path class="fil1" d="M22.03 23.43c5.98,0.03 9.89,-0.61 14.15,-3.01l0 0c-3.82,3.69 -8.66,4.92 -14.15,4.65l0 -1.64z"/>
    </g>
   </g>
   <g>
    <path class="fil1" d="M18.29 15.7c-3.48,0.78 -6.84,1.99 -10.07,3.64 -1.12,-1.07 -1.19,-3.32 -0.92,-4.73 3.75,-0.96 7.52,-0.82 10.99,1.09z"/>
    <path class="fil1" d="M18.29 25.15c-3.48,-0.78 -6.84,-2 -10.07,-3.64 -1.12,1.07 -1.19,3.32 -0.92,4.72 3.75,0.97 7.52,0.82 10.99,-1.08z"/>
   </g>
  </g>
 </g>
</svg>
