<?xml version="1.0" encoding="UTF-8"?>
<!DOCTYPE svg PUBLIC "-//W3C//DTD SVG 1.1//EN" "http://www.w3.org/Graphics/SVG/1.1/DTD/svg11.dtd">
<!-- Creator: CorelDRAW 2020 (64-Bit) -->
<svg xmlns="http://www.w3.org/2000/svg" xml:space="preserve" width="271px" height="155px" version="1.1" style="shape-rendering:geometricPrecision; text-rendering:geometricPrecision; image-rendering:optimizeQuality; fill-rule:evenodd; clip-rule:evenodd"
viewBox="0 0 18.08 10.33"
 xmlns:xlink="http://www.w3.org/1999/xlink"
 xmlns:xodm="http://www.corel.com/coreldraw/odm/2003">
 <defs>
  <style type="text/css">
   <![CDATA[
    .fil0 {fill:gray}
   ]]>
  </style>
 </defs>
 <g id="Capa_x0020_1">
  <metadata id="CorelCorpID_0Corel-Layer"/>
  <path class="fil0" d="M8.22 2.51c0.32,0.24 0.56,0.47 0.53,0.51 -0.03,0.04 -0.31,-0.13 -0.63,-0.37 -0.32,-0.24 -0.56,-0.46 -0.53,-0.5 0.03,-0.04 0.31,0.12 0.63,0.36zm4.99 2.85c0.35,-0.01 0.69,0.01 0.69,0.07 0,0.07 -0.33,0.14 -0.68,0.15 -0.35,0.01 -0.63,-0.03 -0.63,-0.09 0,-0.07 0.28,-0.13 0.62,-0.13zm-1.74 -0.28c0,0 -0.11,-0.11 -0.31,-0.21 -0.37,-0.19 -2.57,0.63 -2.74,0.8 -0.26,0.25 -1.08,1.05 -1.26,1.28 0.21,-0.01 0.93,-0.29 1.16,-0.36 1.04,-0.39 1.49,-0.58 2.5,-1.13 0.09,-0.04 0.44,-0.25 0.65,-0.38zm0.1 0.06c0.11,0.06 0.28,0.17 0.41,0.26l-1.56 0.48c0.04,-0.14 0.64,-0.46 1.15,-0.74zm2.27 -1.3l0.71 -0.31c1.21,-0.46 1.6,-0.59 2.66,-0.89 0.17,-0.05 0.67,-0.16 0.87,-0.23 -0.31,-0.03 -0.92,0.18 -1.4,0.3 -0.22,0.05 -1.08,0.35 -1.27,0.35 0.04,-0.15 0.57,-0.43 1.07,-0.68 0.23,-0.12 1.32,-0.66 1.15,-1.03 -0.06,-0.12 -0.31,-0.15 -0.73,-0.09 -1.63,0.26 -3.54,1.41 -5.19,1.81 -0.15,0.04 -0.47,0.09 -0.49,0.03 -0.06,-0.1 0.36,-0.35 0.52,-0.46 0.65,-0.44 1.39,-0.85 2.08,-1.26 0.79,-0.47 1.61,-0.91 2.41,-1.38 -0.29,0 -1.79,0.86 -2.99,1.57 -0.23,0.14 -2.19,1.25 -2.19,1.55 0,0.18 0.29,0.16 0.68,0.06 0.91,-0.23 2.03,-0.76 2.94,-1.11 0.5,-0.15 1.53,-0.6 2.29,-0.7 0.55,-0.07 0.75,0.05 0.21,0.45 -0.33,0.24 -0.85,0.47 -1.06,0.6l-0.63 0.38c-1.44,0.89 -2.76,1.21 -4.36,1.76 -0.25,0.07 -0.41,-0.12 -0.64,-0.29 -0.32,-0.22 -0.68,-0.51 -0.99,-0.69 -0.38,-0.24 -0.32,-0.21 -0.65,-0.64 -0.42,-0.53 -0.71,-0.68 -1.29,-0.97 -0.26,-0.1 -0.31,-0.01 -0.14,0.21 0.26,0.33 0.9,0.75 1.27,1.01 0.23,0.15 0.34,0.21 0.39,0.51 0.07,0.47 -0.19,1.17 -0.51,1.54 -0.21,0.25 -0.49,0.36 -0.93,0.5 -1.19,0.39 -4.57,1.44 -6.4,2.17 -1.91,0.75 -1.42,1.14 0.26,0.77 1.68,-0.37 4.23,-1.37 5.03,-1.39 -0.04,0.16 -0.29,0.32 -0.44,0.41l-0.75 0.57c-0.38,0.27 -3.24,2.06 -3.24,2.06 0.28,0.12 5.88,-3.24 6.56,-3.61 1,-0.45 3.23,-1.43 4.03,-1.1 0.34,0.06 0.95,0.11 1.27,-0.08 0.12,-0.07 0.11,-0.15 -0.01,-0.23 -0.11,-0.05 -0.26,-0.05 -0.4,-0.05 -0.74,0 -1.22,0.28 -1.88,-0.16 0.14,-0.28 1.81,-1.08 2.18,-1.26zm-2.31 1.18c-0.06,-0.04 -0.26,-0.19 -0.36,-0.32 0.37,-0.08 1.49,-0.56 1.82,-0.57 -0.08,0.12 -0.38,0.3 -0.52,0.37 -0.23,0.12 -0.72,0.39 -0.94,0.52zm-6.21 3.48c0.09,-0.15 0.93,-0.75 1.03,-0.84 0.61,-0.57 1.34,-0.84 2.2,-1 0,0.01 -2.94,1.68 -3.23,1.84zm-5.11 0.12c-0.13,-0.25 6.91,-2.79 7.8,-2.81 -0.06,0.22 -0.57,0.75 -0.77,0.92 -0.45,0.41 -0.92,0.48 -1.74,0.7 -0.73,0.21 -5.13,1.55 -5.29,1.19zm10.41 -3.98c-0.18,0.27 -1.69,0.66 -1.87,0.66 0.17,-0.46 0.47,-0.77 0.46,-1.68 0.19,0.02 1.35,0.8 1.41,1.02z"/>
 </g>
</svg>
