<?xml version="1.0" encoding="UTF-8"?>
<!DOCTYPE svg PUBLIC "-//W3C//DTD SVG 1.1//EN" "http://www.w3.org/Graphics/SVG/1.1/DTD/svg11.dtd">
<!-- Creator: CorelDRAW 2020 (64-Bit) -->
<svg xmlns="http://www.w3.org/2000/svg" xml:space="preserve" width="64px" height="64px" version="1.1" style="shape-rendering:geometricPrecision; text-rendering:geometricPrecision; image-rendering:optimizeQuality; fill-rule:evenodd; clip-rule:evenodd"
viewBox="0 0 2.32 2.32"
 xmlns:xlink="http://www.w3.org/1999/xlink"
 xmlns:xodm="http://www.corel.com/coreldraw/odm/2003">
 <defs>
  <style type="text/css">
   <![CDATA[
    .fil0 {fill:#637792}
   ]]>
  </style>
 </defs>
 <g id="Capa_x0020_1">
  <metadata id="CorelCorpID_0Corel-Layer"/>
  <path class="fil0" d="M0.19 0l1.94 0c0.1,0 0.19,0.08 0.19,0.19l0 1.94c0,0.1 -0.09,0.19 -0.19,0.19l-1.94 0c-0.11,0 -0.19,-0.09 -0.19,-0.19l0 -1.94c0,-0.11 0.08,-0.19 0.19,-0.19zm0.75 0.76l0 0.12c0,0.01 0.01,0.01 0.01,0.02l0.01 0.13c0,0.03 0,0.05 0.01,0.07 0.01,0.12 0.04,0.25 0.07,0.36 0.01,0.08 0.03,0.16 0.06,0.23l0.02 0.09c0,0.01 0.01,0.02 0.01,0.03l0.05 0 0.05 -0.17c0.01,-0.02 0.01,-0.04 0.02,-0.06 0.01,-0.07 0.03,-0.14 0.04,-0.21 0.01,-0.01 0.01,-0.02 0.01,-0.03 0.02,-0.09 0.05,-0.28 0.06,-0.38 0.01,-0.16 0.01,-0.36 -0.04,-0.5 -0.01,-0.06 -0.04,-0.11 -0.07,-0.15 -0.01,-0.01 -0.01,-0.01 -0.03,-0.02 -0.04,-0.04 -0.08,-0.04 -0.13,0 -0.05,0.03 -0.08,0.11 -0.1,0.16 -0.02,0.04 -0.03,0.09 -0.03,0.14 -0.01,0.03 -0.02,0.1 -0.02,0.12 0,0.02 0,0.03 0,0.05zm0.28 1.05c0,-0.01 0.02,-0.03 0.03,-0.04l0.05 -0.06c0.04,-0.04 0.07,-0.09 0.1,-0.14 0.01,-0.01 0.01,-0.01 0.02,-0.02l0.05 -0.1c0.09,-0.15 0.19,-0.39 0.22,-0.56 0.01,-0.1 0.01,-0.17 -0.02,-0.26 -0.01,-0.03 -0.02,-0.06 -0.03,-0.1 -0.02,-0.03 -0.05,-0.07 -0.07,-0.1 -0.01,-0.01 -0.04,-0.04 -0.05,-0.05 -0.01,0 -0.01,-0.01 -0.01,-0.01 -0.03,-0.02 -0.04,-0.03 -0.07,-0.05 -0.01,0 -0.01,-0.01 -0.02,-0.01 -0.02,-0.01 -0.09,-0.04 -0.11,-0.04 -0.01,-0.01 -0.03,-0.01 -0.05,-0.01 0,0 0,0 0,0 0.01,0 0.01,0 0.02,0.01 0.01,0 0.01,0 0.01,0.01 0.01,0 0.01,0 0.01,0 0.03,0.02 0.05,0.04 0.08,0.06 0,0 0,0.01 0.01,0.01l0.02 0.03c0.02,0.01 0.05,0.06 0.06,0.08l0.02 0.04c0.03,0.07 0.04,0.13 0.05,0.2 0.01,0.02 0.01,0.05 0.01,0.07 0,0.01 0,0 0,0.03l0 0.03c0,0.01 0,0.01 0,0.02 0,0.01 -0.01,0.02 -0.01,0.03 0,0.09 -0.04,0.24 -0.07,0.33 0,0.01 0,0.02 0,0.03 -0.02,0.05 -0.04,0.1 -0.06,0.15 0,0.02 -0.01,0.03 -0.02,0.05l-0.06 0.14c-0.01,0.03 -0.04,0.08 -0.05,0.12 -0.01,0 -0.01,0 -0.01,0.01 0,0 0,0 -0.01,0.01l-0.02 0.04c0,0.01 -0.01,0.02 -0.01,0.02l-0.01 0.03zm-0.12 0l-0.11 -0.21c-0.01,-0.03 -0.03,-0.07 -0.04,-0.1l-0.03 -0.06c-0.05,-0.13 -0.08,-0.21 -0.11,-0.35 -0.01,-0.04 -0.02,-0.1 -0.03,-0.14 -0.02,-0.16 -0.02,-0.32 0.05,-0.46 0.02,-0.05 0.04,-0.08 0.07,-0.11 0.02,-0.02 0.02,-0.02 0.04,-0.04 0.03,-0.03 0.08,-0.06 0.11,-0.08l0.01 0c-0.04,0 -0.14,0.04 -0.18,0.06 -0.01,0.01 -0.03,0.02 -0.04,0.03l-0.05 0.04c-0.02,0.01 -0.03,0.02 -0.04,0.04 -0.01,0.01 -0.04,0.05 -0.05,0.07 0,0 0,0.01 -0.01,0.01 0,0 0,0.01 0,0.01 -0.03,0.05 -0.05,0.1 -0.06,0.16 0,0.02 -0.01,0.06 -0.01,0.09 0,0 0,0.01 0,0.01 0,0.02 0,0.06 0,0.08 0.01,0.04 0.02,0.12 0.04,0.16 0.02,0.08 0.05,0.15 0.08,0.22 0.02,0.06 0.05,0.11 0.07,0.16l0.11 0.18 0.04 0.06c0.02,0.03 0.06,0.08 0.08,0.1l0.01 0.02c0,0 0.01,0.01 0.01,0.01 0.01,0.01 0.01,0.01 0.02,0.02 0,0 0.01,0 0.01,0.01 0,0 0.01,0 0.01,0.01zm-0.04 0.25l0.19 0c0,-0.01 0.01,-0.02 0.01,-0.02l0.03 -0.14 -0.27 0c0,0 0,0.01 0.01,0.02l0.01 0.06c0,0.01 0.01,0.03 0.01,0.04l0 0.03c0.01,0.01 0,0.01 0.01,0.01zm0.47 -1.72l0 0 0 0 0 0 0.05 0.04c0.01,0 0.01,0 0.01,0l0.04 0.05c0.01,0 0.01,0 0.01,0.01 0.01,0.01 0.03,0.03 0.04,0.04 0.02,0.03 0.02,0.04 0.04,0.08 0.06,0.13 0.04,0.27 0.01,0.4 -0.01,0.08 -0.06,0.2 -0.09,0.26l-0.03 0.06c-0.01,0.03 -0.03,0.06 -0.05,0.09l-0.02 0.04c-0.02,0.03 -0.04,0.07 -0.06,0.1 -0.01,0.01 -0.02,0.03 -0.03,0.05l-0.04 0.06c-0.02,0.02 -0.06,0.07 -0.08,0.09l-0.05 0.08 -0.01 0 0.01 0 0 0c0,0 0.03,-0.03 0.03,-0.03 0.02,-0.02 0.07,-0.08 0.09,-0.11l0.07 -0.08c0.01,-0.02 0.02,-0.03 0.03,-0.05 0.03,-0.03 0.06,-0.09 0.09,-0.12 0.01,-0.02 0.02,-0.03 0.02,-0.05l0.02 -0.03c0.02,-0.03 0.03,-0.05 0.05,-0.08l0.04 -0.1c0,-0.01 0.01,-0.01 0.01,-0.02 0.04,-0.11 0.08,-0.23 0.08,-0.35l0 -0.06c-0.01,-0.07 -0.03,-0.11 -0.06,-0.16 -0.01,-0.03 -0.03,-0.06 -0.05,-0.08 0,0 0,0 0,0l-0.04 -0.04c0,-0.01 0,-0.01 -0.01,-0.01 0,-0.01 0,-0.01 -0.01,-0.01 0,0 0,-0.01 -0.01,-0.01 0,0 0,0 -0.01,-0.01 0,0 0,0 -0.01,0 0,-0.01 0,-0.01 -0.01,-0.01 -0.01,-0.01 -0.05,-0.04 -0.07,-0.04zm-0.75 0l0 0 0 0 0 0c-0.01,0 -0.03,0.02 -0.04,0.02l-0.08 0.07 -0.03 0.02c-0.03,0.04 -0.07,0.1 -0.09,0.14 -0.07,0.18 -0.02,0.36 0.05,0.53 0.01,0.02 0.04,0.1 0.06,0.13l0.01 0.03c0.01,0.01 0.01,0.02 0.02,0.03l0.13 0.2c0.03,0.05 0.07,0.1 0.1,0.14l0.04 0.05c0,0 0,0 0,0 0.03,0.03 0.05,0.05 0.07,0.07 0.01,0.01 0.01,0.01 0.01,0.01 0.01,0.01 0.01,0.01 0.01,0.01 0,0 -0.05,-0.06 -0.06,-0.07 -0.02,-0.04 -0.05,-0.07 -0.07,-0.1 -0.04,-0.06 -0.07,-0.1 -0.11,-0.16 -0.02,-0.04 -0.04,-0.08 -0.06,-0.11 0,-0.01 -0.01,-0.01 -0.01,-0.02 0,-0.01 -0.01,-0.02 -0.01,-0.03l-0.04 -0.06c-0.01,-0.03 -0.03,-0.07 -0.04,-0.1 -0.03,-0.07 -0.05,-0.15 -0.07,-0.23 -0.02,-0.14 -0.02,-0.27 0.05,-0.39 0.03,-0.06 0.07,-0.1 0.11,-0.14l0.05 -0.04z"/>
 </g>
</svg>
