<?xml version="1.0" encoding="UTF-8"?>
<!DOCTYPE svg PUBLIC "-//W3C//DTD SVG 1.1//EN" "http://www.w3.org/Graphics/SVG/1.1/DTD/svg11.dtd">
<!-- Creator: CorelDRAW 2020 (64-Bit) -->
<svg xmlns="http://www.w3.org/2000/svg" xml:space="preserve" width="64px" height="64px" version="1.1" style="shape-rendering:geometricPrecision; text-rendering:geometricPrecision; image-rendering:optimizeQuality; fill-rule:evenodd; clip-rule:evenodd"
viewBox="0 0 2.32 2.32"
 xmlns:xlink="http://www.w3.org/1999/xlink"
 xmlns:xodm="http://www.corel.com/coreldraw/odm/2003">
 <defs>
  <style type="text/css">
   <![CDATA[
    .fil0 {fill:#637792}
   ]]>
  </style>
 </defs>
 <g id="Capa_x0020_1">
  <metadata id="CorelCorpID_0Corel-Layer"/>
  <path class="fil0" d="M0.19 0l1.94 0c0.1,0 0.19,0.08 0.19,0.19l0 1.94c0,0.1 -0.09,0.19 -0.19,0.19l-1.94 0c-0.11,0 -0.19,-0.09 -0.19,-0.19l0 -1.94c0,-0.11 0.08,-0.19 0.19,-0.19zm0.33 0.53c0,-0.18 0.14,-0.32 0.31,-0.32l0.32 0 0 0.63 0 0.63 0 0.32c0,0.17 -0.14,0.32 -0.32,0.32l0 0c-0.17,0 -0.31,-0.15 -0.31,-0.32 0,-0.17 0.14,-0.32 0.31,-0.32 -0.17,0 -0.31,-0.14 -0.31,-0.31l0 0c0,-0.18 0.14,-0.32 0.31,-0.32 -0.17,0 -0.31,-0.14 -0.31,-0.31zm1.28 0.63c0,0.17 -0.14,0.31 -0.31,0.31 -0.18,0 -0.32,-0.14 -0.32,-0.31 0,-0.18 0.14,-0.32 0.32,-0.32l-0.32 0 0 -0.63 0.32 0c0.17,0 0.31,0.14 0.31,0.32 0,0.17 -0.14,0.31 -0.31,0.31 0.17,0 0.31,0.14 0.31,0.32z"/>
 </g>
</svg>
