<?xml version="1.0" encoding="UTF-8"?>
<!DOCTYPE svg PUBLIC "-//W3C//DTD SVG 1.1//EN" "http://www.w3.org/Graphics/SVG/1.1/DTD/svg11.dtd">
<!-- Creator: CorelDRAW 2020 (64-Bit) -->
<svg xmlns="http://www.w3.org/2000/svg" xml:space="preserve" width="64px" height="64px" version="1.1" style="shape-rendering:geometricPrecision; text-rendering:geometricPrecision; image-rendering:optimizeQuality; fill-rule:evenodd; clip-rule:evenodd"
viewBox="0 0 2.32 2.32"
 xmlns:xlink="http://www.w3.org/1999/xlink"
 xmlns:xodm="http://www.corel.com/coreldraw/odm/2003">
 <defs>
  <style type="text/css">
   <![CDATA[
    .fil0 {fill:#637792}
   ]]>
  </style>
 </defs>
 <g id="Capa_x0020_1">
  <metadata id="CorelCorpID_0Corel-Layer"/>
  <path class="fil0" d="M0.19 0l1.94 0c0.1,0 0.19,0.08 0.19,0.19l0 1.94c0,0.1 -0.09,0.19 -0.19,0.19l-1.94 0c-0.11,0 -0.19,-0.09 -0.19,-0.19l0 -1.94c0,-0.11 0.08,-0.19 0.19,-0.19zm1.04 0.27l0.82 0.82c0.04,0.04 0.04,0.1 0,0.14l-0.82 0.82c-0.04,0.04 -0.1,0.04 -0.14,0l-0.82 -0.82c-0.04,-0.04 -0.04,-0.1 0,-0.14l0.56 -0.56 0.2 0.2c-0.01,0.02 -0.01,0.04 -0.01,0.06 0,0.05 0.03,0.1 0.08,0.12l0 0.5c-0.04,0.03 -0.08,0.07 -0.08,0.13 0,0.08 0.06,0.14 0.14,0.14 0.08,0 0.14,-0.06 0.14,-0.14 0,-0.06 -0.03,-0.1 -0.08,-0.13l0 -0.49 0.19 0.19c-0.01,0.02 -0.01,0.03 -0.01,0.05 0,0.08 0.06,0.14 0.14,0.14 0.07,0 0.14,-0.06 0.14,-0.14 0,-0.08 -0.07,-0.14 -0.14,-0.14 -0.02,0 -0.04,0 -0.05,0.01l-0.2 -0.2c0.01,-0.01 0.01,-0.03 0.01,-0.04 0,-0.08 -0.06,-0.14 -0.14,-0.14 -0.02,0 -0.03,0 -0.05,0l-0.2 -0.2 0.18 -0.18c0.04,-0.04 0.1,-0.04 0.14,0z"/>
 </g>
</svg>
