<?xml version="1.0" encoding="UTF-8"?>
<!DOCTYPE svg PUBLIC "-//W3C//DTD SVG 1.1//EN" "http://www.w3.org/Graphics/SVG/1.1/DTD/svg11.dtd">
<!-- Creator: CorelDRAW 2020 (64-Bit) -->
<svg xmlns="http://www.w3.org/2000/svg" xml:space="preserve" width="64px" height="64px" version="1.1" style="shape-rendering:geometricPrecision; text-rendering:geometricPrecision; image-rendering:optimizeQuality; fill-rule:evenodd; clip-rule:evenodd"
viewBox="0 0 2.32 2.32"
 xmlns:xlink="http://www.w3.org/1999/xlink"
 xmlns:xodm="http://www.corel.com/coreldraw/odm/2003">
 <defs>
  <style type="text/css">
   <![CDATA[
    .fil0 {fill:#637792}
   ]]>
  </style>
 </defs>
 <g id="Capa_x0020_1">
  <metadata id="CorelCorpID_0Corel-Layer"/>
  <path class="fil0" d="M0.19 0l1.94 0c0.1,0 0.19,0.08 0.19,0.19l0 1.94c0,0.1 -0.09,0.19 -0.19,0.19l-1.94 0c-0.11,0 -0.19,-0.09 -0.19,-0.19l0 -1.94c0,-0.11 0.08,-0.19 0.19,-0.19zm1.47 2.03c0.77,-0.47 0.54,-1.69 -0.34,-1.83 -0.59,-0.09 -1.07,0.35 -1.12,0.87 -0.05,0.4 0.14,0.77 0.48,0.98 0.06,0.03 0.12,0.06 0.19,0.08 0.01,0 0.02,0 0.02,0 0.04,-0.02 0.03,-0.06 0.03,-0.11 0,-0.04 0,-0.08 0,-0.13 -0.13,0.02 -0.23,0.02 -0.3,-0.07 -0.04,-0.04 -0.06,-0.13 -0.12,-0.18 -0.03,-0.02 -0.05,-0.02 -0.05,-0.05 0.03,-0.04 0.1,-0.01 0.13,0.01 0.07,0.06 0.07,0.15 0.19,0.18 0.04,0.01 0.11,0 0.15,-0.02 0.01,-0.02 0.01,-0.06 0.02,-0.08 0.01,-0.03 0.03,-0.04 0.04,-0.06 -0.09,-0.01 -0.18,-0.03 -0.25,-0.07 -0.2,-0.12 -0.24,-0.46 -0.13,-0.64 0.02,-0.02 0.03,-0.03 0.04,-0.04 -0.01,-0.06 -0.02,-0.08 -0.02,-0.14 0,-0.04 0.01,-0.1 0.03,-0.13 0.08,-0.01 0.18,0.05 0.24,0.08 0.02,0.02 0.02,0.03 0.05,0.02 0.02,-0.01 0.04,-0.01 0.07,-0.02 0.1,-0.01 0.2,-0.01 0.3,0 0.1,0.02 0.08,0.03 0.12,0.01 0.05,-0.04 0.16,-0.1 0.24,-0.09 0.02,0.03 0.03,0.09 0.03,0.13 0,0.06 -0.01,0.08 -0.02,0.14 0.06,0.06 0.09,0.12 0.1,0.22 0.01,0.1 -0.01,0.21 -0.04,0.28 -0.07,0.16 -0.2,0.23 -0.4,0.25 0,0.01 0.02,0.03 0.02,0.03 0.03,0.05 0.04,0.1 0.04,0.15 0,0.22 -0.02,0.32 0.04,0.33 0.08,-0.02 0.15,-0.06 0.22,-0.1z"/>
 </g>
</svg>
