<?xml version="1.0" encoding="UTF-8"?>
<!DOCTYPE svg PUBLIC "-//W3C//DTD SVG 1.1//EN" "http://www.w3.org/Graphics/SVG/1.1/DTD/svg11.dtd">
<!-- Creator: CorelDRAW 2020 (64-Bit) -->
<svg xmlns="http://www.w3.org/2000/svg" xml:space="preserve" width="64px" height="64px" version="1.1" style="shape-rendering:geometricPrecision; text-rendering:geometricPrecision; image-rendering:optimizeQuality; fill-rule:evenodd; clip-rule:evenodd"
viewBox="0 0 1.51 1.51"
 xmlns:xlink="http://www.w3.org/1999/xlink"
 xmlns:xodm="http://www.corel.com/coreldraw/odm/2003">
 <defs>
  <style type="text/css">
   <![CDATA[
    .fil0 {fill:#637792}
   ]]>
  </style>
 </defs>
 <g id="Capa_x0020_1">
  <metadata id="CorelCorpID_0Corel-Layer"/>
  <path class="fil0" d="M0.12 0l1.27 0c0.06,0 0.12,0.05 0.12,0.12l0 1.27c0,0.06 -0.06,0.12 -0.12,0.12l-1.27 0c-0.07,0 -0.12,-0.06 -0.12,-0.12l0 -1.27c0,-0.07 0.05,-0.12 0.12,-0.12zm0.64 0.76l0 0.43c0,0.05 -0.02,0.08 -0.07,0.08 -0.04,0 -0.07,-0.03 -0.08,-0.06 -0.01,0 -0.02,0.01 -0.03,0.01l-0.08 0.05c0.01,0.02 0.02,0.04 0.04,0.05 0.01,0.02 0.02,0.03 0.04,0.04 0.04,0.02 0.1,0.03 0.15,0.02 0.1,-0.01 0.15,-0.08 0.15,-0.19l0 -0.43 -0.12 0zm0.24 0.11c-0.02,0.06 0,0.12 0.02,0.16 0.04,0.05 0.12,0.08 0.18,0.11 0.03,0.01 0.05,0.02 0.06,0.04 0.03,0.04 0,0.1 -0.09,0.09 -0.02,0 -0.05,-0.01 -0.07,-0.02 -0.01,-0.01 -0.02,-0.02 -0.02,-0.03 -0.01,-0.01 -0.02,-0.02 -0.02,-0.02 0,0 0,0 0,0l-0.11 0.06c0.01,0.01 0.03,0.04 0.04,0.05 0.06,0.06 0.14,0.08 0.22,0.07 0.12,-0.01 0.2,-0.08 0.18,-0.2 -0.01,-0.12 -0.11,-0.15 -0.2,-0.19 -0.03,-0.01 -0.05,-0.02 -0.06,-0.04 -0.02,-0.02 -0.01,-0.05 0,-0.07 0.03,-0.02 0.08,-0.02 0.11,0.01 0,0 0.01,0 0.01,0.01 0,0.01 0.01,0.01 0.01,0.02 0.01,-0.01 0.04,-0.03 0.05,-0.04 0.01,0 0.05,-0.02 0.05,-0.03 -0.01,-0.02 -0.05,-0.06 -0.07,-0.07 -0.09,-0.05 -0.26,-0.04 -0.29,0.09z"/>
 </g>
</svg>
