<?xml version="1.0" encoding="UTF-8"?>
<!DOCTYPE svg PUBLIC "-//W3C//DTD SVG 1.1//EN" "http://www.w3.org/Graphics/SVG/1.1/DTD/svg11.dtd">
<!-- Creator: CorelDRAW 2020 (64-Bit) -->
<svg xmlns="http://www.w3.org/2000/svg" xml:space="preserve" width="64px" height="64px" version="1.1" style="shape-rendering:geometricPrecision; text-rendering:geometricPrecision; image-rendering:optimizeQuality; fill-rule:evenodd; clip-rule:evenodd"
viewBox="0 0 18.32 18.32"
 xmlns:xlink="http://www.w3.org/1999/xlink"
 xmlns:xodm="http://www.corel.com/coreldraw/odm/2003">
 <defs>
  <style type="text/css">
   <![CDATA[
    .fil0 {fill:#637792}
   ]]>
  </style>
 </defs>
 <g id="Capa_x0020_1">
  <metadata id="CorelCorpID_0Corel-Layer"/>
  <path class="fil0" d="M1.47 0l15.38 0c0.81,0 1.47,0.66 1.47,1.47l0 15.38c0,0.81 -0.66,1.47 -1.47,1.47l-15.38 0c-0.81,0 -1.47,-0.66 -1.47,-1.47l0 -15.38c0,-0.81 0.66,-1.47 1.47,-1.47zm6.68 5.02l0.02 0 0.02 0 0.02 0 0.01 0.01 0.02 0 0.02 0 0.02 0 0.01 0 0.02 0 0.02 0 0.02 0 0.02 0 0.01 0 0.02 0 0 0 0.02 0 0.02 0.01 0.01 0 0.02 0 0.02 0 0 0 0.02 0 0.02 0 0.01 0.01 0.02 0 0.02 0 0.02 0 0 0 0.02 0.01 0 0 0.01 0 0 0 0.02 0 0.02 0 0.02 0.01 0.01 0 0.02 0 0.02 0 0.02 0.01 0.01 0 0.01 0 0.01 0 0 0 0.02 0.01 0 0 0.02 0 0 0 0.02 0 0.01 0.01 0.02 0 0.02 0.01 0 0 0.02 0 0 0 0.01 0 0.02 0.01 0 0 0.02 0 0 0 0.02 0.01 0.01 0 0 0 0.02 0.01 0.02 0 0 0 0.02 0 0.01 0.01 0 0 0.02 0 0.02 0.01 0.02 0 0.01 0.01 0.02 0 0.02 0.01 0 0 0.02 0.01 0.01 0 0.02 0.01 0.02 0 0.02 0.01 0.01 0 0.01 0.01 0 0 0 0 0.01 0 0 0 0 0 0 0 0.01 0 0 0 0 0.01 0.01 0 0 0 0.01 0 0 0 0 0.01 0.01 0 0 0 0 0 0.01 0 0 0 0.03 0.02c0.27,0.13 1.13,0.58 1.72,1.56 0.36,0.59 0.63,1.37 0.63,2.37 0,1.68 -0.76,2.71 -1.42,3.3l0.02 0 0.01 0 0.02 -0.01 0 0 0.02 0 0.01 0 0.01 0 0.02 0 0.01 0 0.01 -0.01 0.01 0 0.02 0 0 0 0.03 0 0.02 -0.01 0.01 0 0.04 -0.01 0.01 0 0.01 0 0.04 -0.01 0.01 0 0.02 -0.01 0 0 0.03 0 0 0 0.02 -0.01 0 0 0.02 -0.01 0.01 0 0.02 0 0.01 0 0.01 -0.01 0.02 0 0 -0.01 0.02 0 0.01 0 0.02 -0.01 0 0 0.05 -0.01 0 -0.01 0.03 -0.01 0.02 0 0.04 -0.01 0 -0.01 0.12 -0.04 0.01 -0.01 0.02 0 0.01 -0.01 0.01 0c0.22,-0.1 0.43,-0.22 0.64,-0.37l0.02 -0.02 0.01 0 0.02 -0.02 0 0 0.02 -0.01 0.01 -0.01 0.02 -0.01 0 -0.01 0.02 -0.01 0.01 -0.01 0.02 -0.01 0.01 -0.01 0.01 -0.01 0.01 -0.01 0.02 -0.01 0.01 -0.01 0.01 -0.01 0.01 -0.01 0.02 -0.02 0.02 -0.02 0.01 0 0.02 -0.02 0.01 -0.01 0.01 -0.01 0.01 -0.01 0.02 -0.01 0 -0.01 0.02 -0.01 0.01 -0.01 0.01 -0.02 0.01 -0.01 0.02 -0.01 0.01 -0.01 0.01 -0.01 0.01 -0.01 0.01 -0.02 0.01 -0.01 0.02 -0.01 0.01 -0.01 0.01 -0.01 0.01 -0.01 0.01 -0.02 0.02 -0.01 0.01 -0.01 0.01 -0.01 0.01 -0.02 0.01 -0.01 0.01 -0.01 0.01 -0.01 0.02 -0.02 0.01 -0.01 0.01 -0.01 0.01 -0.02 0.01 -0.01 0.01 -0.01 0.01 -0.01 0.01 -0.02 0.01 -0.01 0.02 -0.02 0.01 -0.01 0.01 -0.01 0.01 -0.01 0.01 -0.02 0.01 -0.01 0.01 -0.02 0.01 -0.01 0.01 -0.01 0.01 -0.01 0.01 -0.02 0.01 -0.01 0.02 -0.02 0 -0.01 0.02 -0.02 0 -0.01 0.02 -0.02 0 -0.01 0.02 -0.02 0 -0.01 0.02 -0.02 0 0 0.02 -0.03 0 0 0.02 -0.02 0 -0.01 0.02 -0.02 0 -0.01 0.02 -0.02 0 -0.01 0.02 -0.03 0 0 0.02 -0.03 0 0 0.01 -0.03 0.01 0 0.01 -0.03 0.01 0 0.01 -0.03 0.01 0 0.01 -0.03 0 -0.01 0.02 -0.02 0 -0.01 0.02 -0.02 0 -0.01 0.01 -0.03 0.01 0 0.01 -0.03 0 0 0.02 -0.03 0 -0.01 0.02 -0.03 0 0 0.01 -0.03 0 0 0.02 -0.03 0 0 0.02 -0.04 0 0 0.01 -0.03 0 0 0.02 -0.03 0 -0.01 0.01 -0.03 0 0 0.02 -0.03 0 0 0.01 -0.04c0.25,-0.57 0.39,-1.24 0.39,-2 0,-1.44 -0.36,-2.96 -1.19,-4.11 -0.75,-1 -1.7,-1.49 -2.41,-1.69l-0.04 -0.01 -0.02 0 0 0 -0.01 0 0 0 0 -0.01 -0.01 0 0 0 -0.01 0 0 0 -0.01 0 0 0 -0.01 0 0 0 0 0 0 -0.01c-0.12,-0.01 -0.24,-0.03 -0.35,-0.04l-0.11 -0.01 0 0 -0.01 0 0 0 -0.01 0 0 0 -0.17 -0.01 0 0 -0.01 0 -0.01 0 0 0 0 0 -0.01 0 -0.02 0c-1.81,0 -3.58,0.78 -4.87,2.07 -1.22,1.22 -2.01,2.9 -2.01,4.83 0,2.01 0.8,3.62 1.94,4.76 0.31,0.31 0.64,0.58 0.99,0.82 -0.37,-0.48 -0.63,-1.05 -0.83,-1.71 -0.26,-0.79 -0.42,-1.73 -0.42,-2.85 0,-0.79 0.13,-1.49 0.34,-2.11 0.33,-0.97 0.9,-1.73 1.57,-2.25l0.04 -0.03 0.03 -0.02 0 0 0.03 -0.02 0 0 0.03 -0.03 0.04 -0.02 0.03 -0.02 0 0 0.03 -0.02 0.04 -0.03 0.03 -0.02 0 0 0.03 -0.02 0 0 0.04 -0.02 0.03 -0.02 0.04 -0.02 0 0 0.03 -0.02 0.04 -0.02 0.03 -0.02 0 0 0.03 -0.02 0 0 0.04 -0.02 0.03 -0.01 0 0 0.04 -0.02 0 0 0.03 -0.02 0.04 -0.01 0 -0.01 0.04 -0.01 0 0 0.03 -0.02 0 0 0.04 -0.01 0.03 -0.02 0 0 0.04 -0.01 0 0 0.03 -0.02 0 0 0.04 -0.01 0.04 -0.01 0 -0.01 0.03 -0.01 0.04 -0.01 0.04 -0.01 0.03 -0.02 0 0 0.04 -0.01 0.03 -0.01 0.01 0 0.03 -0.01 0 0 0.04 -0.01 0 0 0.04 -0.01 0 0 0.03 -0.01 0.04 -0.01 0 0 0.04 -0.01 0.03 -0.01 0.04 -0.01 0 0 0.04 0 0.04 -0.01 0.03 -0.01 0 0 0.04 0 0 0 0.04 -0.01 0.03 -0.01 0 0 0.04 0 0.04 -0.01 0.04 0 0 0 0.03 -0.01 0.04 0 0.04 0 0.04 -0.01 0.04 0 0.03 0 0.04 0 0 0 0.04 0 0 0 0.04 0 0.03 -0.01 0.04 0zm0.99 1.08c-0.18,0.1 -0.48,0.29 -0.78,0.61l-0.02 0.02c-0.46,0.49 -0.9,1.27 -0.9,2.45 0,0.82 0.21,1.45 0.49,1.92 0.4,0.67 0.94,1.02 1.21,1.16 0.46,-0.24 1.72,-1.09 1.72,-3.07 0,-0.82 -0.21,-1.45 -0.5,-1.92 -0.41,-0.68 -0.95,-1.03 -1.22,-1.17zm0.02 -4.69l0 0c0.12,-0.01 0.27,-0.01 0.43,0l0.13 0.02c1.73,0.15 3.62,0.96 5.02,2.37 1.29,1.3 2.18,3.1 2.18,5.35 0,2.18 -0.89,4.07 -2.26,5.44 -1.45,1.46 -3.44,2.33 -5.49,2.33l0 0 -0.03 0c-1.86,0 -3.99,-0.82 -5.55,-2.37 -1.29,-1.31 -2.19,-3.11 -2.19,-5.38 0,-2.17 0.89,-4.07 2.26,-5.44 1.45,-1.45 3.44,-2.32 5.48,-2.32l0.02 0zm-4.35 8.78c0,0.52 0.04,1.01 0.1,1.44 0.21,1.14 0.69,2.27 1.45,3.1 1.06,1.08 2.35,1.3 2.75,1.32l0.03 0 0.01 0 0.02 0 0 0c1.82,0 3.59,-0.77 4.88,-2.06 1.21,-1.22 2,-2.9 2,-4.84 0,-2 -0.78,-3.59 -1.92,-4.74 -0.34,-0.34 -0.7,-0.64 -1.09,-0.9l0.02 0.03 0.03 0.03 0 0.01c0.07,0.09 0.14,0.19 0.2,0.29 0.08,0.12 0.15,0.24 0.22,0.37l0.02 0.03 0.02 0.04 0.01 0.01 0.02 0.05 0.01 0.01 0.02 0.05 0.01 0.01 0.02 0.04 0.02 0.03 0.01 0.03 0.02 0.04 0 0.01c0.18,0.36 0.31,0.73 0.41,1.1l0.01 0.02 0.01 0.05 0.01 0.03 0.01 0.04 0.01 0.03 0.01 0.03c0.16,0.67 0.26,1.42 0.26,2.27 0,0.36 -0.03,0.7 -0.08,1.02l0 0 -0.04 0.19 0 0 0 0.03 0 0 -0.01 0.04 0 0 -0.01 0.04 -0.02 0.11 0 0 -0.01 0.03 0 0 -0.01 0.04 0 0 -0.02 0.07 0 0 -0.01 0.03 -0.01 0.04 0 0 -0.01 0.03 -0.01 0.04 -0.01 0.03 -0.01 0.04 -0.01 0.03 -0.01 0.04 -0.01 0.03 -0.01 0.03 -0.01 0.04 -0.01 0.03 -0.02 0.03 -0.01 0.04 -0.01 0.03 -0.01 0.03 -0.01 0.04 0 0 -0.02 0.03 -0.01 0.03 -0.01 0.03 -0.02 0.04 -0.01 0.03 -0.01 0.03 -0.02 0.04 0 0 -0.02 0.04 0 0 -0.02 0.04 0 0.01 -0.02 0.03 0 0.01 -0.01 0.03 -0.01 0.01 -0.01 0.03 -0.01 0.01 -0.01 0.03 -0.01 0.01 -0.01 0.03 -0.01 0.01 -0.01 0.03 -0.01 0.01 -0.01 0.03 -0.01 0.01 -0.02 0.03 0 0.01 -0.02 0.03 0 0.01 -0.02 0.03 0 0 -0.02 0.04 0 0 -0.02 0.03 -0.01 0.01 -0.01 0.03 -0.01 0.01 -0.02 0.03 0 0.01 -0.02 0.03 0 0 -0.02 0.03 -0.01 0.01 -0.01 0.03 -0.01 0.01 -0.02 0.02 0 0.01 -0.02 0.03 -0.01 0.01 -0.02 0.03 0 0.01 -0.02 0.02 -0.01 0.01 -0.01 0.03 -0.01 0.01 -0.02 0.02 -0.01 0.01 -0.01 0.02 -0.01 0.02 -0.02 0.02 -0.01 0.01 -0.01 0.02 -0.01 0.01 -0.02 0.03 -0.01 0.01 -0.01 0.02 -0.01 0.01 -0.02 0.02 -0.01 0.01 -0.02 0.02 -0.01 0.02 -0.01 0.02 -0.01 0.01 -0.02 0.02 -0.01 0.01 -0.01 0.02 -0.02 0.01 -0.01 0.02 -0.01 0.01 -0.02 0.02 -0.01 0.02 -0.02 0.01 -0.01 0.02 -0.01 0.01 -0.02 0.02 -0.01 0.01 -0.01 0.02 -0.02 0.01 -0.01 0.02 -0.02 0.01 -0.01 0.02 -0.01 0.01 -0.02 0.02 -0.01 0.01 -0.02 0.02 -0.01 0.01 -0.02 0.02 -0.01 0.01 -0.02 0.01 -0.01 0.02 -0.02 0.01 -0.01 0.01 -0.02 0.02 -0.01 0.01 -0.01 0.02 -0.02 0.01 -0.01 0.01 -0.01 0.01 -0.02 0.02 -0.01 0.01 -0.02 0.02 -0.01 0.01 -0.02 0.01 -0.01 0.01 -0.03 0.02 0 0.01 -0.03 0.02 0 0 -0.03 0.02 0 0.01 -0.03 0.02 -0.01 0 -0.02 0.02 -0.01 0.01 -0.02 0.02 -0.01 0 -0.02 0.02 -0.01 0 -0.07 0.06 -0.01 0.01 -0.13 0.09 0 0 -0.07 0.04 0 0 -0.1 0.07 0 0 -0.07 0.04 0 0 -0.06 0.03 0 0 -0.14 0.08 0 0 -0.03 0.01 0 0 -0.11 0.05 0 0 -0.03 0.02 0 0 -0.07 0.03 0 0 -0.03 0.01 -0.01 0.01 -0.06 0.02 -0.01 0 -0.03 0.02 0 0 -0.1 0.04 0 0 -0.04 0.01 0 0 -0.03 0.01 0 0 -0.04 0.01 0 0 -0.03 0.01 0 0 -0.04 0.01 0 0 -0.03 0.01 0 0 -0.04 0.01 0 0.01 -0.03 0 -0.01 0 -0.03 0.01 0 0 -0.03 0.01 -0.01 0 -0.03 0.01 0 0 -0.03 0.01 -0.01 0 -0.03 0.01 0 0 -0.04 0.01 0 0 -0.03 0 0 0 -0.04 0.01 0 0 -0.03 0.01 0 0 -0.04 0 0 0 -0.03 0.01 0 0 -0.04 0 0 0 -0.03 0.01 0 0 -0.04 0 0 0 -0.03 0.01 0 0 -0.04 0 0 0 -0.03 0 0 0 -0.04 0.01 0 0 -0.03 0 -0.04 0 0 0 -0.03 0 0 0 -0.04 0 -0.03 0 0 0 -0.04 0.01 -0.03 0 -0.02 0 0 0 -0.02 0 0 0 -0.02 -0.01 0 0 -0.01 0 0 0 -0.02 0 0 0 -0.02 0 0 0 -0.02 0 0 0 -0.01 0 -0.01 0 -0.01 0 0 0 -0.02 0 0 0 -0.02 0 0 0 -0.01 0 -0.01 0 -0.01 0 0 0 -0.02 0 0 -0.01 -0.02 0 0 0 -0.01 0 -0.04 0 0 0 -0.02 0 0 0 -0.01 -0.01 -0.01 0 -0.01 0 -0.01 0 -0.01 0 0 0 -0.02 0 0 0 -0.01 0 -0.01 -0.01 -0.01 0 -0.01 0 -0.01 0 0 0 -0.01 0 -0.01 0 -0.01 -0.01 -0.01 0 -0.03 0 0 0 -0.01 0 -0.01 -0.01 -0.01 0 -0.01 0 -0.01 0 -0.03 -0.01 -0.01 0 -0.01 0 -0.05 -0.01 -0.01 -0.01 -0.01 0 -0.01 0 0 0 -0.01 0 -0.01 -0.01 -0.03 0 0 -0.01 -0.02 0 0 0 -0.01 0 -0.01 -0.01 -0.01 0 -0.01 0 -0.01 0 0 -0.01 -0.01 0 -0.01 0 -0.01 0 0 -0.01 -0.02 0 0 0 -0.01 0 -0.01 -0.01 -0.01 0 0 0 -0.02 -0.01 0 0 -0.02 0 0 0 -0.01 -0.01 0 0 -0.02 0 0 0 -0.02 -0.01 0 0 -0.01 -0.01 0 0 0 0 -0.04 -0.01 0 0 -0.01 -0.01 0 0 -0.02 0 0 0 -0.01 -0.01 -0.04 -0.01 0 0 -0.01 -0.01 0 0 0 0c-0.2,-0.08 -1.14,-0.53 -1.77,-1.59 -0.35,-0.58 -0.62,-1.36 -0.62,-2.36 0,-1.45 0.56,-2.42 1.14,-3.04l0.25 -0.24 -0.01 0 -0.02 0 -0.01 0 -0.01 0 -0.02 0 -0.01 0 -0.02 0.01 0 0 -0.03 0 0 0 -0.03 0 -0.02 0.01 -0.01 0 -0.02 0 0 0 -0.02 0 -0.01 0.01 -0.02 0 -0.01 0 -0.01 0 -0.02 0.01 -0.01 0 -0.02 0 -0.01 0 -0.02 0.01 0 0 -0.03 0 0 0 -0.02 0.01 0 0 -0.03 0 0 0.01 -0.02 0 -0.01 0 -0.02 0.01 -0.01 0 -0.02 0 -0.02 0.01 -0.02 0.01 -0.01 0 -0.02 0 0 0.01 -0.02 0 -0.01 0 -0.02 0.01 0 0 -0.03 0.01 0 0 -0.02 0.01 -0.01 0 -0.02 0.01 -0.01 0 -0.01 0 -0.01 0.01 -0.02 0 -0.01 0.01 -0.01 0 -0.02 0.01 -0.01 0 -0.02 0.01 0 0 -0.01 0 -0.04 0.02 -0.03 0.01 0 0.01 -0.05 0.02 -0.01 0 -0.01 0.01 -0.01 0 -0.02 0.01 -0.01 0.01 -0.01 0 -0.02 0.01 -0.01 0 -0.02 0.01 0 0 -0.02 0.02 0 0 -0.03 0.01 0 0 -0.02 0.01 -0.01 0 -0.02 0.02 0 0 -0.02 0.01 -0.02 0.01 -0.02 0.01 -0.01 0.01 -0.01 0.01 -0.01 0 -0.02 0.01 -0.01 0.01 -0.02 0.01 0 0 -0.09 0.06 -0.01 0.01 -0.02 0.01 -0.01 0 -0.01 0.01 -0.01 0.01 -0.01 0.01 -0.02 0.01 0 0 -0.02 0.02 -0.01 0 -0.02 0.02 0 0 -0.02 0.02c-0.55,0.41 -1.01,1.04 -1.28,1.84 -0.19,0.53 -0.29,1.14 -0.29,1.83z"/>
 </g>
</svg>
