<?xml version="1.0" encoding="UTF-8"?>
<!DOCTYPE svg PUBLIC "-//W3C//DTD SVG 1.1//EN" "http://www.w3.org/Graphics/SVG/1.1/DTD/svg11.dtd">
<!-- Creator: CorelDRAW 2020 (64-Bit) -->
<svg xmlns="http://www.w3.org/2000/svg" xml:space="preserve" width="64px" height="64px" version="1.1" style="shape-rendering:geometricPrecision; text-rendering:geometricPrecision; image-rendering:optimizeQuality; fill-rule:evenodd; clip-rule:evenodd"
viewBox="0 0 3.23 3.23"
 xmlns:xlink="http://www.w3.org/1999/xlink"
 xmlns:xodm="http://www.corel.com/coreldraw/odm/2003">
 <defs>
  <style type="text/css">
   <![CDATA[
    .fil0 {fill:#637792}
   ]]>
  </style>
 </defs>
 <g id="Capa_x0020_1">
  <metadata id="CorelCorpID_0Corel-Layer"/>
  <path class="fil0" d="M0.26 0l2.71 0c0.14,0 0.26,0.12 0.26,0.26l0 2.71c0,0.14 -0.12,0.26 -0.26,0.26l-2.71 0c-0.14,0 -0.26,-0.12 -0.26,-0.26l0 -2.71c0,-0.14 0.12,-0.26 0.26,-0.26zm0.95 1.62c-0.13,-0.05 -0.28,-0.08 -0.46,-0.11 -0.02,0.07 -0.03,0.14 -0.03,0.22l0 0.92 0.46 0 0 -0.88c0,-0.06 0.01,-0.11 0.03,-0.15zm0.25 -0.15c0.09,0.03 0.17,0.13 0.17,0.3l0 0.88 0.48 0 0 -0.88c0,-0.4 0.46,-0.41 0.45,0l0 0.88 0.48 0 0 -0.92c0,-0.13 -0.03,-0.24 -0.09,-0.33 -0.21,-0.33 -0.77,-0.37 -1.07,-0.15 -0.04,-0.03 -0.07,-0.05 -0.11,-0.07 -0.02,0 -0.03,-0.01 -0.05,-0.02 0,0.01 0.01,0.01 0.01,0.02 -0.1,0.09 -0.19,0.19 -0.27,0.29zm-0.01 -0.03c0.08,-0.11 0.17,-0.2 0.26,-0.3 0,0 0,-0.01 0,-0.01 -0.03,-0.07 -0.09,-0.13 -0.16,-0.2l-0.36 0.25c-0.23,0.01 -0.33,0.01 -0.45,0.01 -0.04,0.1 -0.03,0.19 0,0.29 0.17,0.02 0.32,0.06 0.45,0.1 0.02,0.01 0.04,0.01 0.06,0.02 0.05,0.01 0.09,-0.01 0.11,-0.04 0.03,-0.04 0.06,-0.08 0.09,-0.12zm-0.27 -0.29l0.82 -0.57 -1.02 0.09 -0.89 0.51 1.09 -0.03zm-0.76 1.02c0.06,-0.19 -0.1,-0.33 -0.02,-0.76 0,-0.02 -0.03,-0.06 -0.04,-0.07 -0.01,-0.02 0.04,-0.05 0.04,-0.07l-0.03 -0.08c0,0 -0.03,0 -0.03,0 0.05,0.08 -0.02,0.07 -0.01,0.11 0.02,0.17 0.01,0.36 0.01,0.54 0,0.16 -0.09,0.41 0.03,0.59 0.01,-0.04 0.03,-0.23 0.05,-0.26z"/>
 </g>
</svg>
