<?xml version="1.0" encoding="UTF-8"?>
<!DOCTYPE svg PUBLIC "-//W3C//DTD SVG 1.1//EN" "http://www.w3.org/Graphics/SVG/1.1/DTD/svg11.dtd">
<!-- Creator: CorelDRAW 2020 (64-Bit) -->
<svg xmlns="http://www.w3.org/2000/svg" xml:space="preserve" width="64px" height="64px" version="1.1" style="shape-rendering:geometricPrecision; text-rendering:geometricPrecision; image-rendering:optimizeQuality; fill-rule:evenodd; clip-rule:evenodd"
viewBox="0 0 18.32 18.32"
 xmlns:xlink="http://www.w3.org/1999/xlink"
 xmlns:xodm="http://www.corel.com/coreldraw/odm/2003">
 <defs>
  <style type="text/css">
   <![CDATA[
    .fil0 {fill:#637792}
   ]]>
  </style>
 </defs>
 <g id="Capa_x0020_1">
  <metadata id="CorelCorpID_0Corel-Layer"/>
  <path class="fil0" d="M1.47 0l15.38 0c0.81,0 1.47,0.66 1.47,1.47l0 15.38c0,0.81 -0.66,1.47 -1.47,1.47l-15.38 0c-0.81,0 -1.47,-0.66 -1.47,-1.47l0 -15.38c0,-0.81 0.66,-1.47 1.47,-1.47zm1.1 1.97c-0.36,0 -0.67,0.13 -0.83,0.53 -0.28,0.66 0.41,1.31 0.64,1.65 0.17,0.24 0.4,0.5 0.52,0.77 0.07,0.17 0.09,0.35 0.16,0.54 0.17,0.45 0.32,0.95 0.53,1.36 0.11,0.22 0.24,0.44 0.38,0.64 0.08,0.11 0.22,0.16 0.25,0.34 -0.14,0.21 -0.15,0.51 -0.23,0.77 -0.37,1.15 -0.23,2.58 0.29,3.43 0.17,0.25 0.55,0.81 1.07,0.6 0.46,-0.18 0.36,-0.76 0.49,-1.27 0.03,-0.13 0.01,-0.21 0.07,-0.29l0 0.02c0.14,0.29 0.29,0.56 0.42,0.85 0.32,0.5 0.86,1.02 1.32,1.36 0.25,0.19 0.44,0.5 0.74,0.62l0 -0.04 -0.02 0c-0.06,-0.09 -0.15,-0.13 -0.23,-0.2 -0.18,-0.18 -0.39,-0.41 -0.53,-0.61 -0.43,-0.57 -0.8,-1.2 -1.14,-1.86 -0.16,-0.31 -0.3,-0.66 -0.44,-0.98 -0.06,-0.12 -0.06,-0.3 -0.16,-0.36 -0.15,0.22 -0.37,0.41 -0.49,0.69 -0.19,0.44 -0.21,0.98 -0.28,1.54 -0.04,0.01 -0.02,0 -0.04,0.02 -0.33,-0.08 -0.44,-0.42 -0.56,-0.7 -0.31,-0.73 -0.36,-1.89 -0.09,-2.73 0.07,-0.21 0.37,-0.89 0.25,-1.09 -0.06,-0.2 -0.26,-0.31 -0.38,-0.46 -0.13,-0.19 -0.27,-0.44 -0.36,-0.65 -0.25,-0.57 -0.37,-1.21 -0.63,-1.78 -0.13,-0.26 -0.34,-0.54 -0.51,-0.78 -0.2,-0.28 -0.41,-0.47 -0.56,-0.8 -0.05,-0.11 -0.12,-0.3 -0.04,-0.42 0.02,-0.08 0.06,-0.11 0.14,-0.13 0.13,-0.11 0.51,0.03 0.64,0.09 0.38,0.15 0.69,0.3 1.01,0.51 0.14,0.1 0.29,0.3 0.48,0.35l0.21 0c0.33,0.07 0.69,0.02 1,0.11 0.54,0.17 1.03,0.43 1.46,0.7 1.34,0.85 2.43,2.06 3.18,3.49 0.12,0.24 0.17,0.45 0.28,0.7 0.22,0.5 0.48,1.01 0.7,1.5 0.21,0.48 0.41,0.97 0.72,1.36 0.15,0.22 0.76,0.33 1.04,0.44 0.2,0.09 0.52,0.18 0.7,0.29 0.34,0.21 0.69,0.46 1.02,0.69 0.16,0.12 0.67,0.38 0.7,0.58l0 0c-0.82,-0.02 -1.45,0.07 -1.98,0.29 -0.15,0.06 -0.39,0.06 -0.41,0.26 0.08,0.08 0.09,0.21 0.16,0.32 0.12,0.21 0.33,0.48 0.53,0.62 0.21,0.17 0.43,0.33 0.65,0.47 0.4,0.25 0.84,0.39 1.23,0.64 0.23,0.14 0.45,0.32 0.67,0.48 0.11,0.08 0.19,0.21 0.33,0.26l0 -0.03c-0.07,-0.09 -0.09,-0.22 -0.16,-0.33 -0.11,-0.1 -0.21,-0.19 -0.31,-0.29 -0.3,-0.4 -0.66,-0.75 -1.06,-1.03 -0.32,-0.23 -1.04,-0.53 -1.17,-0.91 0,0 -0.01,-0.01 -0.02,-0.02 0.22,-0.02 0.49,-0.1 0.7,-0.17 0.35,-0.09 0.66,-0.07 1.02,-0.16 0.16,-0.04 0.33,-0.09 0.49,-0.14l0 -0.09c-0.18,-0.19 -0.32,-0.43 -0.51,-0.6 -0.52,-0.45 -1.09,-0.89 -1.68,-1.26 -0.31,-0.2 -0.72,-0.34 -1.06,-0.51 -0.12,-0.06 -0.32,-0.09 -0.39,-0.19 -0.19,-0.23 -0.29,-0.52 -0.42,-0.79 -0.3,-0.56 -0.58,-1.18 -0.84,-1.78 -0.18,-0.39 -0.29,-0.79 -0.51,-1.16 -1.05,-1.73 -2.19,-2.78 -3.94,-3.81 -0.38,-0.22 -0.83,-0.31 -1.3,-0.42 -0.26,-0.01 -0.51,-0.03 -0.77,-0.04 -0.16,-0.08 -0.32,-0.27 -0.47,-0.36 -0.36,-0.23 -1.08,-0.63 -1.67,-0.64l0 0zm2.51 2.53c-0.18,0 -0.3,0.02 -0.42,0.05l0 0.02 0.02 0c0.08,0.16 0.22,0.27 0.33,0.42 0.08,0.16 0.15,0.32 0.23,0.49 0.01,-0.01 0.02,-0.02 0.02,-0.02 0.14,-0.11 0.21,-0.27 0.21,-0.51 -0.06,-0.08 -0.07,-0.15 -0.12,-0.22 -0.06,-0.1 -0.19,-0.15 -0.27,-0.23l0 0z"/>
 </g>
</svg>
