<?xml version="1.0" encoding="UTF-8"?>
<!DOCTYPE svg PUBLIC "-//W3C//DTD SVG 1.1//EN" "http://www.w3.org/Graphics/SVG/1.1/DTD/svg11.dtd">
<!-- Creator: CorelDRAW 2020 (64-Bit) -->
<svg xmlns="http://www.w3.org/2000/svg" xml:space="preserve" width="64px" height="64px" version="1.1" style="shape-rendering:geometricPrecision; text-rendering:geometricPrecision; image-rendering:optimizeQuality; fill-rule:evenodd; clip-rule:evenodd"
viewBox="0 0 1.51 1.51"
 xmlns:xlink="http://www.w3.org/1999/xlink"
 xmlns:xodm="http://www.corel.com/coreldraw/odm/2003">
 <defs>
  <style type="text/css">
   <![CDATA[
    .fil0 {fill:#637792}
   ]]>
  </style>
 </defs>
 <g id="Capa_x0020_1">
  <metadata id="CorelCorpID_0Corel-Layer"/>
  <path class="fil0" d="M0.12 0l1.27 0c0.06,0 0.12,0.05 0.12,0.12l0 1.27c0,0.06 -0.06,0.12 -0.12,0.12l-1.27 0c-0.07,0 -0.12,-0.06 -0.12,-0.12l0 -1.27c0,-0.07 0.05,-0.12 0.12,-0.12zm0.84 0.87l0 0c-0.02,0.02 -0.03,0.04 -0.04,0.06 0.04,-0.01 0.07,-0.01 0.11,-0.02 -0.01,-0.03 -0.03,-0.06 -0.04,-0.1 -0.01,0.02 -0.02,0.04 -0.03,0.06zm-0.07 0.11c-0.04,0.05 -0.07,0.09 -0.1,0.12 0.01,0.02 0.03,0.03 0.05,0.05 0.07,0.06 0.14,0.09 0.18,0.06 0.04,-0.02 0.05,-0.09 0.03,-0.19 0,-0.02 0,-0.04 -0.01,-0.06 -0.05,0.01 -0.1,0.02 -0.15,0.02zm-0.14 0.16c-0.01,0.02 -0.03,0.03 -0.05,0.05 -0.09,0.07 -0.17,0.1 -0.23,0.06 -0.06,-0.03 -0.08,-0.12 -0.06,-0.23 0,-0.03 0.01,-0.05 0.01,-0.07 -0.02,-0.01 -0.04,-0.02 -0.06,-0.03 -0.11,-0.04 -0.18,-0.1 -0.18,-0.17 0,-0.06 0.07,-0.12 0.18,-0.17 0.02,0 0.04,-0.01 0.06,-0.02 0,-0.02 -0.01,-0.04 -0.01,-0.07 -0.02,-0.11 0,-0.2 0.06,-0.24 0.06,-0.03 0.14,0 0.23,0.07 0.02,0.02 0.04,0.03 0.05,0.05 0.02,-0.02 0.04,-0.03 0.06,-0.05 0.09,-0.07 0.17,-0.1 0.23,-0.07 0.06,0.04 0.08,0.13 0.06,0.24 0,0.03 -0.01,0.05 -0.01,0.07 0.02,0.01 0.04,0.02 0.06,0.02 0.11,0.05 0.18,0.11 0.18,0.17 0,0.07 -0.07,0.13 -0.18,0.17 -0.02,0.01 -0.04,0.02 -0.06,0.03 0,0.02 0.01,0.04 0.01,0.07 0.02,0.11 0,0.2 -0.06,0.23 -0.06,0.04 -0.14,0.01 -0.23,-0.06 -0.02,-0.02 -0.04,-0.03 -0.06,-0.05zm-0.31 -0.24c0.01,-0.05 0.03,-0.1 0.05,-0.15 -0.02,-0.05 -0.04,-0.09 -0.05,-0.14 -0.03,0.01 -0.05,0.01 -0.07,0.02 -0.09,0.03 -0.14,0.08 -0.14,0.12 0,0.05 0.05,0.1 0.14,0.13 0.02,0.01 0.04,0.01 0.07,0.02zm0.63 -0.29c-0.01,0.05 -0.03,0.09 -0.05,0.14 0.02,0.05 0.04,0.1 0.05,0.15 0.03,-0.01 0.05,-0.01 0.07,-0.02 0.09,-0.03 0.14,-0.08 0.14,-0.13 0,-0.04 -0.05,-0.09 -0.14,-0.12 -0.02,-0.01 -0.04,-0.01 -0.07,-0.02zm-0.55 0.09c0.01,-0.02 0.02,-0.04 0.03,-0.06l0 0c0.01,-0.02 0.03,-0.04 0.04,-0.06 -0.04,0 -0.07,0.01 -0.11,0.02 0.01,0.03 0.03,0.06 0.04,0.1zm0.1 -0.17c0.04,-0.05 0.07,-0.09 0.1,-0.12 -0.02,-0.02 -0.03,-0.04 -0.05,-0.05 -0.07,-0.06 -0.14,-0.09 -0.18,-0.06 -0.04,0.02 -0.05,0.09 -0.03,0.19 0,0.02 0,0.04 0.01,0.06 0.05,-0.01 0.1,-0.02 0.15,-0.02zm0.05 0.62c0.02,-0.02 0.03,-0.03 0.05,-0.05 -0.03,-0.03 -0.06,-0.07 -0.1,-0.12 -0.05,0 -0.1,-0.01 -0.15,-0.02 -0.01,0.02 -0.01,0.04 -0.01,0.06 -0.02,0.1 -0.01,0.17 0.03,0.19 0.04,0.03 0.11,0 0.18,-0.06zm-0.08 -0.22c-0.01,-0.02 -0.03,-0.04 -0.04,-0.06l0 0c-0.01,-0.02 -0.02,-0.04 -0.03,-0.06 -0.01,0.04 -0.03,0.07 -0.04,0.1 0.04,0.01 0.07,0.01 0.11,0.02zm0.16 0.14c0.03,-0.03 0.05,-0.05 0.07,-0.08 -0.02,0 -0.04,0 -0.07,0 -0.02,0 -0.04,0 -0.06,0 0.02,0.03 0.04,0.05 0.06,0.08zm0.11 -0.14c0.02,-0.02 0.04,-0.05 0.05,-0.08l0 0c0.02,-0.03 0.04,-0.07 0.05,-0.1 -0.01,-0.03 -0.03,-0.06 -0.05,-0.09l0 0c-0.01,-0.03 -0.03,-0.06 -0.05,-0.09 -0.03,0 -0.07,0 -0.11,0 -0.03,0 -0.07,0 -0.1,0 -0.02,0.03 -0.04,0.06 -0.05,0.09l0 0c-0.02,0.03 -0.04,0.06 -0.05,0.09 0.01,0.04 0.03,0.07 0.04,0.1l0.01 0c0.01,0.03 0.03,0.06 0.05,0.08 0.03,0.01 0.07,0.01 0.1,0.01 0.04,0 0.08,0 0.11,-0.01zm-0.04 -0.41c-0.02,-0.03 -0.04,-0.05 -0.07,-0.08 -0.02,0.03 -0.04,0.05 -0.06,0.08 0.02,0 0.04,0 0.06,0 0.03,0 0.05,0 0.07,0zm0.17 0.18c0.01,-0.04 0.03,-0.07 0.04,-0.1 -0.04,-0.01 -0.07,-0.02 -0.11,-0.02 0.01,0.02 0.02,0.04 0.04,0.06l0 0c0.01,0.02 0.02,0.04 0.03,0.06zm0.05 -0.15c0.01,-0.02 0.01,-0.04 0.01,-0.06 0.02,-0.1 0.01,-0.17 -0.03,-0.19 -0.04,-0.03 -0.11,0 -0.18,0.06 -0.02,0.01 -0.04,0.03 -0.05,0.05 0.03,0.03 0.06,0.07 0.1,0.12 0.05,0 0.1,0.01 0.15,0.02zm-0.29 0.1c0.06,0 0.11,0.05 0.11,0.1 0,0.06 -0.05,0.11 -0.11,0.11 -0.05,0 -0.1,-0.05 -0.1,-0.11 0,-0.05 0.05,-0.1 0.1,-0.1z"/>
 </g>
</svg>
