<?xml version="1.0" encoding="UTF-8"?>
<!DOCTYPE svg PUBLIC "-//W3C//DTD SVG 1.1//EN" "http://www.w3.org/Graphics/SVG/1.1/DTD/svg11.dtd">
<!-- Creator: CorelDRAW 2020 (64-Bit) -->
<svg xmlns="http://www.w3.org/2000/svg" xml:space="preserve" width="64px" height="64px" version="1.1" style="shape-rendering:geometricPrecision; text-rendering:geometricPrecision; image-rendering:optimizeQuality; fill-rule:evenodd; clip-rule:evenodd"
viewBox="0 0 18.32 18.32"
 xmlns:xlink="http://www.w3.org/1999/xlink"
 xmlns:xodm="http://www.corel.com/coreldraw/odm/2003">
 <defs>
  <style type="text/css">
   <![CDATA[
    .fil0 {fill:#637792}
   ]]>
  </style>
 </defs>
 <g id="Capa_x0020_1">
  <metadata id="CorelCorpID_0Corel-Layer"/>
  <path class="fil0" d="M1.47 0l15.38 0c0.81,0 1.47,0.66 1.47,1.47l0 15.38c0,0.81 -0.66,1.47 -1.47,1.47l-15.38 0c-0.81,0 -1.47,-0.66 -1.47,-1.47l0 -15.38c0,-0.81 0.66,-1.47 1.47,-1.47zm5.88 10.83l-0.14 -0.47 -1.17 0 -0.14 0.47 -1.1 0 1.22 -3.34 1.25 0 1.22 3.34 -1.14 0zm-1.09 -1.22l0.73 0 -0.35 -1.19 -0.02 0 -0.36 1.19zm4.5 -2.12c0.21,0 0.4,0.05 0.56,0.14 0.16,0.1 0.29,0.23 0.38,0.4 0.09,0.16 0.13,0.35 0.13,0.56l0 0.06c0,0.21 -0.04,0.39 -0.13,0.56 -0.09,0.17 -0.22,0.3 -0.38,0.4 -0.16,0.09 -0.35,0.14 -0.56,0.14l-0.8 0 0 1.08 -1.07 0 0 -3.34 1.87 0zm-0.8 1.48l0.44 0c0.12,0 0.2,-0.03 0.26,-0.09 0.06,-0.06 0.08,-0.14 0.08,-0.24l0 -0.03c0,-0.11 -0.02,-0.19 -0.08,-0.24 -0.06,-0.06 -0.14,-0.09 -0.26,-0.09l-0.44 0 0 0.69zm2.48 1.86l0 -3.34 1.08 0 0 3.34 -1.08 0zm-1.4 -7.68c0.18,0.06 0.35,0.12 0.53,0.2 0.17,0.07 0.34,0.15 0.51,0.23l1.73 -1.26 2.19 2.19 -1.27 1.73c0.09,0.17 0.17,0.34 0.24,0.51 0.07,0.18 0.14,0.35 0.19,0.53l2.13 0.33 0 3.1 -2.13 0.33c-0.05,0.18 -0.12,0.35 -0.19,0.53 -0.07,0.17 -0.15,0.34 -0.24,0.51l1.27 1.73 -2.19 2.19 -1.73 -1.27c-0.17,0.09 -0.34,0.17 -0.51,0.24 -0.18,0.07 -0.35,0.14 -0.53,0.19l-0.33 2.13 -3.1 0 -0.33 -2.13c-0.18,-0.05 -0.35,-0.12 -0.53,-0.19 -0.17,-0.07 -0.34,-0.15 -0.51,-0.24l-1.73 1.27 -2.2 -2.19 1.27 -1.73c-0.08,-0.17 -0.16,-0.34 -0.23,-0.51 -0.08,-0.18 -0.14,-0.35 -0.2,-0.53l-2.12 -0.33 0 -3.1 2.12 -0.33c0.06,-0.18 0.12,-0.35 0.2,-0.53 0.07,-0.17 0.15,-0.34 0.24,-0.51l-1.28 -1.73 2.2 -2.19 1.73 1.26c0.17,-0.08 0.34,-0.16 0.51,-0.23 0.17,-0.08 0.35,-0.14 0.53,-0.2l0.33 -2.12 3.1 0 0.33 2.12zm0.2 0.99c-0.23,-0.09 -0.46,-0.17 -0.7,-0.23l-0.27 -0.07 -0.3 -1.94 -1.62 0 -0.3 1.94 -0.28 0.07c-0.23,0.06 -0.46,0.14 -0.69,0.23 -0.22,0.09 -0.44,0.2 -0.65,0.33l-0.25 0.14 -1.58 -1.16 -1.15 1.15 1.16 1.58 -0.14 0.25c-0.12,0.2 -0.23,0.42 -0.33,0.65 -0.09,0.22 -0.17,0.46 -0.23,0.69l-0.07 0.28 -1.94 0.3 0 1.62 1.94 0.3 0.07 0.27c0.06,0.24 0.14,0.47 0.23,0.7 0.09,0.22 0.2,0.44 0.33,0.65l0.14 0.25 -1.16 1.58 1.15 1.15 1.58 -1.16 0.25 0.14c0.21,0.12 0.43,0.23 0.65,0.32 0.22,0.1 0.46,0.18 0.69,0.24l0.28 0.07 0.3 1.94 1.62 0 0.3 -1.94 0.27 -0.07c0.24,-0.06 0.47,-0.14 0.7,-0.24 0.22,-0.09 0.44,-0.2 0.65,-0.32l0.25 -0.14 1.58 1.16 1.15 -1.15 -1.16 -1.58 0.14 -0.25c0.12,-0.21 0.23,-0.43 0.32,-0.65 0.1,-0.23 0.18,-0.46 0.24,-0.7l0.07 -0.27 1.94 -0.3 0 -1.62 -1.94 -0.3 -0.07 -0.28c-0.06,-0.23 -0.14,-0.47 -0.23,-0.69 -0.1,-0.23 -0.21,-0.45 -0.33,-0.65l-0.14 -0.25 1.16 -1.58 -1.15 -1.15 -1.58 1.16 -0.25 -0.14c-0.21,-0.13 -0.43,-0.24 -0.65,-0.33z"/>
 </g>
</svg>
