<?xml version="1.0" encoding="UTF-8"?>
<!DOCTYPE svg PUBLIC "-//W3C//DTD SVG 1.1//EN" "http://www.w3.org/Graphics/SVG/1.1/DTD/svg11.dtd">
<!-- Creator: CorelDRAW 2020 (64-Bit) -->
<svg xmlns="http://www.w3.org/2000/svg" xml:space="preserve" width="64px" height="64px" version="1.1" style="shape-rendering:geometricPrecision; text-rendering:geometricPrecision; image-rendering:optimizeQuality; fill-rule:evenodd; clip-rule:evenodd"
viewBox="0 0 1.51 1.51"
 xmlns:xlink="http://www.w3.org/1999/xlink"
 xmlns:xodm="http://www.corel.com/coreldraw/odm/2003">
 <defs>
  <style type="text/css">
   <![CDATA[
    .fil0 {fill:#637792}
   ]]>
  </style>
 </defs>
 <g id="Capa_x0020_1">
  <metadata id="CorelCorpID_0Corel-Layer"/>
  <path class="fil0" d="M0.12 0l1.27 0c0.06,0 0.12,0.05 0.12,0.12l0 1.27c0,0.06 -0.06,0.12 -0.12,0.12l-1.27 0c-0.07,0 -0.12,-0.06 -0.12,-0.12l0 -1.27c0,-0.07 0.05,-0.12 0.12,-0.12zm0.63 0.35c-0.17,0 -0.29,0.09 -0.33,0.27 0.07,-0.09 0.14,-0.12 0.23,-0.1 0.06,0.01 0.09,0.05 0.13,0.09 0.07,0.07 0.14,0.14 0.31,0.14 0.18,0 0.29,-0.08 0.33,-0.26 -0.06,0.09 -0.14,0.12 -0.23,0.1 -0.05,-0.02 -0.09,-0.05 -0.13,-0.09 -0.06,-0.07 -0.14,-0.15 -0.31,-0.15zm-0.33 0.4c-0.18,0 -0.29,0.09 -0.34,0.27 0.07,-0.09 0.15,-0.12 0.24,-0.1 0.05,0.01 0.09,0.05 0.13,0.09 0.06,0.07 0.14,0.15 0.3,0.15 0.18,0 0.29,-0.09 0.34,-0.27 -0.07,0.09 -0.15,0.12 -0.23,0.1 -0.06,-0.01 -0.09,-0.05 -0.13,-0.09 -0.07,-0.07 -0.14,-0.15 -0.31,-0.15z"/>
 </g>
</svg>
