<?xml version="1.0" encoding="UTF-8"?>
<!DOCTYPE svg PUBLIC "-//W3C//DTD SVG 1.1//EN" "http://www.w3.org/Graphics/SVG/1.1/DTD/svg11.dtd">
<!-- Creator: CorelDRAW 2020 (64-Bit) -->
<svg xmlns="http://www.w3.org/2000/svg" xml:space="preserve" width="64px" height="64px" version="1.1" style="shape-rendering:geometricPrecision; text-rendering:geometricPrecision; image-rendering:optimizeQuality; fill-rule:evenodd; clip-rule:evenodd"
viewBox="0 0 2.32 2.32"
 xmlns:xlink="http://www.w3.org/1999/xlink"
 xmlns:xodm="http://www.corel.com/coreldraw/odm/2003">
 <defs>
  <style type="text/css">
   <![CDATA[
    .fil0 {fill:#637792}
   ]]>
  </style>
 </defs>
 <g id="Capa_x0020_1">
  <metadata id="CorelCorpID_0Corel-Layer"/>
  <path class="fil0" d="M0.15 0l2.03 0c0.08,0 0.14,0.07 0.14,0.15l0 2.03c0,0.08 -0.06,0.14 -0.14,0.14l-2.03 0c-0.08,0 -0.15,-0.06 -0.15,-0.14l0 -2.03c0,-0.08 0.07,-0.15 0.15,-0.15zm0.28 0.52l0 1.15c0,0.05 0.04,0.09 0.09,0.09l0.39 0c0.02,0 0.05,-0.01 0.06,-0.02 0.02,-0.02 0.03,-0.04 0.03,-0.07l0 -1.15c0,-0.05 -0.04,-0.09 -0.09,-0.09l-0.39 0c-0.05,0 -0.09,0.04 -0.09,0.09zm0.89 0l0 0.62c0,0.05 0.04,0.09 0.09,0.09l0.39 0c0.03,0.01 0.05,0 0.07,-0.02 0.01,-0.02 0.02,-0.04 0.02,-0.07l0 -0.62c0,-0.05 -0.04,-0.09 -0.09,-0.09l-0.39 0c-0.05,0 -0.09,0.04 -0.09,0.09z"/>
 </g>
</svg>
