<?xml version="1.0" encoding="UTF-8"?>
<!DOCTYPE svg PUBLIC "-//W3C//DTD SVG 1.1//EN" "http://www.w3.org/Graphics/SVG/1.1/DTD/svg11.dtd">
<!-- Creator: CorelDRAW 2020 (64-Bit) -->
<svg xmlns="http://www.w3.org/2000/svg" xml:space="preserve" width="64px" height="64px" version="1.1" style="shape-rendering:geometricPrecision; text-rendering:geometricPrecision; image-rendering:optimizeQuality; fill-rule:evenodd; clip-rule:evenodd"
viewBox="0 0 1.51 1.51"
 xmlns:xlink="http://www.w3.org/1999/xlink"
 xmlns:xodm="http://www.corel.com/coreldraw/odm/2003">
 <defs>
  <style type="text/css">
   <![CDATA[
    .fil0 {fill:#637792}
   ]]>
  </style>
 </defs>
 <g id="Capa_x0020_1">
  <metadata id="CorelCorpID_0Corel-Layer"/>
  <path class="fil0" d="M0 0.14l0 1.23c0,0.02 0.01,0.04 0.01,0.05 0.02,0.04 0.04,0.06 0.07,0.08 0.02,0 0.04,0.01 0.06,0.01l1.23 0c0.02,0 0.04,-0.01 0.05,-0.01 0.02,-0.01 0.03,-0.02 0.05,-0.03 0.02,-0.03 0.04,-0.06 0.04,-0.1l0 -1.23c0,-0.07 -0.07,-0.14 -0.14,-0.14l-1.23 0c-0.07,0 -0.14,0.07 -0.14,0.14zm0.93 1.07l0 0.14c0.02,0 0.03,0.01 0.04,0.01 0.04,0.02 0.09,0.02 0.13,0.02 0.07,0.01 0.13,0 0.18,-0.03 0.06,-0.02 0.08,-0.06 0.1,-0.11 0.01,-0.06 0,-0.13 -0.03,-0.17 -0.04,-0.03 -0.07,-0.05 -0.13,-0.08 -0.03,-0.02 -0.1,-0.04 -0.13,-0.08 -0.01,-0.03 0,-0.06 0.02,-0.07 0.06,-0.04 0.17,-0.02 0.23,0.01 0,0.01 0.01,0.01 0.01,0.01l0 -0.13c0,-0.01 -0.02,-0.01 -0.03,-0.02 -0.1,-0.02 -0.23,-0.02 -0.31,0.03 -0.04,0.03 -0.07,0.08 -0.08,0.13 0,0.04 0,0.07 0.01,0.1 0.01,0.01 0.03,0.04 0.04,0.05 0.01,0.01 0.02,0.02 0.03,0.03 0.01,0.01 0.02,0.01 0.04,0.02 0.02,0.01 0.04,0.02 0.07,0.03 0.04,0.02 0.11,0.05 0.1,0.1 0,0.06 -0.08,0.07 -0.14,0.07 -0.03,-0.01 -0.06,-0.01 -0.08,-0.03 -0.04,-0.01 -0.06,-0.03 -0.07,-0.03zm-0.58 -0.37l0.19 0c0,0.01 0,0.37 0,0.4 0,0.02 -0.01,0.12 0,0.14l0.15 0 0 -0.54 0.18 0c0.01,-0.01 0.01,-0.1 0.01,-0.12l-0.53 0 0 0.12z"/>
 </g>
</svg>
