<?xml version="1.0" encoding="UTF-8"?>
<!DOCTYPE svg PUBLIC "-//W3C//DTD SVG 1.1//EN" "http://www.w3.org/Graphics/SVG/1.1/DTD/svg11.dtd">
<!-- Creator: CorelDRAW 2020 (64-Bit) -->
<svg xmlns="http://www.w3.org/2000/svg" xml:space="preserve" width="64px" height="64px" version="1.1" style="shape-rendering:geometricPrecision; text-rendering:geometricPrecision; image-rendering:optimizeQuality; fill-rule:evenodd; clip-rule:evenodd"
viewBox="0 0 2.32 2.32"
 xmlns:xlink="http://www.w3.org/1999/xlink"
 xmlns:xodm="http://www.corel.com/coreldraw/odm/2003">
 <defs>
  <style type="text/css">
   <![CDATA[
    .fil0 {fill:#637792}
   ]]>
  </style>
 </defs>
 <g id="Capa_x0020_1">
  <metadata id="CorelCorpID_0Corel-Layer"/>
  <path class="fil0" d="M0.19 0l1.94 0c0.1,0 0.19,0.08 0.19,0.19l0 1.94c0,0.1 -0.09,0.19 -0.19,0.19l-1.94 0c-0.11,0 -0.19,-0.09 -0.19,-0.19l0 -1.94c0,-0.11 0.08,-0.19 0.19,-0.19zm1.73 0.59l-0.15 0c0.23,0.32 0.23,0.82 0,1.14l0.15 0c0.23,-0.32 0.23,-0.82 0,-1.14zm-0.71 1.12c-0.01,0 -0.02,0.01 -0.02,0.01 -0.02,0 -0.03,-0.01 -0.03,-0.03l0 -0.25c0,-0.03 -0.03,-0.06 -0.06,-0.06l-0.28 0 0 0 0 0c-0.02,0 -0.03,-0.02 -0.02,-0.04l0.18 -0.26c0.03,-0.04 0,-0.09 -0.04,-0.09l-0.34 0c0,0 0,0 0,0l0 0c-0.02,0 -0.04,-0.02 -0.02,-0.04l0.24 -0.33c0,-0.01 0.01,-0.02 0.02,-0.02l0.71 0 0 0 0 0c0.02,0 0.03,0.03 0.02,0.05l-0.18 0.25c-0.03,0.04 0,0.09 0.04,0.09l0.28 0c0,0 0,0 0,0l0 0c0.02,0 0.04,0.03 0.02,0.05l-0.52 0.67 0 0zm-0.82 -1.12c-0.22,0.32 -0.22,0.82 0,1.14l0.16 0c-0.23,-0.32 -0.23,-0.82 0,-1.14l-0.16 0z"/>
 </g>
</svg>
