<?xml version="1.0" encoding="UTF-8"?>
<!DOCTYPE svg PUBLIC "-//W3C//DTD SVG 1.1//EN" "http://www.w3.org/Graphics/SVG/1.1/DTD/svg11.dtd">
<!-- Creator: CorelDRAW 2020 (64-Bit) -->
<svg xmlns="http://www.w3.org/2000/svg" xml:space="preserve" width="64px" height="64px" version="1.1" style="shape-rendering:geometricPrecision; text-rendering:geometricPrecision; image-rendering:optimizeQuality; fill-rule:evenodd; clip-rule:evenodd"
viewBox="0 0 3.23 3.23"
 xmlns:xlink="http://www.w3.org/1999/xlink"
 xmlns:xodm="http://www.corel.com/coreldraw/odm/2003">
 <defs>
  <style type="text/css">
   <![CDATA[
    .fil0 {fill:#637792}
   ]]>
  </style>
 </defs>
 <g id="Capa_x0020_1">
  <metadata id="CorelCorpID_0Corel-Layer"/>
  <path class="fil0" d="M0.26 0l2.71 0c0.14,0 0.26,0.12 0.26,0.26l0 2.71c0,0.14 -0.12,0.26 -0.26,0.26l-2.71 0c-0.14,0 -0.26,-0.12 -0.26,-0.26l0 -2.71c0,-0.14 0.12,-0.26 0.26,-0.26zm1.12 1.23c-0.07,0 -0.11,0.02 -0.15,0.1l-0.19 0.35 0 -0.31c0,-0.09 -0.04,-0.14 -0.12,-0.14 -0.08,0 -0.12,0.03 -0.16,0.11l-0.17 0.34 0 -0.31c0,-0.1 -0.04,-0.14 -0.14,-0.14l-0.2 0c-0.08,0 -0.12,0.04 -0.12,0.1 0,0.07 0.04,0.1 0.12,0.1l0.08 0 0 0.39c0,0.11 0.07,0.18 0.18,0.18 0.11,0 0.16,-0.05 0.21,-0.14l0.11 -0.22 0 0.18c0,0.11 0.08,0.18 0.18,0.18 0.11,0 0.15,-0.04 0.21,-0.14l0.27 -0.46c0.06,-0.09 0.02,-0.17 -0.11,-0.17 0,0 0,0 0,0zm0.5 0c-0.21,0 -0.38,0.16 -0.38,0.38 0,0.23 0.17,0.39 0.38,0.39 0.22,0 0.39,-0.17 0.39,-0.39 0,-0.22 -0.17,-0.38 -0.39,-0.38zm0 0.53c-0.08,0 -0.13,-0.06 -0.13,-0.15 0,-0.08 0.05,-0.14 0.13,-0.14 0.09,0 0.14,0.06 0.14,0.14 0,0.09 -0.05,0.15 -0.14,0.15zm0.83 -0.53c-0.22,0 -0.39,0.16 -0.39,0.38 0,0.23 0.17,0.39 0.39,0.39 0.22,0 0.38,-0.17 0.38,-0.39 0,-0.21 -0.16,-0.38 -0.38,-0.38zm0 0.53c-0.08,0 -0.14,-0.06 -0.14,-0.15 0,-0.08 0.06,-0.14 0.14,-0.14 0.08,0 0.14,0.06 0.14,0.14 0,0.09 -0.06,0.15 -0.14,0.15z"/>
 </g>
</svg>
