<?xml version="1.0" encoding="UTF-8"?>
<!DOCTYPE svg PUBLIC "-//W3C//DTD SVG 1.1//EN" "http://www.w3.org/Graphics/SVG/1.1/DTD/svg11.dtd">
<!-- Creator: CorelDRAW 2020 (64-Bit) -->
<svg xmlns="http://www.w3.org/2000/svg" xml:space="preserve" width="64px" height="64px" version="1.1" style="shape-rendering:geometricPrecision; text-rendering:geometricPrecision; image-rendering:optimizeQuality; fill-rule:evenodd; clip-rule:evenodd"
viewBox="0 0 3.23 3.23"
 xmlns:xlink="http://www.w3.org/1999/xlink"
 xmlns:xodm="http://www.corel.com/coreldraw/odm/2003">
 <defs>
  <style type="text/css">
   <![CDATA[
    .fil0 {fill:#637792}
   ]]>
  </style>
 </defs>
 <g id="Capa_x0020_1">
  <metadata id="CorelCorpID_0Corel-Layer"/>
  <path class="fil0" d="M0.26 0l2.71 0c0.14,0 0.26,0.12 0.26,0.26l0 2.71c0,0.14 -0.12,0.26 -0.26,0.26l-2.71 0c-0.14,0 -0.26,-0.12 -0.26,-0.26l0 -2.71c0,-0.14 0.12,-0.26 0.26,-0.26zm0.5 1.05c0.03,0 0.07,0.01 0.12,0l0.11 0c0.03,0 0.08,-0.01 0.12,-0.01 0.03,0 0.07,0.08 -0.03,0.09 -0.03,0 -0.06,0 -0.09,0l0.04 0.14c0.02,0.05 0.03,0.09 0.05,0.14 0.09,0.26 0.18,0.54 0.27,0.8 0,0.01 0,0.02 0.01,0.03 0,-0.02 0.22,-0.65 0.22,-0.67l-0.15 -0.41c0,-0.01 0,-0.02 -0.01,-0.03 -0.02,0 -0.1,0 -0.12,-0.01 -0.03,-0.01 -0.03,-0.08 0.02,-0.08 0.05,0 0.08,0.01 0.13,0.01 0.02,0 0.03,0 0.07,0 0.02,0 0.04,0 0.07,0 0.05,0 0.1,0 0.14,0 0.01,0 0.03,0 0.04,0 0.04,-0.01 0.06,-0.01 0.1,-0.01 0.04,0 0.05,0.06 0.02,0.08 -0.02,0.01 -0.11,0.01 -0.14,0.01 0.01,0.03 0.04,0.11 0.05,0.14l0.31 0.93c0.01,0.02 0.01,0.02 0.02,0.03 0.01,-0.05 0.05,-0.18 0.07,-0.24 0.01,-0.03 0.02,-0.06 0.02,-0.09 0.02,-0.05 0.04,-0.11 0.05,-0.16 0.01,-0.03 0.02,-0.05 0.02,-0.08 0.03,-0.11 0.01,-0.21 -0.03,-0.31 -0.02,-0.05 -0.07,-0.12 -0.1,-0.17 -0.09,-0.16 -0.02,-0.32 0.14,-0.32 -0.02,-0.04 -0.16,-0.13 -0.2,-0.15 -0.15,-0.07 -0.29,-0.12 -0.49,-0.12 -0.23,0 -0.44,0.07 -0.61,0.21l-0.07 0.05c-0.01,0.01 -0.01,0.02 -0.02,0.02 -0.02,0.02 -0.03,0.02 -0.04,0.04 -0.01,0.01 -0.01,0.01 -0.02,0.02l-0.02 0.03c-0.02,0.02 -0.06,0.07 -0.07,0.09zm0.56 1.55c0.06,0.02 0.24,0.04 0.29,0.04 0.07,0 0.13,-0.01 0.19,-0.02 0.03,0 0.05,-0.01 0.08,-0.02 0.02,0 0.05,-0.01 0.07,-0.02l-0.16 -0.44c-0.04,-0.12 -0.09,-0.26 -0.14,-0.38 0,-0.02 -0.01,-0.05 -0.02,-0.06 0,0.02 -0.01,0.02 -0.01,0.03l-0.22 0.64c-0.01,0.04 -0.07,0.2 -0.08,0.23zm-0.73 -0.99c0,0.06 0.01,0.13 0.01,0.17 0.01,0.06 0.03,0.11 0.04,0.15 0.02,0.07 0.07,0.17 0.11,0.23l0.1 0.13c0,0.01 0.01,0.02 0.02,0.02 0.06,0.07 0.15,0.15 0.23,0.19 0.02,0.01 0.05,0.03 0.07,0.03 -0.01,-0.02 -0.09,-0.23 -0.11,-0.29 0,-0.01 -0.01,-0.03 -0.01,-0.04l-0.1 -0.25c-0.01,-0.03 -0.02,-0.06 -0.03,-0.08 -0.04,-0.11 -0.08,-0.23 -0.12,-0.34 -0.01,-0.02 -0.02,-0.05 -0.03,-0.08l-0.03 -0.08c0,-0.02 -0.06,-0.16 -0.06,-0.17 -0.02,0.01 -0.06,0.16 -0.06,0.19 -0.01,0.03 -0.03,0.12 -0.03,0.16 0,0.03 0,0.04 0,0.06zm1.93 -0.39c0,0.18 -0.05,0.27 -0.1,0.43l-0.24 0.69c-0.01,0.02 -0.05,0.14 -0.05,0.16l0.05 -0.03c0.02,-0.02 0.04,-0.03 0.05,-0.04 0.02,-0.01 0.03,-0.03 0.05,-0.04 0.02,-0.01 0.03,-0.03 0.05,-0.04 0.01,-0.01 0.06,-0.07 0.08,-0.09 0.01,-0.02 0.03,-0.03 0.04,-0.05 0,-0.01 0.01,-0.02 0.02,-0.03 0,-0.01 0.01,-0.01 0.01,-0.02 0.1,-0.15 0.16,-0.37 0.16,-0.55 0,-0.13 -0.03,-0.27 -0.08,-0.38l-0.03 -0.08c-0.01,-0.01 -0.01,-0.01 -0.01,-0.01 0,0 0,-0.01 0,-0.01 -0.01,-0.01 -0.01,0 -0.01,-0.01 0,0.03 0.01,0.06 0.01,0.1zm-0.91 1.53c-0.63,0 -1.13,-0.51 -1.13,-1.14 0,-0.63 0.5,-1.13 1.13,-1.13 0.63,0 1.14,0.5 1.14,1.13 0,0.63 -0.51,1.14 -1.14,1.14zm0 -2.33c-0.65,0 -1.19,0.54 -1.19,1.19 0,0.66 0.54,1.2 1.19,1.2 0.66,0 1.2,-0.54 1.2,-1.2 0,-0.65 -0.54,-1.19 -1.2,-1.19z"/>
 </g>
</svg>
