<?xml version="1.0" encoding="UTF-8"?>
<!DOCTYPE svg PUBLIC "-//W3C//DTD SVG 1.1//EN" "http://www.w3.org/Graphics/SVG/1.1/DTD/svg11.dtd">
<!-- Creator: CorelDRAW 2020 (64-Bit) -->
<svg xmlns="http://www.w3.org/2000/svg" xml:space="preserve" width="585px" height="800px" version="1.1" style="shape-rendering:geometricPrecision; text-rendering:geometricPrecision; image-rendering:optimizeQuality; fill-rule:evenodd; clip-rule:evenodd"
viewBox="0 0 58.28 79.67"
 xmlns:xlink="http://www.w3.org/1999/xlink"
 xmlns:xodm="http://www.corel.com/coreldraw/odm/2003">
 <defs>
  <style type="text/css">
   <![CDATA[
    .str0 {stroke:#999999;stroke-width:0.24;stroke-miterlimit:22.9256;stroke-opacity:0.878431}
    .str1 {stroke:#999999;stroke-width:0.24;stroke-miterlimit:22.9256;stroke-opacity:0.909804}
    .fil0 {fill:none}
    .fil1 {fill:none}
   ]]>
  </style>
 </defs>
 <g id="Capa_x0020_1">
  <metadata id="CorelCorpID_0Corel-Layer"/>
  <path class="fil0 str0" d="M11.39 16.23c1.24,-0.98 9.53,-1.09 17.75,-0.97 8.22,-0.12 16.51,-0.01 17.75,0.97 0.19,0.14 0.35,0.3 0.49,0.5 0.14,0.19 0.26,0.41 0.37,0.66 0.04,0.1 0.09,0.22 0.15,0.36 0.35,0.82 0.96,2.24 0.85,2.64 -0.04,0.11 -0.11,0.16 -0.24,0.12l-0.01 0c-0.3,-0.1 -0.51,-0.42 -0.76,-0.82 -0.59,-0.92 -1.47,-2.28 -4.52,-2.28l-14.08 0 -14.08 0c-3.05,0 -3.93,1.36 -4.52,2.28 -0.25,0.4 -0.46,0.72 -0.76,0.82l0 0c-0.14,0.04 -0.21,-0.01 -0.24,-0.12 -0.12,-0.4 0.49,-1.82 0.84,-2.64 0.06,-0.14 0.11,-0.26 0.16,-0.36 0.1,-0.25 0.22,-0.47 0.36,-0.66 0.14,-0.2 0.31,-0.36 0.49,-0.5zm-3.56 0.7c-0.7,2.26 -0.98,4.78 -1.12,6.65l0 0.01c-0.01,0.08 -0.03,0.24 -0.05,0.42 -0.04,0.3 -0.08,0.63 -0.12,0.74 -0.02,0.09 -0.1,0.14 -0.2,0.2 -0.14,0.09 -0.33,0.21 -0.42,0.49 -0.04,0.13 -0.06,0.69 -0.07,1.38 -0.02,1.14 0,2.62 0.01,3.1 0,0.13 0.01,0.22 0.02,0.3 0.02,0.08 0.06,0.14 0.12,0.22 0.04,0.06 0.12,0.14 0.2,0.21 0.07,0.05 0.14,0.09 0.19,0.11l0.04 0.01 -0.08 4.63 -0.05 0c-0.57,0 -0.97,0.49 -1.15,1.09 -0.08,0.26 -0.11,0.55 -0.1,0.82 0.01,0.28 0.07,0.54 0.18,0.77 0.21,0.43 0.6,0.71 1.22,0.63l0.05 -0.01 0 0.06c0,0.32 -0.02,0.67 -0.04,1.04 -0.04,0.54 -0.08,1.1 -0.04,1.57l0.01 0.05 -0.05 0.01c-1.58,0.16 -2.9,1.89 -3.91,4.16 -0.85,1.91 -1.48,4.21 -1.88,6.29 -0.39,2.07 -0.55,3.91 -0.44,4.92 0.04,0.43 0.13,0.7 0.26,0.76 0.06,0.02 0.11,0.04 0.17,0.04 0.25,0.03 0.54,-0.08 0.79,-0.24 0.24,-0.15 0.43,-0.33 0.49,-0.46 0,-0.01 0.01,-0.03 0.01,-0.04l0 0 0.1 0.01 0 0.01c-0.01,0.03 0.02,3.65 0.04,6.74 0.02,2.02 0.04,3.81 0.06,4.24 0.08,2.01 0.68,3.12 1.57,3.75 0.89,0.63 2.08,0.79 3.34,0.91l0.05 0 0 0.05c0,1.48 0.15,2.7 0.79,3.57 0.64,0.87 1.76,1.4 3.71,1.51l0.05 0 0 0.05c0,0.84 0.8,1.23 1.8,1.41 1.02,0.18 2.25,0.14 3.08,0.11l0.06 0 -0.01 0.33 3.84 0 0 -0.55 8.71 0 0.16 0 8.71 0 0 0.55 3.84 0 0 -0.33 0.05 0c0.83,0.03 2.06,0.07 3.08,-0.11 1,-0.18 1.8,-0.57 1.8,-1.41l0 -0.05 0.05 0c1.95,-0.11 3.07,-0.64 3.71,-1.51 0.64,-0.87 0.8,-2.09 0.8,-3.57l0 -0.05 0.04 0c1.26,-0.12 2.46,-0.28 3.35,-0.91 0.89,-0.63 1.48,-1.74 1.56,-3.75 0.02,-0.43 0.04,-2.22 0.06,-4.24 0.03,-3.09 0.05,-6.71 0.04,-6.74l0 -0.01 0.1 -0.01 0 0c0.01,0.01 0.01,0.03 0.02,0.04 0.05,0.13 0.24,0.31 0.49,0.46 0.24,0.16 0.53,0.27 0.78,0.24 0.06,0 0.12,-0.02 0.17,-0.04 0.13,-0.06 0.22,-0.33 0.26,-0.76 0.11,-1.01 -0.05,-2.85 -0.44,-4.92 -0.4,-2.08 -1.03,-4.38 -1.88,-6.29 -1.01,-2.27 -2.33,-4 -3.91,-4.16l-0.05 -0.01 0.01 -0.05c0.04,-0.47 0,-1.03 -0.03,-1.57 -0.03,-0.37 -0.05,-0.72 -0.05,-1.04l0 -0.06 0.06 0.01c0.61,0.08 1,-0.2 1.21,-0.63 0.11,-0.23 0.17,-0.49 0.18,-0.77 0.01,-0.27 -0.02,-0.56 -0.1,-0.82 -0.18,-0.6 -0.58,-1.09 -1.15,-1.09l-0.05 0 -0.08 -4.63 0.04 -0.01c0.05,-0.02 0.12,-0.06 0.19,-0.11 0.08,-0.07 0.16,-0.15 0.2,-0.21 0.07,-0.08 0.1,-0.14 0.12,-0.22 0.02,-0.08 0.02,-0.17 0.02,-0.3 0.01,-0.48 0.03,-1.96 0.02,-3.1 -0.01,-0.69 -0.04,-1.25 -0.08,-1.38 -0.09,-0.28 -0.28,-0.4 -0.42,-0.49 -0.1,-0.06 -0.17,-0.11 -0.2,-0.2 -0.04,-0.11 -0.08,-0.44 -0.12,-0.74 -0.02,-0.18 -0.04,-0.34 -0.05,-0.42l0 -0.01c-0.14,-1.87 -0.42,-4.39 -1.12,-6.65 -0.69,-2.25 -1.79,-4.26 -3.56,-5.13l-0.03 -0.01 0 -0.03c-0.1,-0.92 -0.15,-1.61 -0.2,-2.38 -0.03,-0.35 -0.05,-0.71 -0.08,-1.13l-0.02 -0.28c-0.12,-1.53 -0.44,-5.87 -0.96,-6.57l-0.03 -0.05c-0.02,-0.01 -0.03,-0.02 -0.07,-0.05l-0.13 -0.13c-0.44,-0.34 -1.55,-0.39 -2.35,-0.43 -0.23,-0.01 -0.44,-0.02 -0.6,-0.04l-0.03 0 -0.01 -0.02c-0.03,-0.05 -0.05,-0.08 -0.06,-0.11 -0.02,-0.04 -0.03,-0.06 -0.06,-0.07 -0.03,-0.01 -0.09,-0.02 -0.21,-0.03 -0.11,-0.01 -0.26,-0.03 -0.48,-0.06 -0.21,-0.03 -0.4,-0.06 -0.59,-0.08l-0.45 -0.06c-0.05,-0.01 -0.13,-0.02 -0.21,-0.04 -0.41,-0.07 -1.13,-0.19 -1.3,-0.02 -0.05,0.05 -0.06,0.08 -0.06,0.1 -0.01,0.03 -0.02,0.05 -0.05,0.06 -0.03,0.01 -0.07,0.01 -0.16,0.01l-0.16 0c-0.32,0 -0.67,-0.03 -1.02,-0.07 -0.25,-0.02 -0.5,-0.04 -0.74,-0.06 -0.13,0 -0.26,-0.03 -0.4,-0.06 -0.27,-0.05 -0.56,-0.11 -0.86,-0.04 -1.38,0.34 -1.97,3.16 -2.24,4.48l-0.05 0.2 -0.05 -0.02c-0.65,-0.22 -1.35,-0.41 -2.05,-0.54 -0.66,-0.13 -1.32,-0.2 -1.96,-0.21l-0.08 0 0 0 0 0 0 0 -0.08 0c-0.64,0.01 -1.3,0.08 -1.96,0.21 -0.7,0.13 -1.4,0.32 -2.05,0.54l-0.05 0.02 -0.04 -0.2c-0.28,-1.32 -0.86,-4.14 -2.25,-4.48 -0.3,-0.07 -0.59,-0.01 -0.85,0.04 -0.15,0.03 -0.28,0.06 -0.4,0.06 -0.25,0.02 -0.5,0.04 -0.75,0.06 -0.35,0.04 -0.69,0.07 -1.02,0.07l-0.16 0c-0.09,0 -0.13,0 -0.15,-0.01 -0.04,-0.01 -0.04,-0.03 -0.05,-0.06 -0.01,-0.02 -0.02,-0.05 -0.07,-0.1 -0.17,-0.17 -0.89,-0.05 -1.3,0.02 -0.08,0.02 -0.15,0.03 -0.21,0.04l-0.45 0.06c-0.19,0.02 -0.38,0.05 -0.59,0.08 -0.22,0.03 -0.37,0.05 -0.48,0.06 -0.12,0.01 -0.18,0.02 -0.21,0.03 -0.03,0.01 -0.04,0.03 -0.06,0.07 -0.01,0.03 -0.03,0.06 -0.06,0.11l-0.01 0.02 -0.03 0c-0.15,0.02 -0.36,0.03 -0.6,0.04 -0.79,0.04 -1.9,0.09 -2.35,0.43l-0.13 0.13c-0.03,0.03 -0.05,0.04 -0.06,0.05l-0.04 0.05c-0.52,0.7 -0.84,5.04 -0.95,6.57l-0.02 0.28c-0.04,0.42 -0.06,0.78 -0.09,1.13 -0.05,0.77 -0.1,1.46 -0.2,2.38l0 0.03 -0.02 0.01c-1.78,0.87 -2.88,2.88 -3.57,5.13zm13.63 8.04c2.53,-0.01 5.07,-0.02 7.6,-0.02l0.08 0 0.08 0c2.53,0 5.07,0.01 7.6,0.02 0.01,0.72 0.01,1.44 0.01,2.17l-0.04 0.01c-0.45,0.12 -0.84,0.28 -1.22,0.43 -0.65,0.26 -1.27,0.52 -2.17,0.58 -0.98,0.06 -2.07,0.05 -3.12,0.03 -0.38,0 -0.76,-0.01 -1.13,-0.01l-0.01 0c-0.37,0.01 -0.75,0.01 -1.14,0.01 -1.05,0.02 -2.14,0.03 -3.12,-0.03 -0.89,-0.06 -1.52,-0.32 -2.16,-0.58 -0.39,-0.15 -0.78,-0.31 -1.23,-0.43l-0.04 -0.01c0,-0.73 0.01,-1.45 0.01,-2.17zm7.6 3.56l0 0zm0.16 0l0 0zm-7.19 -0.89c0.3,0.1 0.56,0.21 0.8,0.31 0.68,0.27 1.24,0.51 2.24,0.56 0.99,0.05 2.06,0.03 3.09,0.02 0.3,0 0.61,0 0.9,0l0.08 0 0 0 0.08 0c0.3,0 0.6,0 0.9,0 1.04,0.01 2.1,0.03 3.09,-0.02 1,-0.05 1.57,-0.29 2.24,-0.56 0.25,-0.1 0.51,-0.21 0.8,-0.31l0.27 -0.1 -0.22 0.18c-0.36,0.31 -0.56,0.61 -0.64,0.89 -0.07,0.21 -0.06,0.42 -0.01,0.61 0.05,0.19 0.15,0.36 0.27,0.5 0.21,0.25 0.48,0.42 0.68,0.48l0.05 0.01 -0.02 0.06c-0.99,2.35 -0.86,3.11 -0.5,5.15 0.04,0.27 0.1,0.56 0.15,0.9l0.01 0.06c-2.38,-0.01 -4.77,-0.01 -7.15,-0.01 -2.38,0 -4.76,0 -7.15,0.01l0.01 -0.06c0.06,-0.34 0.11,-0.63 0.15,-0.9 0.36,-2.04 0.49,-2.8 -0.5,-5.15l-0.02 -0.06 0.05 -0.01c0.21,-0.06 0.47,-0.23 0.68,-0.48 0.12,-0.14 0.22,-0.31 0.27,-0.5 0.05,-0.19 0.06,-0.4 0,-0.61 -0.09,-0.28 -0.28,-0.58 -0.65,-0.89l-0.22 -0.18 0.27 0.1zm-0.09 0.68c0.03,0.46 0.05,0.71 0,0.89 -0.05,0.19 -0.16,0.29 -0.39,0.44l-0.35 0.24c-0.18,0.14 -0.3,0.23 -0.36,0.32 -0.07,0.09 -0.09,0.19 -0.09,0.34 0,0.18 -0.01,0.38 0,0.57 0,0.2 0,0.39 0.01,0.57 0.02,0.28 0.12,0.33 0.39,0.47 0.05,0.02 0.11,0.05 0.16,0.08l0.21 0.12c0.35,0.18 0.49,0.25 0.56,0.38 0.05,0.1 0.04,0.22 0.03,0.42 0,0.16 -0.01,0.38 0,0.68l0.01 0.05 -5.48 0.01 -0.06 0 0 -0.05c0.01,-0.18 0.01,-0.35 0,-0.51 0,-0.13 0,-0.26 0,-0.39l0 -0.04c0,-0.15 0,-0.21 0.05,-0.27 0.04,-0.04 0.09,-0.07 0.19,-0.12 0.05,-0.02 0.11,-0.05 0.18,-0.08 0.11,-0.06 0.21,-0.11 0.3,-0.16 0.31,-0.15 0.47,-0.23 0.54,-0.36 0.07,-0.13 0.07,-0.32 0.07,-0.72 -0.01,-0.12 -0.01,-0.27 0,-0.43l0 -0.09c0,-0.1 0,-0.21 -0.02,-0.31 -0.02,-0.13 -0.04,-0.15 -0.11,-0.21l-0.05 -0.04c-0.27,-0.21 -0.71,-0.49 -0.92,-0.73 -0.15,-0.15 -0.11,-0.54 -0.07,-0.86 0.01,-0.11 0.02,-0.21 0.02,-0.28 0.01,-0.46 0.09,-0.52 0.34,-0.68l0.17 -0.11 0 0.1c0,0.14 -0.01,0.28 -0.01,0.42 -0.01,0.34 -0.02,0.65 0.03,0.98 0.43,0.15 1.53,0.13 2.3,0.11 0.18,0 0.35,-0.01 0.48,-0.01l0.33 0c0.58,0 0.85,0 0.97,-0.12 0.09,-0.1 0.09,-0.32 0.08,-0.73 0,-0.18 -0.01,-0.39 -0.01,-0.65l0.01 -0.1 0.08 0.06c0.16,0.12 0.26,0.2 0.31,0.32 0.06,0.11 0.08,0.25 0.1,0.48zm-4.32 5.91l3.41 0c0.03,0 0.07,0.02 0.1,0.04 0.02,0.03 0.04,0.06 0.04,0.1l0 1.13c0,0.04 -0.02,0.08 -0.04,0.1 -0.03,0.03 -0.07,0.04 -0.1,0.04l-3.41 0c-0.04,0 -0.07,-0.01 -0.1,-0.04 -0.02,-0.02 -0.04,-0.06 -0.04,-0.1l0 -1.13c0,-0.04 0.02,-0.07 0.04,-0.1 0.03,-0.02 0.06,-0.04 0.1,-0.04zm4.34 2.36l7.1 0 0.16 0 7.1 0 0 0.05c0,0.1 0.04,0.2 0.11,0.27 0.07,0.07 0.17,0.11 0.28,0.11l0.05 0 0 0.76 -7.54 0 -0.16 0 -7.54 0 0 -0.76 0.06 0c0.1,0 0.2,-0.04 0.27,-0.11 0.07,-0.07 0.11,-0.17 0.11,-0.27l0 -0.05zm-4.62 -0.65c0.1,-0.06 2.67,-0.04 3.68,-0.03l0.33 0.01 0 0.04c0.01,0.11 0.01,0.2 0.01,0.28 0,0.14 -0.01,0.25 0.07,0.34 0.02,0 0.03,0 0.04,0 0.01,0 -0.01,0 0.01,-0.14l0.02 -2.41 0.57 0 0 0.05c-0.01,0.1 -0.02,0.25 -0.03,0.43 -0.04,0.69 -0.1,1.77 -0.32,1.99l-0.02 0.03c-0.13,0.13 -0.18,0.18 -0.44,0.22 -0.14,0.03 -0.26,0.03 -0.39,0.04 -0.07,0.01 -0.14,0.01 -0.21,0.02 -0.44,0.05 -1.62,0.11 -2.53,0.04 -0.58,-0.04 -1.07,-0.14 -1.21,-0.33 -0.07,-0.1 -0.14,-0.56 -0.2,-1.06 -0.06,-0.6 -0.1,-1.27 -0.07,-1.41l0.01 -0.04 0.49 0.01 0.05 0 0 0.05c-0.05,0.49 -0.04,0.99 -0.02,1.48 0,0.18 0.01,0.36 0.01,0.53 0.01,0.46 0.01,0.47 0.09,0.5l0.04 -0.62 0.02 -0.02zm0.9 1.52l2.18 0c0.14,0 0.26,0.06 0.35,0.14 0.08,0.09 0.14,0.22 0.14,0.35l0 16.38c0,0.13 -0.06,0.26 -0.14,0.34 -0.09,0.09 -0.21,0.15 -0.35,0.15l-2.18 0c-0.14,0 -0.26,-0.06 -0.35,-0.15 -0.09,-0.08 -0.14,-0.21 -0.14,-0.34l0 -16.38c0,-0.13 0.05,-0.26 0.14,-0.35 0.09,-0.08 0.21,-0.14 0.35,-0.14zm-0.92 2.92c0.01,2.45 0,4.89 0,7.33l-4.88 0.01 -0.05 0 -0.01 -0.62c-0.04,-3.79 -0.08,-6.63 4.89,-6.72l0.05 0zm-4.76 7.52l4.57 0c0.06,0 0.12,0.03 0.16,0.07 0.04,0.04 0.06,0.1 0.06,0.16l0 0.98c0,0.06 -0.02,0.12 -0.06,0.16 -0.04,0.04 -0.1,0.07 -0.16,0.07l-4.57 0c-0.06,0 -0.11,-0.03 -0.16,-0.07 -0.04,-0.04 -0.06,-0.1 -0.06,-0.16l0 -0.98c0,-0.06 0.02,-0.12 0.06,-0.16 0.05,-0.04 0.1,-0.07 0.16,-0.07zm0.13 1.77l4.32 0c0.1,0 0.18,0.04 0.24,0.1 0.07,0.06 0.1,0.15 0.1,0.24l0 1.63c0,0.09 -0.03,0.18 -0.1,0.24 -0.06,0.06 -0.14,0.1 -0.24,0.1l-4.32 0c-0.09,0 -0.18,-0.04 -0.24,-0.1 -0.06,-0.06 -0.1,-0.15 -0.1,-0.24l0 -1.63c0,-0.09 0.04,-0.18 0.1,-0.24 0.06,-0.06 0.15,-0.1 0.24,-0.1zm-1.11 -6.04l0 12.72 -2.29 0 0.01 -2.38c0,-1.9 0,-4.64 0,-7.7 0,-2.97 0.12,-5.19 1.11,-6.63 1,-1.45 2.87,-2.11 6.36,-1.95l0.05 0 0 2.07 -0.05 0c-0.14,-0.01 -0.27,-0.01 -0.41,-0.01 -1.27,0 -2.45,0.23 -3.31,0.81 -0.86,0.57 -1.41,1.49 -1.46,2.86 -0.01,0.07 -0.01,0.14 -0.01,0.21zm-2.28 13.05l2.16 0 0.06 0 -0.01 0.05c-0.06,0.97 -0.01,5.25 0.13,8.7 0.09,2.34 0.23,4.31 0.41,4.58 0.3,0.47 0.73,0.82 1.28,1.03 0.56,0.22 1.25,0.31 2.07,0.26l0.05 0 0 0.98 -0.05 0c-0.92,0.04 -1.72,-0.07 -2.41,-0.31 -0.68,-0.25 -1.25,-0.64 -1.7,-1.17 -0.51,-0.6 -0.93,-2.55 -1.25,-4.83 -0.49,-3.47 -0.76,-7.73 -0.75,-9.24l0.01 -0.05zm-2.45 2.09c0.01,1.56 0.02,3.12 0.06,4.66 0.01,0.65 0.02,1.3 0.03,1.95 0.02,0.81 0.03,1.63 0.05,2.43 0.01,0.39 0.02,0.77 0.03,1.16 0.03,1.09 0.06,2.2 0.07,3.28l0 0.05 -0.06 0c-0.21,-0.01 -0.43,-0.02 -0.65,-0.06 -0.97,-0.14 -1.97,-0.57 -2.72,-1.25 -0.75,-0.69 -1.26,-1.62 -1.24,-2.79 0.01,-0.17 0.02,-0.35 0.05,-0.53l0.01 -0.05 0.04 0c0.31,0.03 0.88,0.04 1.51,0.05 0.95,0.01 2.01,0.01 2.46,0 0.02,-0.55 0.03,-1.07 0.04,-1.62 0,-0.55 -0.01,-1.13 -0.04,-1.77 -0.6,-0.03 -1.23,-0.04 -1.86,-0.04 -0.74,-0.01 -1.49,-0.01 -2.19,-0.06l-0.03 0 -0.01 -0.02c-0.06,-0.08 -0.1,-0.51 -0.12,-0.96 -0.03,-0.47 -0.02,-0.96 0.02,-1.07l0.01 -0.04 0.04 0c0.57,0.03 1.37,0.06 2.22,0.07 0.64,0 1.3,0 1.89,-0.02 0.01,-0.1 0,-0.53 -0.01,-1.06 -0.02,-0.93 -0.05,-2.15 -0.06,-2.43 -0.37,0 -1.3,0 -2.18,-0.01 -0.88,0 -1.7,-0.01 -1.87,-0.02l-0.05 0c-0.03,-0.72 -0.05,-1.44 -0.07,-2.16l0.06 0c1.15,0.08 2.3,0.07 3.44,0.06l0.57 0c0.02,-0.18 0.03,-0.76 0.03,-1.38 0,-0.81 -0.01,-1.69 -0.03,-1.9 -0.24,-0.01 -0.77,-0.02 -1.37,-0.03 -1.04,-0.03 -2.3,-0.04 -2.62,-0.05l-0.04 0 -0.01 -0.03c-0.02,-0.08 -0.01,-0.37 0.03,-0.73 0.06,-0.6 0.17,-1.41 0.2,-1.62 0.02,-0.13 0.09,-0.61 0.16,-0.98 0.04,-0.21 0.08,-0.4 0.11,-0.46l0.06 -0.2c0,-0.07 0.02,-0.17 0.04,-0.26 0.03,-0.09 0.06,-0.19 0.09,-0.26l0.03 -0.04 0.04 0.02c0.88,0.37 1.78,0.3 2.49,0.25 0.77,-0.05 1.32,-0.09 1.37,0.48 0.02,0.19 0.01,0.47 -0.01,0.74 0,0.16 -0.01,0.32 -0.01,0.44l-0.01 3.58c0,1.55 0,3.12 0.01,4.68zm-0.73 0.47l0 2.34c0,0.06 -0.02,0.12 -0.06,0.16 -0.05,0.04 -0.1,0.07 -0.16,0.07l-3.47 0c-0.06,0 -0.12,-0.03 -0.16,-0.07 -0.04,-0.04 -0.06,-0.1 -0.06,-0.16l0 -2.34c0,-0.06 0.02,-0.12 0.06,-0.16 0.04,-0.04 0.1,-0.06 0.16,-0.06l3.47 0c0.06,0 0.11,0.02 0.16,0.06 0.04,0.04 0.06,0.1 0.06,0.16zm-3.5 5.3l3.28 0c0.06,0 0.11,0.03 0.16,0.07 0.04,0.04 0.06,0.1 0.06,0.16l0 2.34c0,0.06 -0.02,0.12 -0.06,0.16 -0.05,0.04 -0.1,0.06 -0.16,0.06l-3.28 0c-0.06,0 -0.12,-0.02 -0.16,-0.06 -0.04,-0.04 -0.07,-0.1 -0.07,-0.16l0 -2.34c0,-0.06 0.03,-0.12 0.07,-0.16 0.04,-0.04 0.1,-0.07 0.16,-0.07zm18.57 -39.59l0 2.95c0,0.14 -0.05,0.26 -0.14,0.35 -0.09,0.09 -0.21,0.14 -0.35,0.14l-2.71 0c-0.14,0 -0.26,-0.05 -0.35,-0.14 -0.09,-0.09 -0.14,-0.21 -0.14,-0.35l0 -2.95 3.64 0 0.05 0zm-4.95 8.51c0.03,0.88 0.18,1.79 0.44,2.81l0.01 0.04 -0.04 0.02c-0.09,0.04 -0.41,0.06 -0.78,0.07 -0.66,0.01 -1.51,-0.02 -1.66,-0.03 -0.35,-0.02 -0.7,-0.08 -1.02,-0.18 -0.33,-0.09 -0.63,-0.22 -0.88,-0.38 -0.47,-0.3 -0.9,-0.67 -1.24,-1.16 -0.34,-0.48 -0.59,-1.09 -0.7,-1.84 -0.09,-0.58 -0.06,-3.86 -0.05,-5.9 0,-0.62 0.01,-1.12 0.01,-1.41 0,-0.31 0,-0.63 0.01,-0.95 0.01,-0.51 0.02,-1.01 0.01,-1.47l-0.01 -0.08 0.07 0.03c0.68,0.23 1.61,0.59 2.45,0.92 0.35,0.14 0.69,0.27 0.99,0.38 0.25,0.1 0.53,0.21 0.8,0.31 0.3,0.12 0.61,0.24 0.93,0.36 0.57,0.21 1.15,0.46 1.72,0.68l0.01 1.51 0 0.02 -0.02 0.02c-0.12,0.11 -0.22,0.19 -0.31,0.25 -0.21,0.15 -0.32,0.23 -0.36,0.68 -0.01,0.15 -0.02,0.29 -0.02,0.43 0,0.12 -0.01,0.25 -0.01,0.37l0 0.02c-0.03,0.37 -0.03,0.42 0.18,0.62 0.33,0.32 0.26,0.42 0.1,0.64 -0.08,0.11 -0.2,0.27 -0.27,0.52 -0.27,0.94 -0.38,1.81 -0.36,2.7zm-13.81 19.94l3.47 0c0.06,0 0.11,0.03 0.16,0.07 0.04,0.04 0.06,0.1 0.06,0.16l0 2.34c0,0.06 -0.02,0.12 -0.06,0.16 -0.05,0.04 -0.1,0.06 -0.16,0.06l-3.47 0c-0.06,0 -0.12,-0.02 -0.16,-0.06 -0.04,-0.04 -0.06,-0.1 -0.06,-0.16l0 -2.34c0,-0.06 0.02,-0.12 0.06,-0.16 0.04,-0.04 0.1,-0.07 0.16,-0.07zm19.32 -15.07l7.31 0 0.16 0 7.31 0c0.06,0 0.12,0.03 0.16,0.07 0.04,0.04 0.07,0.1 0.07,0.16l0 0.74c0,0.07 -0.03,0.12 -0.07,0.16 -0.04,0.04 -0.1,0.07 -0.16,0.07l-7.31 0 -0.16 0 -7.31 0c-0.06,0 -0.12,-0.03 -0.16,-0.07 -0.04,-0.04 -0.07,-0.09 -0.07,-0.16l0 -0.74c0,-0.06 0.03,-0.12 0.07,-0.16 0.04,-0.04 0.1,-0.07 0.16,-0.07zm0.09 1.53l7.22 0 0.16 0 7.22 0c0.09,0 0.17,0.04 0.22,0.1 0.06,0.05 0.1,0.13 0.1,0.22l0 6.9c0,0.08 -0.04,0.16 -0.09,0.22 -0.06,0.06 -0.14,0.09 -0.23,0.09l-7.22 0 -0.16 0 -7.22 0c-0.09,0 -0.17,-0.03 -0.22,-0.09 -0.06,-0.06 -0.1,-0.14 -0.1,-0.22l0 -6.9c0,-0.09 0.04,-0.17 0.1,-0.22 0.05,-0.06 0.13,-0.1 0.22,-0.1zm-0.09 7.87l7.31 0 0.16 0 7.31 0c0.06,0 0.12,0.02 0.16,0.06 0.04,0.04 0.07,0.1 0.07,0.16l0 0.74c0,0.07 -0.03,0.12 -0.07,0.16 -0.04,0.05 -0.1,0.07 -0.16,0.07l-7.31 0 -0.16 0 -7.31 0c-0.06,0 -0.12,-0.02 -0.16,-0.07 -0.04,-0.04 -0.07,-0.09 -0.07,-0.16l0 -0.74c0,-0.06 0.03,-0.12 0.07,-0.16 0.04,-0.04 0.1,-0.06 0.16,-0.06zm-0.18 1.8c2.51,0 5.02,0 7.53,0l0.08 0c2.51,0 5.02,0 7.53,0 0,0.96 -0.01,1.92 -0.01,2.88l-0.05 0 -7.43 0 -0.16 0 -7.43 0 -0.05 0c0,-0.96 0,-1.92 -0.01,-2.88zm-1.23 15.41c2.91,0 5.81,0 8.72,0l0.02 0 0.12 0 0.02 0c2.91,0 5.82,0 8.72,0l-0.01 1.06 -0.08 0.03c-0.25,0.08 -0.28,0.09 -0.39,0.3 -0.07,0.11 -0.11,0.36 -0.13,0.62 -0.03,0.31 -0.03,0.65 0,0.81 0.03,0.19 0.15,0.28 0.26,0.36 0.13,0.09 0.24,0.17 0.24,0.37l0 0.01 -0.32 0.86c-0.12,0.5 -0.1,0.84 -0.08,1.07 0.01,0.27 0.02,0.42 -0.17,0.56 -0.13,0.09 -0.29,0.08 -0.5,0.07 -0.07,0 -0.15,0 -0.23,0l-7.31 0 -0.08 0 -0.08 0 -7.31 0c-0.08,0 -0.16,0 -0.23,0 -0.21,0.01 -0.37,0.02 -0.49,-0.07 -0.2,-0.14 -0.19,-0.29 -0.17,-0.56 0.01,-0.23 0.03,-0.57 -0.09,-1.07l-0.31 -0.86 0 -0.01c-0.01,-0.2 0.11,-0.28 0.23,-0.37 0.11,-0.08 0.23,-0.17 0.27,-0.36 0.03,-0.16 0.03,-0.5 0,-0.81 -0.03,-0.26 -0.07,-0.51 -0.14,-0.62 -0.11,-0.21 -0.14,-0.22 -0.39,-0.3l-0.08 -0.03 -0.01 -1.06zm0.15 1.23c0.03,0 0.06,0.01 0.09,0.04 0.05,0.04 0.11,0.15 0.17,0.3 0.08,0.24 0.12,0.56 0.11,0.84 -0.02,0.28 -0.08,0.53 -0.19,0.61l-0.63 0.46c-0.14,0.1 -0.22,0.16 -0.27,0.26 -0.05,0.09 -0.07,0.22 -0.08,0.44 -0.01,0.15 -0.02,0.43 -0.02,0.68 0,0.16 0.01,0.3 0.03,0.39 0.06,0.25 0.38,0.39 0.66,0.53 0.27,0.12 0.51,0.23 0.56,0.42 0.03,0.12 0.04,0.32 0.03,0.51 -0.01,0.22 -0.04,0.43 -0.08,0.52l-0.01 0.03c-1.66,0.01 -3.33,0.01 -4.99,0.01l0 -0.05c0,-0.05 0,-0.12 0,-0.2 -0.01,-0.3 -0.01,-0.76 0.03,-0.88 0.04,-0.13 0.12,-0.16 0.23,-0.21 0.03,-0.01 0.07,-0.03 0.1,-0.05 0.09,-0.04 0.18,-0.09 0.26,-0.13 0.37,-0.18 0.6,-0.3 0.62,-0.57 0,-0.15 0,-0.32 0,-0.49 0,-0.2 0,-0.41 -0.01,-0.59 -0.01,-0.43 -0.26,-0.59 -0.54,-0.76 -0.16,-0.1 -0.33,-0.2 -0.47,-0.36 -0.05,-0.06 -0.09,-0.16 -0.11,-0.27 -0.04,-0.23 -0.03,-0.54 0.01,-0.81 0.04,-0.28 0.12,-0.53 0.22,-0.62 0.03,-0.03 0.06,-0.04 0.09,-0.05 0.06,-0.01 0.1,0.04 0.11,0.13 0.02,0.08 0.02,0.2 0.02,0.34 0.01,0.37 0.02,0.86 0.24,0.91 0.12,0.03 0.87,0.05 1.63,0.05 0.82,0 1.65,-0.02 1.8,-0.05 0.33,-0.06 0.3,-0.42 0.28,-0.78 0,-0.07 -0.01,-0.13 -0.01,-0.2 -0.01,-0.17 0.01,-0.28 0.04,-0.33 0.02,-0.04 0.04,-0.07 0.08,-0.07zm-4.09 6.37l4 0c0.08,0 0.16,0.03 0.22,0.09 0.06,0.05 0.09,0.13 0.09,0.22l0 0.72c0,0.09 -0.03,0.17 -0.09,0.22 -0.06,0.06 -0.14,0.09 -0.22,0.09l-4 0c-0.09,0 -0.16,-0.03 -0.22,-0.09 -0.06,-0.05 -0.09,-0.13 -0.09,-0.22l0 -0.72c0,-0.09 0.03,-0.17 0.09,-0.22 0.06,-0.06 0.13,-0.09 0.22,-0.09zm0.53 1.61l2.94 0c0.05,0 0.11,0.03 0.15,0.06 0.04,0.04 0.06,0.1 0.06,0.16l0 0.44c0,0.06 -0.02,0.11 -0.06,0.15 -0.04,0.04 -0.1,0.07 -0.15,0.07l-2.94 0c-0.05,0 -0.11,-0.03 -0.15,-0.07 -0.04,-0.04 -0.06,-0.09 -0.06,-0.15l0 -0.44c0,-0.06 0.02,-0.12 0.06,-0.16 0.04,-0.03 0.1,-0.06 0.15,-0.06zm-0.11 1.1l3.02 0c0.09,0 0.16,0.03 0.22,0.09 0.06,0.06 0.09,0.14 0.09,0.22l0 2.01c0,0.09 -0.03,0.17 -0.09,0.23 -0.06,0.05 -0.13,0.09 -0.22,0.09l-3.02 0c-0.09,0 -0.17,-0.04 -0.23,-0.09 -0.05,-0.06 -0.09,-0.14 -0.09,-0.23l0 -2.01c0,-0.08 0.04,-0.16 0.09,-0.22 0.06,-0.06 0.14,-0.09 0.23,-0.09zm0.04 3.05l2.93 0c0.06,0 0.12,0.03 0.15,0.06 0.04,0.04 0.07,0.1 0.07,0.16l0 0.44c0,0.06 -0.03,0.11 -0.07,0.15 -0.03,0.04 -0.09,0.06 -0.15,0.06l-2.93 0c-0.06,0 -0.11,-0.02 -0.15,-0.06 -0.04,-0.04 -0.06,-0.09 -0.06,-0.15l0 -0.44c0,-0.06 0.02,-0.12 0.06,-0.16 0.04,-0.03 0.09,-0.06 0.15,-0.06zm0.35 -60.18c0,0.83 0,1.61 0.01,2.36 0.01,1.47 0.02,2.87 -0.01,4.46l0 0.07 -0.07 -0.02c-0.87,-0.33 -1.81,-0.66 -2.71,-0.97 -1.97,-0.7 -3.78,-1.34 -4.41,-1.74l-0.03 -0.02 0.01 -0.03c1.09,-4.58 3.76,-4.39 7.04,-4.17l0.17 0.02 0 0.04zm-0.34 46.81l3.06 0c0.06,0 0.12,0.02 0.16,0.06 0.04,0.04 0.06,0.1 0.06,0.16l0 1.71c0,0.06 -0.02,0.12 -0.06,0.16 -0.04,0.04 -0.1,0.07 -0.16,0.07l-3.06 0c-0.07,0 -0.12,-0.03 -0.16,-0.07 -0.05,-0.04 -0.07,-0.1 -0.07,-0.16l0 -1.71c0,-0.06 0.02,-0.12 0.07,-0.16 0.04,-0.04 0.09,-0.06 0.16,-0.06zm-10.41 -29.21c0,0.91 0,1.82 0,2.73l-0.58 0.01 -0.05 0c-0.01,-0.9 -0.01,-1.81 -0.01,-2.71l0.64 -0.03zm22.05 -23.57c-4.23,0 -8.42,0.15 -12.14,0.48 -1.08,0.09 -1.98,0.21 -2.8,0.44 -0.82,0.22 -1.57,0.55 -2.34,1.08l-0.48 0.36c-0.22,0.18 -0.44,0.39 -0.65,0.61 -0.21,0.22 -0.4,0.45 -0.58,0.67 -0.1,0.13 -0.42,0.61 -0.71,1.08 -0.26,0.42 -0.5,0.83 -0.57,0.98l-0.06 0.14c-0.02,-0.07 -0.04,-0.15 -0.05,-0.23 0,-0.02 0,-0.03 0,-0.07 0,-0.02 0.01,-0.06 0.02,-0.09l0.02 -0.09c0.41,-1.72 0.78,-2.75 1.41,-3.56 0.64,-0.8 1.53,-1.37 3,-2.14 0.4,-0.21 0.82,-0.4 1.27,-0.56 0.44,-0.16 0.91,-0.29 1.38,-0.39l0.07 -0.01 -0.01 0.07c-0.15,1.06 -0.03,1.4 0.36,1.46 0.23,0.03 0.55,-0.03 0.96,-0.1 0.09,-0.01 0.18,-0.03 0.29,-0.05 0.39,-0.06 0.8,-0.13 1.21,-0.19 0.55,-0.09 1.09,-0.18 1.65,-0.28l0.09 -0.01c0.46,-0.08 0.78,-0.14 1.1,-0.4 0.09,-0.07 0.17,-0.15 0.26,-0.23 0.24,-0.22 0.49,-0.45 0.75,-0.46 1.95,0.01 4.53,-0.09 7.1,-0.14l0 0 0.08 0 0.08 0 0 0c2.58,0.05 5.15,0.15 7.1,0.14 0.26,0.01 0.51,0.24 0.75,0.46 0.09,0.08 0.18,0.16 0.26,0.23 0.32,0.26 0.64,0.32 1.11,0.4l0.08 0.01c0.56,0.1 1.11,0.19 1.65,0.28 0.41,0.06 0.82,0.13 1.22,0.19 0.1,0.02 0.19,0.04 0.28,0.05 0.41,0.07 0.73,0.13 0.96,0.1 0.39,-0.06 0.51,-0.4 0.36,-1.46l-0.01 -0.07 0.07 0.01c0.48,0.1 0.94,0.23 1.38,0.39 0.45,0.16 0.87,0.35 1.28,0.56 1.46,0.77 2.35,1.34 2.99,2.14 0.63,0.81 1,1.84 1.41,3.56l0.02 0.09c0.01,0.03 0.02,0.07 0.02,0.09 0.01,0.04 0,0.05 0,0.07 0,0.08 -0.03,0.16 -0.05,0.23l-0.06 -0.14c-0.07,-0.15 -0.31,-0.56 -0.57,-0.98 -0.29,-0.47 -0.61,-0.95 -0.71,-1.08 -0.18,-0.22 -0.37,-0.45 -0.58,-0.67 -0.21,-0.22 -0.43,-0.43 -0.65,-0.61l-0.47 -0.36c-0.78,-0.53 -1.53,-0.86 -2.35,-1.08 -0.82,-0.23 -1.72,-0.35 -2.8,-0.44 -3.71,-0.33 -7.91,-0.48 -12.14,-0.48 -0.18,0 -0.37,0 -0.55,0l-0.07 0 -0.01 0 0 0 -0.01 0 -0.07 0c-0.18,0 -0.37,0 -0.55,0zm-5.97 -2.49c-0.42,0.44 -0.81,0.8 -1.25,1.11 -0.44,0.3 -0.92,0.54 -1.49,0.71l0 0c-0.4,0.09 -1.57,0.29 -2.56,0.43 -0.76,0.11 -1.42,0.19 -1.57,0.16l-0.03 0 -0.01 -0.03c-0.06,-0.14 -0.12,-0.35 -0.12,-0.55 0,-0.16 0.04,-0.32 0.13,-0.43 0.22,-0.3 1.13,-0.45 2.13,-0.61 1.36,-0.22 2.91,-0.47 3.1,-1.13 0.12,-0.38 0.33,-1 0.63,-1.5 0.21,-0.34 0.45,-0.63 0.73,-0.76l0.07 -0.03 0 0.07c0.07,0.6 0.17,0.82 0.36,1.27 0.05,0.11 0.1,0.23 0.16,0.37 0.04,0.11 0.07,0.22 0.03,0.37 -0.03,0.14 -0.12,0.31 -0.3,0.55l-0.01 0zm-2.41 -0.06c-0.24,0.05 -0.55,0.09 -0.86,0.14 -0.23,0.03 -0.46,0.07 -0.65,0.1l-0.05 0.01 -0.01 -0.05c-0.02,-0.19 -0.05,-0.33 -0.08,-0.46 -0.03,-0.14 -0.06,-0.27 -0.11,-0.45l-0.01 -0.05 0.05 -0.02c0.29,-0.06 1.06,-0.2 1.69,-0.31 0.32,-0.06 0.6,-0.11 0.74,-0.13l0.09 -0.02 -0.03 0.1c-0.12,0.39 -0.31,1.04 -0.77,1.14zm5.3 0.66c-0.2,0.01 -0.42,0 -0.53,0 -0.23,-0.02 -0.41,-0.27 -0.56,-0.6 -0.24,-0.55 -0.38,-1.31 -0.41,-1.56l-0.01 -0.03 0.03 -0.02c0.13,-0.07 0.57,-0.29 0.92,-0.46 0.22,-0.1 0.4,-0.17 0.48,-0.18l0.04 0c0.17,0.94 0.34,1.89 0.51,2.83l-0.05 0.01c-0.09,0.01 -0.25,0.01 -0.42,0.01zm-1.74 -1.96c0.06,0.13 0.11,0.38 0.16,0.62 0.04,0.2 0.08,0.4 0.13,0.54 0.13,0.38 0.2,0.49 0.34,0.69 0.04,0.05 0.08,0.12 0.14,0.2l0.05 0.08 -2.24 0 0.06 -0.08c0.04,-0.07 0.07,-0.09 0.11,-0.12 0.02,-0.01 0.04,-0.02 0.06,-0.05 0.83,-0.82 0.66,-1.22 0.52,-1.58 -0.05,-0.11 -0.1,-0.23 -0.11,-0.35l-0.02 -0.13 0.1 0.09c0.1,0.08 0.19,0.13 0.28,0.14 0.1,0.01 0.21,-0.02 0.36,-0.08l0.04 -0.02 0.02 0.05zm-16.54 20.08c-0.02,0.59 -0.05,1.19 -0.11,1.75l-0.01 0.04 -0.72 0.01 -0.05 0 0 -0.05c-0.03,-0.64 -0.02,-1.48 -0.01,-2.32 0,-0.6 0.01,-1.19 0,-1.72 -0.01,-0.3 0.01,-0.49 0.08,-0.64 0.06,-0.15 0.18,-0.26 0.38,-0.38l0.09 -0.06 -0.01 0.1c-0.02,0.24 -0.02,0.43 0,0.63 0.02,0.18 0.06,0.37 0.15,0.58 0.08,0.2 0.14,0.31 0.18,0.38 0.1,0.18 0.12,0.2 0.08,0.79 -0.02,0.29 -0.03,0.59 -0.05,0.89zm15.34 -21.91l-0.84 0.63 -0.02 -0.12c-0.1,-0.55 -0.12,-0.64 -0.62,-0.78l-0.03 -0.01 -0.01 -0.02c-0.11,-0.39 -0.17,-0.75 -0.23,-1.14l-0.05 -0.27 0.06 0c0.35,-0.03 0.53,-0.25 0.59,-0.55 0.03,-0.18 0.03,-0.39 -0.01,-0.61 -0.03,-0.22 -0.1,-0.45 -0.19,-0.68 -0.29,-0.72 -0.79,-1.37 -1.23,-1.33l-0.02 0 -0.01 -0.01c-0.05,-0.04 -0.13,-0.2 -0.2,-0.37 -0.1,-0.26 -0.18,-0.56 -0.18,-0.6l0.01 -0.04c0.72,-0.05 1.45,-0.1 2.17,-0.15l0.01 0.04c0.24,0.78 0.6,2 0.9,3.13 0.21,0.77 0.39,1.51 0.48,2.04l0 0.04 -0.04 0.01c-0.22,0.06 -0.34,0.14 -0.41,0.25 -0.07,0.12 -0.09,0.29 -0.13,0.52l0 0.02zm-1.62 -1.95c-0.06,0.05 -0.14,0.08 -0.23,0.1l-0.04 0 -0.02 -0.04c-0.09,-0.26 -0.08,-0.29 -0.05,-0.36 0.02,-0.06 0.05,-0.14 -0.03,-0.63l-0.02 -0.14c-0.04,-0.26 -0.08,-0.54 -0.21,-0.72 -0.1,-0.13 -0.22,-0.24 -0.36,-0.32 -0.31,-0.19 -0.72,-0.27 -1.13,-0.24 -0.41,0.02 -0.82,0.16 -1.15,0.39 -0.17,0.13 -0.33,0.29 -0.44,0.47 -0.19,0.32 -0.11,0.74 -0.04,1.11 0.03,0.12 0.05,0.24 0.06,0.35 0.03,0.23 0.03,0.23 0.15,0.27l0.09 0.03 0.07 0.48 -0.06 -0.01c-0.3,-0.01 -0.47,-0.09 -0.58,-0.23 -0.11,-0.14 -0.15,-0.33 -0.2,-0.59 -0.02,-0.07 -0.04,-0.15 -0.05,-0.22 -0.09,-0.4 -0.16,-0.68 0.01,-1.15 0.11,-0.33 0.33,-0.62 0.61,-0.85 0.32,-0.27 0.72,-0.46 1.14,-0.55 0.43,-0.09 0.88,-0.07 1.29,0.08 0.35,0.12 0.67,0.33 0.93,0.65 0.13,0.15 0.36,0.69 0.44,1.2 0.03,0.19 0.04,0.37 0.02,0.52 -0.03,0.17 -0.09,0.3 -0.2,0.4zm-1.17 3.67c-0.46,0.08 -0.93,0.17 -1.39,0.21l-0.04 0 -0.01 -0.02c-0.05,-0.09 -0.12,-0.33 -0.18,-0.58 -0.06,-0.24 -0.1,-0.49 -0.09,-0.59l0.01 -0.04c0.97,-0.17 1.94,-0.34 2.92,-0.51l0.02 0.03c0.13,0.21 0.21,0.39 0.24,0.55 0.02,0.14 0.01,0.26 -0.04,0.36 -0.05,0.11 -0.12,0.2 -0.23,0.27 -0.15,0.1 -0.35,0.17 -0.6,0.21 -0.2,0.04 -0.41,0.07 -0.61,0.11zm0.7 -4.29l0.44 2.31 -0.04 0.01c-0.12,0.06 -0.73,0.18 -1.37,0.28 -0.63,0.11 -1.29,0.21 -1.51,0.25l-0.06 0.01 0 -0.05c-0.02,-0.15 -0.07,-0.4 -0.13,-0.69 -0.12,-0.6 -0.27,-1.36 -0.25,-1.57l0.01 -0.04 0.03 -0.01c0.13,-0.05 0.76,-0.17 1.39,-0.28 0.65,-0.12 1.3,-0.22 1.44,-0.22l0.05 0zm-2.95 -2.07c-0.16,0.09 -0.33,0.18 -0.54,0.26l-0.04 0.02 -0.02 -0.04c-0.04,-0.07 -0.24,-0.47 -0.4,-0.81 -0.12,-0.25 -0.22,-0.48 -0.22,-0.52l0 -0.04c0.94,-0.13 1.88,-0.25 2.82,-0.37l0.02 0.02c0.16,0.24 0.25,0.37 0.33,0.52 0.07,0.15 0.13,0.32 0.22,0.61l0.02 0.08 -0.08 -0.01c-1.19,-0.21 -1.59,0 -2.11,0.28zm-10.98 45.98l0.02 0.71 0.01 0.05 -0.06 0c-0.22,0 -0.47,0 -0.74,0.01 -0.88,0.02 -1.9,0.04 -2.49,-0.26l-0.03 -0.02 0 -0.03c0,-0.17 0.14,-0.46 0.35,-0.72 0.18,-0.23 0.4,-0.44 0.63,-0.53 0.56,-0.23 1.29,0.2 1.89,0.55 0.14,0.08 0.27,0.16 0.39,0.22l0.03 0.02zm20.56 -37.48c-0.14,0 -0.25,0.01 -0.34,0.01 -0.19,0.02 -0.29,0.02 -0.36,-0.07 -0.05,-0.08 -0.08,-0.23 -0.12,-0.53 -0.03,-0.17 -0.07,-0.39 -0.12,-0.68 -0.03,-0.18 -0.06,-0.34 -0.09,-0.5 -0.04,-0.23 -0.08,-0.46 -0.13,-0.71 -0.02,-0.09 -0.04,-0.16 -0.05,-0.22 -0.04,-0.17 -0.06,-0.26 -0.01,-0.32 0.05,-0.07 0.14,-0.09 0.33,-0.14 0.07,-0.02 0.16,-0.04 0.26,-0.07l0.28 -0.08c0.28,-0.08 0.57,-0.16 0.85,-0.22 0.44,-0.1 0.89,-0.16 1.33,-0.18 0.07,0 0.13,0 0.2,-0.01l0 0 0.08 0 0 0c0.03,0 0.05,0 0.08,0l0 0c0.07,0.01 0.13,0.01 0.2,0.01 0.45,0.02 0.89,0.08 1.33,0.18 0.28,0.06 0.57,0.14 0.85,0.22l0.28 0.08c0.1,0.03 0.19,0.05 0.26,0.07 0.19,0.05 0.29,0.07 0.33,0.14 0.05,0.06 0.03,0.15 -0.01,0.32 -0.01,0.06 -0.03,0.13 -0.05,0.22 -0.05,0.25 -0.09,0.48 -0.13,0.71 -0.03,0.16 -0.05,0.32 -0.09,0.5 -0.05,0.29 -0.09,0.51 -0.11,0.68 -0.05,0.3 -0.07,0.45 -0.13,0.53 -0.07,0.09 -0.17,0.09 -0.36,0.07 -0.09,0 -0.2,-0.01 -0.34,-0.01l-2.03 0 -0.16 0 -2.03 0zm-0.64 -3.66c-0.89,0.29 -1.75,0.67 -2.61,1.12l0 0c-0.03,0.01 -0.05,0.01 -0.07,0.01 -0.11,0.01 -0.21,-0.08 -0.28,-0.23 -0.08,-0.14 -0.14,-0.32 -0.19,-0.51 -0.1,-0.4 -0.15,-0.84 -0.14,-0.95 0.03,-0.24 0.23,-0.33 0.5,-0.44 0.06,-0.02 0.11,-0.05 0.16,-0.07l0.23 -0.08c1.95,-0.69 3.39,-1.2 5.14,-1.19l0 0 0 0 0.01 0 0 0 0 0 0.01 0 0 0 0 0c1.75,-0.01 3.19,0.5 5.14,1.19l0.23 0.08c0.05,0.02 0.1,0.05 0.16,0.07 0.27,0.11 0.48,0.2 0.5,0.44 0.01,0.11 -0.04,0.55 -0.14,0.95 -0.05,0.19 -0.11,0.37 -0.18,0.51 -0.08,0.15 -0.18,0.24 -0.29,0.23 -0.02,0 -0.04,0 -0.07,-0.01l0 0c-0.86,-0.45 -1.72,-0.83 -2.61,-1.12 -0.88,-0.28 -1.78,-0.46 -2.75,-0.49l0 0c-0.96,0.03 -1.87,0.21 -2.75,0.49zm-2.31 -1.46c-0.24,0.09 -0.48,0.18 -0.7,0.27l-0.05 0.02 -0.02 -0.05c0,-0.02 -0.06,-0.24 -0.15,-0.58 -0.32,-1.16 -1,-3.67 -1.14,-4.11l-0.02 -0.05 0.05 -0.01c0.34,-0.13 0.61,-0.16 0.84,-0.12 0.23,0.04 0.41,0.15 0.56,0.31 0.23,0.25 0.46,0.78 0.66,1.38 0.32,0.94 0.58,2.06 0.69,2.6l0.01 0.05 -0.04 0.01c-0.22,0.1 -0.46,0.19 -0.69,0.28zm-17.5 39.45c0.06,1.14 -0.09,2.38 -0.2,2.78l-0.02 0.08 -0.06 -0.06c-1.2,-1 -2.05,-1.01 -2.65,-0.42 -0.62,0.61 -1,1.84 -1.24,3.3 -0.09,0.58 -0.16,1.18 -0.23,1.78 -0.07,0.65 -0.14,1.3 -0.25,1.94 -0.05,0.26 -0.1,0.56 -0.14,0.86 -0.04,0.34 -0.09,0.68 -0.12,0.98 -0.07,0.61 -0.24,1.04 -0.42,1.23 -0.08,0.08 -0.16,0.12 -0.23,0.12 -0.08,0 -0.15,-0.05 -0.21,-0.14 -0.12,-0.18 -0.2,-0.58 -0.15,-1.22 0.09,-1.3 0.8,-5.94 1.96,-9.41 0.7,-2.09 1.56,-3.76 2.55,-4.04 0.13,-0.03 0.25,-0.04 0.36,-0.03 0.36,0.03 0.62,0.32 0.78,0.74 0.16,0.41 0.24,0.95 0.27,1.51zm9.88 20.27l0.02 0.99 0 0.02 -0.02 0.02c-0.01,0 -0.01,0.01 -0.02,0.01l0 0.01 -0.26 0.11c-0.15,0.08 -0.24,0.31 -0.28,0.56 -0.09,0.46 -0.06,1.02 -0.03,1.15 0.04,0.19 0.11,0.23 0.19,0.27 0.06,0.04 0.12,0.07 0.19,0.16 0.16,0.2 0.11,0.3 0.03,0.46 -0.02,0.05 -0.05,0.1 -0.08,0.16 -0.29,0.79 -0.27,1.22 -0.25,1.51 0.01,0.25 0.02,0.41 -0.18,0.62l-0.02 0.02 -0.14 0c-0.64,-0.01 -1.55,-0.02 -2.08,-0.25 -1.41,-0.63 -1.41,-2.01 -1.41,-3.29l0 -0.24c0,-0.18 0,-0.41 -0.01,-0.65 -0.01,-0.61 -0.03,-1.31 0.03,-1.76l0.01 -0.05c1.43,0.05 2.87,0.11 4.31,0.17zm-1.38 -54.37c-1.85,0.4 -2.06,0.52 -3.07,1.09l-0.32 0.18 0.01 -0.09c0.02,-0.26 0.05,-0.82 0.08,-1.54 0.14,-2.85 0.4,-8.3 1.17,-8.56l0.03 -0.01 0.02 0.02c0.34,0.3 0.7,1.46 1.03,2.86 0.54,2.25 1,5.13 1.09,5.99l0.01 0.05 -0.05 0.01zm2.59 -3.8c-0.11,0.08 -0.19,0.2 -0.25,0.35 -0.12,0.34 -0.1,0.83 -0.01,1.31 0.1,0.48 0.28,0.95 0.47,1.24 0.09,0.14 0.18,0.23 0.27,0.26l0.17 0.06 -0.18 0.04c-0.38,0.08 -0.72,0.14 -1.05,0.19 -0.56,0.1 -1.09,0.19 -1.68,0.35l-0.06 0.01 -0.01 -0.05c-0.07,-0.39 -0.12,-0.8 -0.16,-1.2 -0.05,-0.43 -0.1,-0.86 -0.18,-1.27l-0.12 -0.61c-0.32,-1.71 -0.66,-3.52 -1.3,-5.11 -0.07,-0.18 -0.16,-0.36 -0.24,-0.53 -0.08,-0.16 -0.15,-0.3 -0.21,-0.44l-0.01 -0.04 0.03 -0.02c0.16,-0.13 0.6,-0.23 1.09,-0.3 0.74,-0.11 1.62,-0.16 1.83,-0.13l0.03 0c0.01,0.01 0.01,0.02 0.02,0.03 0.05,0.09 0.21,0.45 0.35,0.79 0.15,0.34 0.26,0.66 0.24,0.73l0 0 0 0.01 -0.01 0c-0.11,0.06 -0.24,0.46 -0.31,0.96 -0.04,0.33 -0.05,0.69 0,1.02 0.05,0.33 0.16,0.63 0.35,0.83 0.16,0.17 0.39,0.27 0.7,0.27l0.04 0 0.22 1.2 0 0.03 -0.03 0.02zm-2.32 65.87l0.04 0 0.01 0.05c0.02,0.16 0.02,0.35 0.03,0.55 0.04,0.78 0.09,1.74 0.65,2.05l0.03 0.02c0,0.6 0.01,1.2 0.01,1.79l-0.01 0.01c-0.02,0.07 -0.06,0.09 -0.1,0.11 -0.06,0.02 -0.14,0.05 -0.13,0.54 0,0.49 0.03,0.5 0.15,0.54 0.03,0.01 0.06,0.02 0.1,0.04l0.03 0.01 0.01 0.49 -0.05 0.01c-3.36,0.41 -4.34,-0.92 -4.59,-2.97 -0.11,-0.88 -0.08,-1.89 -0.05,-2.95 0.01,-0.42 0.03,-0.86 0.03,-1.29l0 -0.18 0.1 0.15c0.35,0.58 1.05,0.85 1.78,0.97 0.74,0.12 1.5,0.08 1.96,0.06zm5.7 0.23c2.71,-0.01 5.36,-0.02 8.01,-0.02l0.08 0 0.08 0c2.65,0 5.31,0.01 8.01,0.02l0.04 0 0.01 0.03c0.05,0.15 0.07,0.53 0.09,0.85 0.01,0.17 0.02,0.33 0.04,0.43 0.07,0.59 0.15,0.63 0.31,0.72 0.06,0.03 0.13,0.06 0.2,0.12l0.02 0.02c0,0.64 0,1.29 0,1.93l0 0.01c-0.01,0.03 -0.04,0.05 -0.07,0.07 -0.1,0.07 -0.31,0.22 -0.13,1.17 0.05,0.03 0.06,0.03 0.11,0.04 0.02,0.01 0.04,0.02 0.08,0.03l0.04 0.01 -0.01 0.56c-2.94,0 -5.88,-0.01 -8.82,-0.01 -2.94,0 -5.88,0.01 -8.81,0.01l-0.02 -0.56 0.04 -0.01c0.04,-0.01 0.06,-0.02 0.08,-0.03 0.05,-0.01 0.06,-0.01 0.11,-0.04 0.18,-0.95 -0.03,-1.1 -0.13,-1.17 -0.03,-0.02 -0.05,-0.04 -0.07,-0.07l0 -0.01c0,-0.64 0,-1.29 0,-1.93l0.02 -0.02c0.08,-0.06 0.14,-0.09 0.2,-0.12 0.16,-0.09 0.24,-0.13 0.32,-0.72 0.01,-0.1 0.02,-0.26 0.03,-0.43 0.02,-0.32 0.04,-0.7 0.09,-0.85l0.01 -0.03 0.04 0zm16.08 -40.7c0.27,-0.14 0.37,-0.19 0.39,-0.47 0.01,-0.18 0.01,-0.37 0.02,-0.57 0,-0.19 0,-0.39 -0.01,-0.57 0,-0.15 -0.02,-0.25 -0.08,-0.34 -0.07,-0.09 -0.18,-0.18 -0.37,-0.32l-0.35 -0.24c-0.23,-0.15 -0.34,-0.25 -0.39,-0.44 -0.05,-0.18 -0.03,-0.43 0.01,-0.89 0.01,-0.23 0.03,-0.37 0.09,-0.48 0.06,-0.12 0.15,-0.2 0.32,-0.32l0.08 -0.06 0 0.1c0,0.26 0,0.47 -0.01,0.65 -0.01,0.41 -0.01,0.63 0.09,0.73 0.11,0.12 0.38,0.12 0.96,0.12l0.33 0c0.14,0 0.3,0.01 0.49,0.01 0.76,0.02 1.86,0.04 2.29,-0.11 0.06,-0.33 0.04,-0.64 0.03,-0.98 0,-0.14 -0.01,-0.28 -0.01,-0.42l0 -0.1 0.17 0.11c0.25,0.16 0.34,0.22 0.34,0.68 0,0.07 0.01,0.17 0.02,0.28 0.04,0.32 0.08,0.71 -0.07,0.86 -0.21,0.24 -0.65,0.52 -0.92,0.73l-0.05 0.04c-0.07,0.06 -0.09,0.08 -0.11,0.21 -0.02,0.1 -0.02,0.21 -0.02,0.31l0.01 0.09c0,0.16 0,0.31 0,0.43 0,0.4 0,0.59 0.07,0.72 0.07,0.13 0.22,0.21 0.53,0.36 0.09,0.05 0.19,0.1 0.3,0.16 0.08,0.03 0.13,0.06 0.18,0.08 0.1,0.05 0.15,0.08 0.19,0.12 0.05,0.06 0.05,0.12 0.05,0.27l0 0.04c0,0.13 0,0.26 0,0.39 -0.01,0.16 -0.01,0.33 0,0.51l0 0.05 -0.05 0 -5.48 -0.01 0 -0.05c0.01,-0.3 0,-0.52 0,-0.68 -0.01,-0.2 -0.02,-0.32 0.03,-0.42 0.07,-0.13 0.22,-0.2 0.56,-0.38l0.21 -0.12c0.06,-0.03 0.11,-0.06 0.16,-0.08zm0.13 2.07l3.4 0c0.04,0 0.07,0.02 0.1,0.04 0.02,0.03 0.04,0.06 0.04,0.1l0 1.13c0,0.04 -0.02,0.08 -0.04,0.1 -0.03,0.03 -0.06,0.04 -0.1,0.04l-3.4 0c-0.04,0 -0.08,-0.01 -0.1,-0.04 -0.03,-0.02 -0.04,-0.06 -0.04,-0.1l0 -1.13c0,-0.04 0.01,-0.07 0.04,-0.1 0.02,-0.02 0.06,-0.04 0.1,-0.04zm0 1.68c1.01,-0.01 3.58,-0.03 3.68,0.03l0.02 0.02 0.04 0.62c0.08,-0.03 0.08,-0.04 0.09,-0.5 0,-0.17 0.01,-0.35 0.01,-0.53 0.02,-0.49 0.03,-0.99 -0.02,-1.48l0 -0.05 0.06 0 0.48 -0.01 0.01 0.04c0.03,0.14 -0.01,0.81 -0.07,1.41 -0.06,0.5 -0.13,0.96 -0.2,1.06 -0.14,0.19 -0.62,0.29 -1.21,0.33 -0.91,0.07 -2.08,0.01 -2.53,-0.04 -0.07,-0.01 -0.14,-0.01 -0.21,-0.02 -0.13,-0.01 -0.25,-0.01 -0.39,-0.04 -0.26,-0.04 -0.31,-0.09 -0.44,-0.22l-0.02 -0.03c-0.22,-0.22 -0.28,-1.3 -0.32,-1.99 -0.01,-0.18 -0.02,-0.33 -0.03,-0.43l0 -0.05 0.58 0 0.02 2.41c0.01,0.14 -0.01,0.14 0,0.14 0.01,0 0.03,0 0.04,0 0.08,-0.09 0.08,-0.2 0.07,-0.34 0,-0.08 0,-0.17 0.01,-0.28l0 -0.04 0.33 -0.01zm0.6 1.55l2.18 0c0.14,0 0.26,0.06 0.35,0.14 0.09,0.09 0.14,0.22 0.14,0.35l0 16.38c0,0.13 -0.05,0.26 -0.14,0.34 -0.09,0.09 -0.21,0.15 -0.35,0.15l-2.18 0c-0.13,0 -0.26,-0.06 -0.34,-0.15 -0.09,-0.08 -0.15,-0.21 -0.15,-0.34l0 -16.38c0,-0.13 0.06,-0.26 0.15,-0.35 0.08,-0.08 0.21,-0.14 0.34,-0.14zm3.1 10.25c0,-2.44 0,-4.88 0,-7.33l0.05 0c4.97,0.09 4.94,2.93 4.89,6.72l-0.01 0.62 -0.05 0 -4.88 -0.01zm0.19 0.19l4.57 0c0.06,0 0.12,0.03 0.16,0.07 0.04,0.04 0.06,0.1 0.06,0.16l0 0.98c0,0.06 -0.02,0.12 -0.06,0.16 -0.04,0.04 -0.1,0.07 -0.16,0.07l-4.57 0c-0.06,0 -0.12,-0.03 -0.16,-0.07 -0.04,-0.04 -0.06,-0.1 -0.06,-0.16l0 -0.98c0,-0.06 0.02,-0.12 0.06,-0.16 0.04,-0.04 0.1,-0.07 0.16,-0.07zm0.12 1.77l4.32 0c0.09,0 0.18,0.04 0.24,0.1 0.06,0.06 0.1,0.15 0.1,0.24l0 1.63c0,0.09 -0.04,0.18 -0.1,0.24 -0.06,0.06 -0.15,0.1 -0.24,0.1l-4.32 0c-0.1,0 -0.18,-0.04 -0.24,-0.1 -0.06,-0.06 -0.1,-0.15 -0.1,-0.24l0 -1.63c0,-0.09 0.04,-0.18 0.1,-0.24 0.06,-0.06 0.14,-0.1 0.24,-0.1zm5.43 6.68l0 -12.72c0,-0.07 0,-0.14 0,-0.21 -0.06,-1.37 -0.61,-2.29 -1.47,-2.86 -0.86,-0.58 -2.03,-0.81 -3.31,-0.81 -0.14,0 -0.27,0 -0.41,0.01l-0.05 0 0 -2.07 0.05 0c3.49,-0.16 5.36,0.5 6.36,1.95 0.99,1.44 1.11,3.66 1.11,6.63 0,3.06 0,5.8 0.01,7.7l0 2.38 -2.29 0zm0.12 0.33l2.17 0 0 0.05c0.01,1.51 -0.25,5.77 -0.74,9.24 -0.33,2.28 -0.75,4.23 -1.26,4.83 -0.45,0.53 -1.02,0.92 -1.7,1.17 -0.69,0.24 -1.49,0.35 -2.41,0.31l-0.05 0 0 -0.98 0.06 0c0.81,0.05 1.5,-0.04 2.06,-0.26 0.56,-0.21 0.98,-0.56 1.29,-1.03 0.17,-0.27 0.31,-2.24 0.4,-4.58 0.14,-3.45 0.19,-7.73 0.13,-8.7l0 -0.05 0.05 0zm4.56 6.75c0.03,-1.54 0.05,-3.1 0.05,-4.66 0.01,-1.56 0.01,-3.13 0.01,-4.68l-0.01 -3.58c0,-0.12 0,-0.28 -0.01,-0.44 -0.01,-0.27 -0.03,-0.55 -0.01,-0.74 0.05,-0.57 0.6,-0.53 1.38,-0.48 0.7,0.05 1.6,0.12 2.48,-0.25l0.05 -0.02 0.02 0.04c0.03,0.07 0.06,0.17 0.09,0.26 0.02,0.09 0.04,0.19 0.04,0.26l0.06 0.2c0.03,0.06 0.07,0.25 0.11,0.46 0.07,0.37 0.14,0.85 0.16,0.98 0.03,0.21 0.14,1.02 0.2,1.62 0.04,0.36 0.06,0.65 0.03,0.73l-0.01 0.03 -0.04 0c-0.32,0.01 -1.58,0.02 -2.62,0.05 -0.6,0.01 -1.13,0.02 -1.37,0.03 -0.02,0.21 -0.03,1.09 -0.03,1.9 0,0.62 0.01,1.2 0.04,1.38l0.57 0c1.13,0.01 2.29,0.02 3.44,-0.06l0.05 0c-0.02,0.72 -0.04,1.44 -0.07,2.16l-0.04 0c-0.17,0.01 -1,0.02 -1.88,0.02 -0.88,0.01 -1.81,0.01 -2.17,0.01 -0.01,0.28 -0.05,1.5 -0.07,2.43 -0.01,0.53 -0.02,0.96 -0.01,1.06 0.59,0.02 1.25,0.02 1.89,0.02 0.85,-0.01 1.65,-0.04 2.23,-0.07l0.03 0 0.02 0.04c0.04,0.11 0.04,0.6 0.02,1.07 -0.02,0.45 -0.07,0.88 -0.12,0.96l-0.02 0.02 -0.02 0c-0.71,0.05 -1.46,0.05 -2.2,0.06 -0.63,0 -1.26,0.01 -1.86,0.04 -0.03,0.64 -0.04,1.22 -0.03,1.77 0,0.55 0.01,1.07 0.03,1.62 0.45,0.01 1.52,0.01 2.46,0 0.63,-0.01 1.2,-0.02 1.51,-0.05l0.05 0 0 0.05c0.03,0.18 0.04,0.36 0.05,0.53 0.02,1.17 -0.49,2.1 -1.24,2.79 -0.75,0.68 -1.75,1.11 -2.72,1.25 -0.22,0.04 -0.44,0.05 -0.65,0.06l-0.05 0 0 -0.05c0,-1.08 0.03,-2.19 0.06,-3.28 0.01,-0.39 0.02,-0.77 0.03,-1.16 0.02,-0.8 0.04,-1.62 0.05,-2.43 0.01,-0.65 0.02,-1.3 0.04,-1.95zm0.78 -1.85l0 -2.34c0,-0.06 0.03,-0.12 0.07,-0.16 0.04,-0.04 0.09,-0.06 0.16,-0.06l3.46 0c0.06,0 0.12,0.02 0.16,0.06 0.04,0.04 0.07,0.1 0.07,0.16l0 2.34c0,0.06 -0.03,0.12 -0.07,0.16 -0.04,0.04 -0.1,0.07 -0.16,0.07l-3.46 0c-0.07,0 -0.12,-0.03 -0.16,-0.07 -0.04,-0.04 -0.07,-0.1 -0.07,-0.16zm0.23 2.96l3.27 0c0.07,0 0.12,0.03 0.16,0.07 0.04,0.04 0.07,0.1 0.07,0.16l0 2.34c0,0.06 -0.03,0.12 -0.07,0.16 -0.04,0.04 -0.09,0.06 -0.16,0.06l-3.27 0c-0.07,0 -0.12,-0.02 -0.16,-0.06 -0.04,-0.04 -0.07,-0.1 -0.07,-0.16l0 -2.34c0,-0.06 0.03,-0.12 0.07,-0.16 0.04,-0.04 0.09,-0.07 0.16,-0.07zm-15.3 -36.64l0 -2.95 0.05 0 3.64 0 0 2.95c0,0.14 -0.05,0.26 -0.14,0.35 -0.09,0.09 -0.21,0.14 -0.34,0.14l-2.72 0c-0.14,0 -0.26,-0.05 -0.35,-0.14 -0.08,-0.09 -0.14,-0.21 -0.14,-0.35zm4.51 8.37c0.26,-1.02 0.41,-1.93 0.44,-2.81 0.02,-0.89 -0.09,-1.76 -0.36,-2.7 -0.07,-0.25 -0.18,-0.41 -0.27,-0.52 -0.16,-0.22 -0.23,-0.32 0.1,-0.64 0.21,-0.2 0.21,-0.25 0.19,-0.62l0 -0.02c-0.01,-0.12 -0.02,-0.25 -0.02,-0.37 0,-0.14 -0.01,-0.28 -0.02,-0.43 -0.03,-0.45 -0.15,-0.53 -0.36,-0.68 -0.09,-0.06 -0.19,-0.14 -0.31,-0.25l-0.02 -0.02 0 -0.02 0.01 -1.51c0.57,-0.22 1.15,-0.47 1.72,-0.68 0.32,-0.12 0.63,-0.24 0.93,-0.36 0.28,-0.1 0.55,-0.21 0.8,-0.31 0.31,-0.11 0.64,-0.24 0.99,-0.38 0.84,-0.33 1.77,-0.69 2.45,-0.92l0.07 -0.03 0 0.08c-0.02,0.46 -0.01,0.96 0,1.47 0.01,0.32 0.02,0.64 0.02,0.95 0,0.29 0,0.79 0,1.41 0.02,2.04 0.04,5.32 -0.05,5.9 -0.11,0.75 -0.36,1.36 -0.7,1.84 -0.34,0.49 -0.77,0.86 -1.23,1.16 -0.26,0.16 -0.56,0.29 -0.88,0.38 -0.33,0.1 -0.68,0.16 -1.03,0.18 -0.15,0.01 -1,0.04 -1.66,0.03 -0.37,-0.01 -0.68,-0.03 -0.78,-0.07l-0.04 -0.02 0.01 -0.04zm10.79 17.13l3.46 0c0.06,0 0.12,0.03 0.16,0.07 0.04,0.04 0.07,0.1 0.07,0.16l0 2.34c0,0.06 -0.03,0.12 -0.07,0.16 -0.04,0.04 -0.1,0.06 -0.16,0.06l-3.46 0c-0.07,0 -0.12,-0.02 -0.16,-0.06 -0.04,-0.04 -0.07,-0.1 -0.07,-0.16l0 -2.34c0,-0.06 0.03,-0.12 0.07,-0.16 0.04,-0.04 0.09,-0.07 0.16,-0.07zm-14.85 13.11c0.05,-0.15 0.11,-0.26 0.16,-0.3 0.03,-0.03 0.06,-0.04 0.09,-0.04 0.04,0 0.07,0.03 0.09,0.07 0.02,0.05 0.04,0.16 0.03,0.33 0,0.07 0,0.13 -0.01,0.2 -0.02,0.36 -0.04,0.72 0.28,0.78 0.15,0.03 0.99,0.05 1.8,0.05 0.77,0 1.51,-0.02 1.63,-0.05 0.22,-0.05 0.23,-0.54 0.24,-0.91 0,-0.14 0.01,-0.26 0.02,-0.34 0.02,-0.09 0.05,-0.14 0.12,-0.13 0.02,0.01 0.05,0.02 0.08,0.05 0.1,0.09 0.18,0.34 0.22,0.62 0.05,0.27 0.05,0.58 0.01,0.81 -0.02,0.11 -0.05,0.21 -0.11,0.27 -0.14,0.16 -0.31,0.26 -0.47,0.36 -0.28,0.17 -0.53,0.33 -0.54,0.76 -0.01,0.18 -0.01,0.39 -0.01,0.59 0,0.17 0,0.34 0.01,0.49 0.01,0.27 0.24,0.39 0.61,0.57 0.08,0.04 0.17,0.09 0.26,0.13 0.03,0.02 0.07,0.04 0.1,0.05 0.11,0.05 0.19,0.08 0.23,0.21 0.04,0.12 0.04,0.58 0.03,0.88 0,0.08 0,0.15 0,0.2l0 0.05c-1.66,0 -3.32,0 -4.99,-0.01l-0.01 -0.03c-0.04,-0.09 -0.07,-0.3 -0.08,-0.52 -0.01,-0.19 0,-0.39 0.03,-0.51 0.05,-0.19 0.3,-0.3 0.56,-0.42 0.29,-0.14 0.6,-0.28 0.66,-0.53 0.02,-0.09 0.03,-0.23 0.03,-0.39 0,-0.25 -0.01,-0.53 -0.02,-0.68 -0.01,-0.22 -0.03,-0.35 -0.08,-0.44 -0.05,-0.1 -0.13,-0.16 -0.26,-0.26l-0.63 -0.46c-0.12,-0.08 -0.18,-0.33 -0.19,-0.61 -0.02,-0.28 0.02,-0.6 0.11,-0.84zm0.34 6.03l4 0c0.09,0 0.17,0.03 0.22,0.09 0.06,0.05 0.09,0.13 0.09,0.22l0 0.72c0,0.09 -0.03,0.17 -0.09,0.22 -0.05,0.06 -0.13,0.09 -0.22,0.09l-4 0c-0.08,0 -0.16,-0.03 -0.22,-0.09 -0.05,-0.05 -0.09,-0.13 -0.09,-0.22l0 -0.72c0,-0.09 0.04,-0.17 0.09,-0.22 0.06,-0.06 0.14,-0.09 0.22,-0.09zm0.54 1.61l2.93 0c0.06,0 0.11,0.03 0.15,0.06 0.04,0.04 0.06,0.1 0.06,0.16l0 0.44c0,0.06 -0.02,0.11 -0.06,0.15 -0.04,0.04 -0.09,0.07 -0.15,0.07l-2.93 0c-0.06,0 -0.12,-0.03 -0.15,-0.07 -0.04,-0.04 -0.07,-0.09 -0.07,-0.15l0 -0.44c0,-0.06 0.03,-0.12 0.07,-0.16 0.03,-0.03 0.09,-0.06 0.15,-0.06zm0.02 1.1l3.03 0c0.08,0 0.16,0.03 0.22,0.09 0.06,0.06 0.09,0.14 0.09,0.22l0 2.01c0,0.09 -0.03,0.17 -0.09,0.23 -0.06,0.05 -0.14,0.09 -0.22,0.09l-3.03 0c-0.08,0 -0.16,-0.04 -0.22,-0.09 -0.06,-0.06 -0.09,-0.14 -0.09,-0.23l0 -2.01c0,-0.08 0.03,-0.16 0.09,-0.22 0.06,-0.06 0.14,-0.09 0.22,-0.09zm0.05 3.05l2.93 0c0.06,0 0.11,0.03 0.15,0.06 0.04,0.04 0.06,0.1 0.06,0.16l0 0.44c0,0.06 -0.02,0.11 -0.06,0.15 -0.04,0.04 -0.09,0.06 -0.15,0.06l-2.93 0c-0.06,0 -0.11,-0.02 -0.15,-0.06 -0.04,-0.04 -0.07,-0.09 -0.07,-0.15l0 -0.44c0,-0.06 0.03,-0.12 0.07,-0.16 0.04,-0.03 0.09,-0.06 0.15,-0.06zm2.57 -57.82c0.01,-0.75 0.02,-1.53 0.02,-2.36l0 -0.04 0.16 -0.02c3.29,-0.22 5.95,-0.41 7.04,4.17l0.01 0.03 -0.03 0.02c-0.63,0.4 -2.43,1.04 -4.41,1.74 -0.9,0.31 -1.84,0.64 -2.71,0.97l-0.07 0.02 0 -0.07c-0.03,-1.59 -0.02,-2.99 -0.01,-4.46zm-2.71 44.45l3.07 0c0.06,0 0.12,0.02 0.16,0.06 0.04,0.04 0.06,0.1 0.06,0.16l0 1.71c0,0.06 -0.02,0.12 -0.06,0.16 -0.04,0.04 -0.1,0.07 -0.16,0.07l-3.07 0c-0.06,0 -0.11,-0.03 -0.16,-0.07 -0.04,-0.04 -0.06,-0.1 -0.06,-0.16l0 -1.71c0,-0.06 0.02,-0.12 0.06,-0.16 0.05,-0.04 0.1,-0.06 0.16,-0.06zm13.47 -26.48c0,-0.91 0,-1.82 0,-2.73l0.64 0.03c0,0.9 0,1.81 0,2.71l-0.06 0 -0.58 -0.01zm-14.83 -27.68c-0.43,-0.31 -0.83,-0.67 -1.25,-1.11l0 0c-0.18,-0.24 -0.28,-0.41 -0.31,-0.55 -0.04,-0.15 -0.01,-0.26 0.03,-0.37 0.06,-0.14 0.11,-0.26 0.16,-0.37 0.19,-0.45 0.29,-0.67 0.36,-1.27l0.01 -0.07 0.06 0.03c0.28,0.13 0.53,0.42 0.73,0.76 0.3,0.5 0.52,1.12 0.63,1.5 0.19,0.66 1.74,0.91 3.1,1.13 1,0.16 1.91,0.31 2.13,0.61 0.09,0.11 0.13,0.27 0.13,0.43 0,0.2 -0.05,0.41 -0.12,0.55l-0.01 0.03 -0.02 0c-0.16,0.03 -0.82,-0.05 -1.57,-0.16 -1,-0.14 -2.17,-0.34 -2.56,-0.43l-0.01 0c-0.57,-0.17 -1.05,-0.41 -1.49,-0.71zm2.02 -1.03c-0.3,-0.05 -0.62,-0.09 -0.86,-0.14 -0.46,-0.1 -0.65,-0.75 -0.77,-1.14l-0.02 -0.1 0.08 0.02c0.15,0.02 0.43,0.07 0.75,0.13 0.62,0.11 1.39,0.25 1.68,0.31l0.06 0.02 -0.02 0.05c-0.05,0.18 -0.08,0.31 -0.11,0.45 -0.03,0.13 -0.05,0.27 -0.08,0.46l-0.01 0.05 -0.05 -0.01c-0.18,-0.03 -0.41,-0.07 -0.65,-0.1zm-6.16 0.52c-0.17,0 -0.33,0 -0.42,-0.01l-0.05 -0.01c0.17,-0.94 0.34,-1.89 0.51,-2.83l0.05 0c0.07,0.01 0.25,0.08 0.47,0.18 0.35,0.17 0.8,0.39 0.92,0.46l0.03 0.02 -0.01 0.03c-0.03,0.25 -0.17,1.01 -0.41,1.56 -0.15,0.33 -0.33,0.58 -0.56,0.6 -0.11,0 -0.33,0.01 -0.53,0zm1.58 -1.34c0.05,-0.24 0.1,-0.49 0.16,-0.62l0.02 -0.05 0.05 0.02c0.15,0.06 0.26,0.09 0.35,0.08 0.09,-0.01 0.18,-0.06 0.28,-0.14l0.1 -0.09 -0.02 0.13c-0.01,0.12 -0.06,0.24 -0.1,0.35 -0.15,0.36 -0.31,0.76 0.51,1.58 0.02,0.03 0.04,0.04 0.06,0.05 0.04,0.03 0.07,0.05 0.12,0.12l0.05 0.08 -2.24 0 0.05 -0.08c0.06,-0.08 0.1,-0.15 0.14,-0.2 0.14,-0.2 0.21,-0.31 0.34,-0.69 0.05,-0.14 0.09,-0.34 0.13,-0.54zm16.81 21.21c-0.06,-0.56 -0.09,-1.16 -0.11,-1.75 -0.02,-0.3 -0.03,-0.6 -0.05,-0.89 -0.03,-0.59 -0.02,-0.61 0.08,-0.79 0.04,-0.07 0.1,-0.18 0.19,-0.38 0.08,-0.21 0.13,-0.4 0.14,-0.58 0.02,-0.2 0.02,-0.39 0,-0.63l0 -0.1 0.08 0.06c0.2,0.12 0.32,0.23 0.39,0.38 0.06,0.15 0.08,0.34 0.07,0.64 -0.01,0.53 0,1.12 0.01,1.72 0.01,0.84 0.01,1.68 -0.02,2.32l0 0.05 -0.05 0 -0.72 -0.01 -0.01 -0.04zm-15.45 -23.68c-0.03,-0.23 -0.06,-0.4 -0.13,-0.52 -0.07,-0.11 -0.19,-0.19 -0.41,-0.25l-0.04 -0.01 0.01 -0.04c0.09,-0.53 0.26,-1.27 0.47,-2.04 0.3,-1.13 0.66,-2.35 0.9,-3.13l0.01 -0.04c0.73,0.05 1.45,0.1 2.17,0.15l0.01 0.04c0.01,0.04 -0.08,0.34 -0.18,0.6 -0.07,0.17 -0.14,0.33 -0.2,0.37l-0.01 0.01 -0.02 0c-0.44,-0.04 -0.94,0.61 -1.23,1.33 -0.09,0.23 -0.16,0.46 -0.19,0.68 -0.04,0.22 -0.04,0.43 -0.01,0.61 0.06,0.3 0.24,0.52 0.59,0.55l0.06 0 -0.05 0.27c-0.06,0.39 -0.11,0.75 -0.23,1.14l-0.01 0.02 -0.02 0.01c-0.51,0.14 -0.53,0.23 -0.63,0.78l-0.02 0.12 -0.84 -0.63 0 -0.02zm1.85 -1.83c-0.09,-0.02 -0.17,-0.05 -0.23,-0.1 -0.11,-0.1 -0.17,-0.23 -0.19,-0.4 -0.03,-0.15 -0.02,-0.33 0.01,-0.52 0.08,-0.51 0.31,-1.05 0.44,-1.2 0.26,-0.32 0.59,-0.53 0.93,-0.65 0.42,-0.15 0.87,-0.17 1.29,-0.08 0.43,0.09 0.83,0.28 1.15,0.55 0.27,0.23 0.49,0.52 0.61,0.85 0.16,0.47 0.1,0.75 0,1.15 -0.01,0.07 -0.03,0.15 -0.05,0.22 -0.05,0.26 -0.09,0.45 -0.2,0.59 -0.11,0.14 -0.28,0.22 -0.58,0.23l-0.06 0.01 0.07 -0.48 0.09 -0.03c0.12,-0.04 0.12,-0.04 0.15,-0.27 0.01,-0.11 0.03,-0.23 0.06,-0.35 0.07,-0.37 0.15,-0.79 -0.04,-1.11 -0.11,-0.18 -0.26,-0.34 -0.44,-0.47 -0.33,-0.23 -0.74,-0.37 -1.15,-0.39 -0.41,-0.03 -0.82,0.05 -1.13,0.24 -0.14,0.08 -0.26,0.19 -0.35,0.32 -0.14,0.18 -0.18,0.46 -0.22,0.72l-0.02 0.14c-0.08,0.49 -0.05,0.57 -0.02,0.63 0.02,0.07 0.04,0.1 -0.06,0.36l-0.01 0.04 -0.05 0zm2.34 3.78c-0.46,-0.04 -0.94,-0.13 -1.4,-0.21 -0.2,-0.04 -0.4,-0.07 -0.61,-0.11 -0.25,-0.04 -0.45,-0.11 -0.59,-0.21 -0.11,-0.07 -0.19,-0.16 -0.24,-0.27 -0.05,-0.1 -0.06,-0.22 -0.04,-0.36 0.03,-0.16 0.11,-0.34 0.25,-0.55l0.02 -0.03c0.97,0.17 1.94,0.34 2.92,0.51l0 0.04c0.01,0.1 -0.03,0.35 -0.09,0.59 -0.05,0.25 -0.13,0.49 -0.18,0.58l-0.01 0.02 -0.03 0zm-2.53 -2.19l0.44 -2.31 0.04 0c0.14,0 0.8,0.1 1.44,0.22 0.64,0.11 1.27,0.23 1.4,0.28l0.03 0.01 0 0.04c0.02,0.21 -0.13,0.97 -0.25,1.57 -0.05,0.29 -0.1,0.54 -0.12,0.69l-0.01 0.05 -0.05 -0.01c-0.23,-0.04 -0.89,-0.14 -1.52,-0.25 -0.64,-0.1 -1.25,-0.22 -1.37,-0.28l-0.03 -0.01zm3.92 -4.12c-0.21,-0.08 -0.38,-0.17 -0.54,-0.26 -0.52,-0.28 -0.91,-0.49 -2.11,-0.28l-0.08 0.01 0.03 -0.08c0.08,-0.29 0.14,-0.46 0.22,-0.61 0.07,-0.15 0.17,-0.28 0.33,-0.52l0.01 -0.02c0.94,0.12 1.88,0.24 2.82,0.37l0 0.04c0,0.04 -0.1,0.27 -0.22,0.52 -0.16,0.34 -0.35,0.74 -0.4,0.81l-0.02 0.04 -0.04 -0.02zm10.42 46.43l0.02 -0.71 0.03 -0.02c0.12,-0.06 0.25,-0.14 0.39,-0.22 0.6,-0.35 1.33,-0.78 1.89,-0.55 0.23,0.09 0.46,0.3 0.64,0.53 0.2,0.26 0.34,0.55 0.34,0.72l0 0.03 -0.03 0.02c-0.59,0.3 -1.61,0.28 -2.48,0.26 -0.27,-0.01 -0.53,-0.01 -0.75,-0.01l-0.05 0 0 -0.05zm-16.89 -43.04c-0.22,-0.09 -0.45,-0.18 -0.7,-0.27 -0.23,-0.09 -0.47,-0.18 -0.69,-0.28l-0.04 -0.01 0.01 -0.05c0.11,-0.54 0.37,-1.66 0.69,-2.6 0.2,-0.6 0.43,-1.13 0.66,-1.38 0.15,-0.16 0.33,-0.27 0.56,-0.31 0.23,-0.04 0.5,-0.01 0.84,0.12l0.05 0.01 -0.02 0.05c-0.14,0.44 -0.82,2.95 -1.13,4.11 -0.1,0.34 -0.16,0.56 -0.16,0.58l-0.02 0.05 -0.05 -0.02zm17 41.96c-0.11,-0.4 -0.26,-1.64 -0.2,-2.78 0.03,-0.56 0.11,-1.1 0.27,-1.51 0.17,-0.42 0.42,-0.71 0.79,-0.74 0.1,-0.01 0.22,0 0.35,0.03 0.99,0.28 1.86,1.95 2.55,4.04 1.16,3.47 1.87,8.11 1.96,9.41 0.05,0.64 -0.02,1.04 -0.14,1.22 -0.06,0.09 -0.14,0.14 -0.22,0.14 -0.07,0 -0.15,-0.04 -0.23,-0.12 -0.18,-0.19 -0.35,-0.62 -0.42,-1.23 -0.03,-0.3 -0.07,-0.64 -0.12,-0.98 -0.04,-0.3 -0.09,-0.6 -0.13,-0.86 -0.11,-0.64 -0.19,-1.29 -0.26,-1.94 -0.07,-0.6 -0.14,-1.2 -0.23,-1.78 -0.24,-1.46 -0.62,-2.69 -1.24,-3.3 -0.6,-0.59 -1.45,-0.58 -2.64,0.42l-0.07 0.06 -0.02 -0.08zm-10.1 18.48l0.03 -0.99c1.43,-0.06 2.87,-0.12 4.31,-0.17l0 0.05c0.06,0.45 0.04,1.15 0.03,1.76 -0.01,0.24 -0.01,0.47 -0.01,0.65l0 0.24c0,1.28 0.01,2.66 -1.41,3.29 -0.53,0.23 -1.44,0.24 -2.08,0.25l-0.14 0 -0.02 -0.02c-0.2,-0.21 -0.19,-0.37 -0.17,-0.62 0.01,-0.29 0.04,-0.72 -0.26,-1.51 -0.03,-0.06 -0.05,-0.11 -0.08,-0.16 -0.08,-0.16 -0.13,-0.26 0.03,-0.46 0.07,-0.09 0.14,-0.12 0.19,-0.16 0.08,-0.04 0.15,-0.08 0.19,-0.27 0.03,-0.13 0.06,-0.69 -0.02,-1.15 -0.05,-0.25 -0.14,-0.48 -0.28,-0.56l-0.27 -0.11 0 -0.01c0,0 -0.01,-0.01 -0.02,-0.01l-0.02 -0.02 0 -0.02zm4.47 -54.27c-1.01,-0.57 -1.22,-0.69 -3.07,-1.09l-0.04 -0.01 0 -0.05c0.09,-0.86 0.55,-3.74 1.09,-5.99 0.33,-1.4 0.7,-2.56 1.03,-2.86l0.02 -0.02 0.03 0.01c0.77,0.26 1.03,5.71 1.17,8.56 0.03,0.72 0.06,1.28 0.08,1.54l0.01 0.09 -0.32 -0.18zm-5.41 -4.54c-0.06,-0.15 -0.14,-0.27 -0.25,-0.35l-0.03 -0.02 0.01 -0.03 0.21 -1.2 0.05 0c0.3,0 0.53,-0.1 0.69,-0.27 0.2,-0.2 0.3,-0.5 0.35,-0.83 0.05,-0.33 0.04,-0.69 0,-1.02 -0.06,-0.5 -0.2,-0.9 -0.31,-0.96l-0.01 0 0 -0.01 0 0c-0.02,-0.07 0.1,-0.39 0.24,-0.73 0.14,-0.34 0.3,-0.7 0.35,-0.79 0.01,-0.01 0.02,-0.02 0.02,-0.03l0.03 0c0.22,-0.03 1.09,0.02 1.84,0.13 0.48,0.07 0.92,0.17 1.08,0.3l0.03 0.02 -0.01 0.04c-0.06,0.14 -0.13,0.28 -0.21,0.44 -0.08,0.17 -0.17,0.35 -0.24,0.53 -0.64,1.59 -0.98,3.4 -1.3,5.11l-0.11 0.61c-0.08,0.41 -0.13,0.84 -0.18,1.27 -0.05,0.4 -0.1,0.81 -0.17,1.2l-0.01 0.05 -0.06 -0.01c-0.59,-0.16 -1.12,-0.25 -1.67,-0.35 -0.34,-0.05 -0.68,-0.11 -1.06,-0.19l-0.18 -0.04 0.18 -0.06c0.08,-0.03 0.17,-0.12 0.27,-0.26 0.19,-0.29 0.36,-0.76 0.46,-1.24 0.1,-0.48 0.11,-0.97 -0.01,-1.31zm2.03 65.52l0.05 0c0.45,0.02 1.21,0.06 1.95,-0.06 0.73,-0.12 1.43,-0.39 1.79,-0.97l0.09 -0.15 0 0.18c0.01,0.43 0.02,0.87 0.03,1.29 0.03,1.06 0.06,2.07 -0.05,2.95 -0.25,2.05 -1.23,3.38 -4.59,2.97l-0.05 -0.01 0.01 -0.49 0.03 -0.01c0.04,-0.02 0.07,-0.03 0.1,-0.04 0.12,-0.04 0.15,-0.05 0.16,-0.54 0,-0.49 -0.07,-0.52 -0.13,-0.54 -0.05,-0.02 -0.09,-0.04 -0.11,-0.11l0 -0.01c0,-0.59 0,-1.19 0,-1.79l0.03 -0.02c0.56,-0.31 0.61,-1.27 0.65,-2.05 0.01,-0.2 0.02,-0.39 0.03,-0.55l0.01 -0.05z"/>
  <path class="fil1 str1" d="M20.34 64.94l0.01 1.06c0.3,0.1 0.34,0.08 0.47,0.33 0.07,0.11 0.11,0.36 0.14,0.62 0.06,0.64 0.07,0.92 -0.27,1.17 -0.44,0.32 -0.16,0.45 0.08,1.24 0.12,0.5 0.1,0.84 0.09,1.07 -0.05,0.75 0.33,0.63 0.89,0.63l14.78 0c0.08,0 0.16,0 0.23,0 1.11,0.05 0.43,-0.64 0.75,-1.7 0.24,-0.79 0.53,-0.92 0.08,-1.24 -0.34,-0.25 -0.32,-0.53 -0.26,-1.17 0.07,-0.74 0.17,-0.81 0.6,-0.95l0.01 -1.06c-5.87,0 -11.73,0 -17.6,0z"/>
  <path class="fil1 str1" d="M37.27 72.86l-16.22 0 -0.04 0 -0.1 0.88c-0.08,1.23 -0.17,0.99 -0.57,1.29 0,0.64 0,1.29 0,1.93 0.03,0.15 0.43,0.02 0.2,1.25l-0.23 0.08 0.02 0.56 17.63 0 0.01 -0.56 -0.23 -0.08c-0.22,-1.19 0.14,-1.1 0.2,-1.24l0 -1.94c-0.35,-0.27 -0.44,-0.09 -0.53,-0.86l-0.14 -1.31z"/>
  <path class="fil1 str1" d="M21.84 47.39l14.6 0c0.18,0 0.32,-0.14 0.32,-0.31l0 -6.9c0,-0.18 -0.14,-0.32 -0.32,-0.32l-14.6 0c-0.17,0 -0.32,0.14 -0.32,0.32l0 6.9c0,0.17 0.15,0.31 0.32,0.31z"/>
 </g>
</svg>
